<?xml version="1.0" standalone="no"?>
<!DOCTYPE svg PUBLIC "-//W3C//DTD SVG 1.1//EN" "http://www.w3.org/Graphics/SVG/1.1/DTD/svg11.dtd" >
<svg>
<metadata>
Created by FontForge 20120731 at Sat Jun 29 17:57:56 2019
 By www
Copyright (c) 2010 by Gilles Le Corre. All rights reserved.
</metadata>
<defs>
<font id="1651AlchemyW00-Normal" horiz-adv-x="864" >
  <font-face 
    font-family="1651AlchemyW00-Normal"
    font-weight="400"
    font-stretch="normal"
    units-per-em="1000"
    panose-1="2 10 5 2 5 0 0 2 0 0"
    ascent="800"
    descent="-200"
    x-height="517"
    cap-height="831"
    bbox="-158 -434.846 1923 1117.5"
    underline-thickness="50"
    underline-position="-125"
    unicode-range="U+0020-FB06"
  />
<missing-glyph horiz-adv-x="457" 
d="M354 729q0 -2 1 -5q26 -6 27 -15q5 -15 17 -43l-2 -3q15 -17 15 -27l-22 -23q4 -7 13 -16q-7 -18 -7 -29q1 -39 1 -36q-7 -232 -1 -280q-3 -72 -6 -143q-3 -114 7.5 -135t10.5 -73q0 -78 -15 -75q3 -2 -38 -3q-19 -14 -28 -14h-12q-6 -7 -14 -7l-25 -15q-20 -2 -38 15
h-72q-12 -8 -27 -8l-13 8h-38q-9 0 -27 13q-36 2 -39 3q-15 -4 -15 75q0 53 10.5 74t7.5 135q-1 70 -4 141l-3 282q0 13 1 28q2 9 0 14q-1 7 -7 22q9 9 13 17q-13 12 -21 22q-1 9 14 27l-2 3q9 14 20 44q7 15 67 19q9 0 21 2q2 3 5 4q-3 0 85 3q71 2 110 -1q7 -2 13 -2
q11 2 17 2zM267 556q-17 -1 -32 9l-7 -1l-21 7h-32q-13 -7 -27 -6l-12 6h-4v-1q0 -3 -9 -14.5t-11 -45.5l-1 -95q18 -27 18 -40q0 -8 -9 -22t-9 -20v-140q0 -168 -5 -175q-12 -21 -6 -66q9 6 23 6q1 0 19 -5h35q33 0 73 -1h27q6 10 15 27q23 39 17 46q-5 8 -5 177v140
q0 6 -8 20t-8 22q0 12 16 39l-1 96q0 45 -3 54l-2 1q-3 -1 -6 -3z" />
    <glyph glyph-name="onequarter" unicode="&#x31;&#x2f;&#x34;" horiz-adv-x="681" 
d="M94 789q6 10 33 43q0 41 -15 41q-9 0 -19.5 36t-26.5 45l1 31q20 18 39 36q17 11 54 11q38 0 78 -12q56 -15 56 -44q0 -10 -11 -18q-15 -10 -16 -13q-5 -8 -3 -60q-26 -20 -26 -35q0 -9 14.5 -27.5t14.5 -32.5q0 -10 -2.5 -32.5t-2.5 -34.5t17.5 -67.5t17.5 -76.5
q0 -17 -10.5 -21.5t-34.5 -14.5q-6 -3 -14 0q-12 3 -16 3q-29 0 -27 0q-12 7 -38 7q-10 0 -32 -1.5t-32 -1.5q-62 0 -62 41q0 13 33 46t35 45q3 20 0 53q-5 45 -5 54zM612 85q-21 -3 -39 -6t-18 -25q0 -20 10 -66q5 -18 -2 -29.5t-26 -11.5q-38 8 -66 8h-18q-9 -2 -11 -2
q-7 0 -7 12q3 35 1 56q-1 33 -33 33q-9 0 -27 -3t-24 -3q-28 25 -81 25h-19q-14 -1 -18 -1q-45 0 -45 36q0 24 16 70q57 48 51 90q18 17 21 23t3 30q53 45 53 79q0 12 -14 12q-6 0 -13 -3q-42 -18 -137 -142q-43 -62 -87 -123q-15 -6 -25 -6q-11 0 -26.5 14t-15.5 23
q0 14 30 48q25 29 39 39q30 20 52.5 53t43.5 64q-20 3 -20 26q0 25 18 53t36 28q5 0 9 -3l38 9q34 36 69 70q42 45 52 81q29 0 36 39q21 11 35 11q28 0 28 -33q0 -27 -16 -54q48 -15 48 -38q0 -9 -14.5 -36.5t-14.5 -47.5q0 -33 33 -66q0 -6 -7 -40q-8 -27 -8 -44
q0 -25 14 -39q0 -4 -4.5 -25t-4.5 -32q0 -36 37 -40q11 12 29 12q25 0 48 -18q-6 -38 -9 -107zM361 511q24 -19 45 -19q39 0 39 39t-49 45q-26 3 -30 -27zM342 196q4 -1 11.5 -8.5t13.5 -7.5q32 0 32 34q0 36 -21 45q-8 -6 -15 -12q-15 -16 -15 -13q-29 -26 -6 -38z" />
    <glyph glyph-name="onehalf" unicode="&#x31;&#x2f;&#x32;" horiz-adv-x="663" 
d="M90 813q6 9 33 43q-2 41 -15 41q-6 0 -16 42.5t-34 42.5q-9 0 -22 -6l-6 39q45 41 126 41q37 0 78 -12q57 -17 57 -45q0 -9 -13.5 -17.5t-16 -13.5t-2.5 -59q-24 -20 -24 -36q0 -11 14.5 -29t12.5 -30q-4 -64 -4 -67q0 -51 18.5 -90t18.5 -44q0 -24 -12 -33
q-12 -3 -36 -13q-24 -20 -27 -20q-4 0 -16 10.5t-14 12.5q-12 6 -40 6h-23q-15 -2 -22 -2q-71 0 -71 42q0 15 29.5 46t30.5 44q3 20 0 53q-4 45 -4 54zM348 508q-2 -13 -11 -34q-12 -3 -30 -15q-87 -110 -154 -189q-20 -8 -45.5 -54.5t-29.5 -47.5q-18 -6 -27 -6
q-12 0 -20 9q-15 18 -18.5 21t-3.5 6q0 13 29 47t43.5 42t140.5 169q64 84 129 168q10 10 27 43q28 2 36 39q34 15 33 15q12 0 21 -14t9 -28q0 -39 -44 -88q-6 1 -39 -27zM387 306q-30 3 -32 -6q-3 -17 -4 -33q-6 -17 -26 -17q-12 0 -31.5 35.5t-20.5 48.5q-2 9 14 36t11 45
q56 69 96 69h78q17 0 39.5 -13.5t44.5 -10.5q47 -54 47 -75q0 -63 -2 -75q-9 -51 -45 -54q-19 -21 -66 -60q-16 0 -36.5 -14t-20.5 -31q2 0 20 -16q12 -11 18 -11q3 0 6 3q18 47 103 47q24 0 24 -48q0 -15 -3 -45t-1 -38q1 -21 -42 -25q-33 -2 -65 -3q-147 -12 -223 0
q-11 1 -53 42l2 24q30 37 82.5 76t71.5 66q5 6 24.5 7.5t22.5 22.5q13 26 13 35q0 12 -46 18z" />
    <glyph glyph-name="threequarters" unicode="&#x33;&#x2f;&#x34;" horiz-adv-x="685" 
d="M97 573q18 -11 60 -11q89 0 89 44q0 34 -81 93.5t-81 57.5q0 32 72 68t72 55q0 29 -25 44t-49 28q-33 -19 -55 -19q-24 0 -24 21q0 19 19 52q5 30 18 65q11 6 44 -12t43 -18q185 0 194 -62q3 -28 -30 -83.5t-60 -66.5q-18 -6 -38 -12q-28 -10 -28 -22q0 -29 44 -50
t44 -46l38 -47q13 9 13 21q29 0 36 41q29 13 32 13q13 0 22 -13.5t9 -26.5q0 -36 -54 -95q-39 -39 -76 -78q-3 -24 -30 -49l-42 -42q10 -29 -11 -48l-16 15q-32 -44 -96 -114q-14 -12 -42.5 -55.5t-31.5 -45.5q-18 -7 -31 -7q-30 0 -30 31q0 54 63 93q31 20 70 53
q56 45 56 64q0 6 -3 8.5t-20 36.5q-12 26 -42 21q-66 -3 -66 50q0 45 24 48zM628 46q-13 -12 -54 -22q-22 -6 -22 -33q0 -17 6 -42q1 -15 -17 -17l-39 3q-36 2 -66 0q-16 -1 -16 2q0 -5 6.5 19t5.5 56q-2 34 -33 34q-9 0 -26.5 -3t-24.5 -4q-29 25 -83 25h-19h-17
q-45 0 -45 35q0 24 17 72q57 48 51 88q18 18 49.5 92.5t34.5 102.5q1 17 9 29l39 3q4 15 24 22q15 8 31 14q5 16 23 16q33 0 37 -43q2 -6 -10 -15t-12 -18q0 -11 16 -29l20 -24q-2 -16 -2 -33q0 -37 13.5 -67t13.5 -29q0 -9 -14 -27t-14 -24q0 -12 27 -15q21 21 34 21
q11 0 23 -10q1 -2 1 -48q0 -11 18 -46t15 -85zM385 216q0 4 5.5 31t3.5 30q-3 9 -13 18q-3 5 -8 5q-13 0 -28 -38q-20 -42 -23 -45q-22 -21 -22 -28q0 -8 22 -8q6 0 16 5.5t16 5.5l19 -3q18 -2 27 0q12 3 12 12q0 7 -9 10t-18 5z" />
    <glyph glyph-name="uniF405" unicode="th" horiz-adv-x="834" 
d="M807 34q-5 -21 -18 -24q-74 -13 -116 -13q-96 0 -96 37q0 12 31 41.5t31 47.5q0 10 -6 19v179q3 10 3 19q0 48 -45 69q-17 0 -50 6q-7 3 -18.5 17.5t-11.5 24.5q0 3 2 6q37 50 100 50q62 0 92 -50q19 -33 19 -82v-72q12 -14 29 -44q4 -12 4 -31q0 -8 -1 -26v-28
q0 -35 10 -54q17 -21 32 -42t9 -50zM453 4h-75q-56 0 -59 2q-31 3 -31 24q0 24 36 70v38l-5 265q-13 45 -42 38q-49 -14 -85 3q-20 9 -56 -3q-45 -15 -31 -83v-127q-3 -8 -3 -21q0 -32 15 -69.5t30 -37.5q7 0 13 11q29 49 50 49q18 0 31.5 -24t13.5 -43q0 -33 -28 -57
t-61 -24q-22 0 -39 13q-16 8 -54 26q0 1 -33 24q-18 12 -19 31q-5 33 -11 92q-3 52 -13 145q9 24 13 68q-21 72 -21 111q0 57 33 88q5 5 21 9q18 3 29 0q16 -6 44.5 -44t57.5 -40q3 0 32 -7.5t49 -7.5q40 0 60 27l9 84q4 50 -51 131q-8 9 0 33q10 37 51 49q34 6 70 14
q21 4 39 -15.5t18 -44.5q0 -12 -4 -23v-63q0 -54 -15 -70.5t-15 -71.5v-63q0 -47 -2 -41q2 -3 35 -60q4 -6 4 -22q0 -21 -7 -30q-33 -35 -33 -78q0 -27 13 -62q17 -42 18 -57q0 -21 3 -61q2 -12 23 -38.5t21 -38.5q0 -6 -4.5 -12t-34.5 -6z" />
    <glyph glyph-name="uniFB00" unicode="ff" horiz-adv-x="610" 
d="M775 793q5 -12 -1 -28q-6 -21 -23 -24q-51 -11 -84 3q-25 22 -70 55q-6 5 -51 8q-42 3 -77 -71q-27 -55 -34 -109v-63q0 -39 1 -45q9 -29 47 -29h79q29 -12 29 -43q0 -33 -29 -47h-79q-54 0 -48 -70q9 -98 4 -138q-7 -77 -7 -60q0 -30 31.5 -55t26.5 -46l-22 -18
q-33 -27 -63 -27q-14 0 -29 6q-24 12 -73 36q-5 12 -5 23q0 13 15 34t15 30q-1 41 2 117q1 15 13 56q9 33 9 51q0 42 -43 63q-11 6 -30 16q-27 12 -53 12q-31 0 -58 -18q0 5 -17 -66q-1 -10 -15 -16q-12 0 -15.5 20t-12.5 20q-6 0 -14 -4q-9 -11 -9 -24q0 -23 17 -30
q33 0 36 -3q27 -26 18 -93q1 -17 1 -50q0 -3 -7 -30q-6 -19 -2 -28q9 -23 47 -54q31 -29 31 -44q0 -9 -6.5 -17t-47.5 -7q-27 -4 -78 -1q-22 7 -22 24q0 12 16.5 36.5t17.5 32.5q-16 4 -25 3q-17 -14 -30 -29q-2 -6 4 -18.5t6 -17.5q0 -13 -27 -18q-19 -3 -37 -4
q-21 9 -21 30q0 42 42 46q4 5 10 14q11 15 11 73l-2 128q2 4 11 37q7 24 4 32q-1 4 -24 45q-16 30 -16 43q0 27 38 72t38 60q0 -7 -3 86q0 21 17 63q3 10 38 33.5t68 45.5q41 23 75 23q26 0 78 -12q48 -12 71 -11q13 2 44 26.5t52 26.5q81 4 151 -27q11 -5 48 -6
q32 -2 42 -14q5 -6 6 -15zM348 577v98q0 37 -30 60.5t-68 23.5q-34 0 -51 -20q-45 -49 -45 -67q0 -3 1.5 -13t1.5 -19v-81q0 -45 18 -57q14 -10 57 -10h68q27 0 40 40q8 24 8 45z" />
    <glyph glyph-name="uniFB01" unicode="fi" horiz-adv-x="597" 
d="M538 21q-3 -23 -54 -23h-94q-14 0 -46 21t-40 36q-9 18 17 51q34 30 43 48q6 14 6 47v175q-4 23 -6 26q-6 15 -16 24q-44 36 -102 36q-86 0 -75 -86v-126q0 -28 27 -109q27 -75 24 -86q-6 -19 -29.5 -38t-42.5 -19h-129q-27 6 -27 33q0 39 40 77q6 4 15 53.5t9 58.5v156
q0 12 -11 56.5t-11 69.5q0 15 3 27q19 63 18 104q0 -2 22 60q6 31 27 91q24 27 53 69q4 12 30.5 34t36.5 22h155q82 0 55 3q35 -3 42 -29q14 -39 14 -61q0 -48 -51 -50h-51q-6 0 -71 41q-18 12 -43 12q-75 0 -80 -71q0 -1 -12.5 -28t-12.5 -39q0 -6 -3 -29.5t-3 -38.5
q0 -61 51 -72h157l20.5 6t29.5 6q31 3 54 -22q10 -12 7 -30q-4 -33 -4 -26v-105q0 -6 9.5 -48.5t9.5 -93.5v-84q0 -41 9 -48q17 -17 30 -56q3 -9 0 -25z" />
    <glyph glyph-name="uniFB02" unicode="fl" horiz-adv-x="612" 
d="M561 60q7 -9 7 -23q0 -40 -36 -40q-40 1 -145 1q-68 -1 -89 11q-6 3 -10.5 13.5t-1.5 14.5q3 8 11 21q54 47 60 56.5t6 47.5v199q0 26 -41 47q-61 -11 -165 -6v-243q-3 -8 -3 -15q0 -17 22.5 -52t22.5 -52q0 -18 -15 -31q-4 -3 -33 -8q-42 -6 -66 -3h-21q-16 -3 -24 -3
q-36 0 -39 32q-1 12 26.5 54t27.5 64q0 8 -1 14v175q0 36 -15 53q-27 31 -38 52q-7 17 26 53q24 27 28 96q2 21 24 60q11 18 21 46q2 54 56 107q46 48 99 63q66 21 109 21q72 0 101 -44q13 -22 3 -88v-158q0 -33 9 -52q18 -33 27 -65q6 -19 -22 -56.5t-11 -78.5
q12 -21 22 -42q14 -30 14 -48q0 -9 -3 -16q-36 -77 -36 -87q0 -18 13.5 -33t39 -26.5t40.5 -30.5zM345 489q46 30 3 174q-21 36 -30 66q-6 18 -18 28q-17 17 -42 17q-27 0 -48 -18t-23 -48q-12 -21 -28 -65q0 -24 -2 -72l-4 -52q30 -72 192 -30z" />
    <glyph glyph-name="uniFB03" unicode="ffi" horiz-adv-x="877" 
d="M834 75q1 -14 -23.5 -42.5t-44.5 -38.5q-12 -2 -30 3q-25 7 -27 7q-24 -6 -93 2q-25 7 -25 40q0 39 30 62q9 4 18 55v68q0 19 -11.5 45.5t-12.5 51.5q13 18 24 54q-2 9 -8 18q-31 20 -69 0h-79q-54 0 -48 -70q9 -98 4 -138q-6 -60 -7 -63q1 -29 31 -53q32 -24 27 -45
l-22 -18q-33 -27 -63 -27q-14 0 -29 6q-24 12 -73 36q-5 12 -5 23q0 13 15 34t15 30q-1 41 2 117q1 15 13 56q9 33 9 51q0 42 -43 63q-11 6 -30 16q-27 12 -53 12q-31 0 -58 -18q0 5 -17 -66q-1 -10 -15 -16q-12 0 -15.5 20t-12.5 20q-6 0 -14 -4q-9 -11 -9 -24
q0 -23 17 -30q33 0 36 -3q27 -26 18 -93q1 -17 1 -50q0 -3 -7 -30q-6 -19 -2 -28q9 -23 47 -54q31 -29 31 -44q0 -9 -6.5 -17t-47.5 -7q-27 -4 -78 -1q-22 7 -22 24q0 12 16.5 36.5t17.5 32.5q-16 4 -25 3q-17 -14 -30 -29q-2 -6 4 -18.5t6 -17.5q0 -13 -27 -18
q-19 -3 -37 -4q-21 9 -21 30q0 42 42 46q4 5 10 14q11 15 11 73l-2 128q2 4 11 37q7 24 4 32q-1 4 -24 45q-16 30 -16 43q0 27 37 72q38 44 39 59q0 -2 -3 87q0 21 17 63q3 10 38 33.5t68 45.5q41 23 75 23q26 0 78 -12q48 -12 71 -11q13 2 44 26.5t52 26.5q81 4 151 -27
q11 -5 48 -6q32 -2 42 -14q5 -6 6 -15q5 -12 -1 -28q-6 -21 -23 -24q-51 -11 -84 3q-25 22 -70 55q-6 5 -51 8q-42 3 -77 -71q-27 -55 -34 -109v-63q0 -39 1 -45q9 -29 47 -29h79q2 -1 5 -3q6 6 25 12q35 11 41 14q58 27 69 27q13 0 23.5 -7.5t12 -20.5t3.5 -23v-57
q0 -9 12 -28.5t15 -28.5q10 -44 -2 -66q-28 -26 -19 -53q7 -13 21 -40q9 -38 6 -56q-2 -7 -2 -15q0 -28 23 -46zM348 577v98q0 37 -30 60.5t-68 23.5q-34 0 -51 -20q-45 -49 -45 -67q0 -3 1.5 -13t1.5 -19v-81q0 -45 18 -57q14 -10 57 -10h68q27 0 40 40q8 24 8 45z" />
    <glyph glyph-name="uniFB04" unicode="ffl" horiz-adv-x="841" 
d="M810 78q4 -5 4 -18q-1 -12 -7 -18q-26 -47 -38 -51q-6 -2 -45 -2l-85 18q-33 -4 -39 -1q-26 12 -26 34q0 32 42 78l32 32q4 69 -11 117q2 9 -5 39.5t-7 47.5q0 12 -12 40l-36 17l-94 -11q-54 0 -48 -70q9 -98 4 -138q-6 -60 -7 -63q1 -29 31 -53q32 -24 27 -45l-22 -18
q-33 -27 -63 -27q-14 0 -29 6q-24 12 -73 36q-5 12 -5 23q0 13 15 34t15 30q-1 41 2 117q1 15 13 56q9 33 9 51q0 42 -43 63q-11 6 -30 16q-27 12 -53 12q-31 0 -58 -18q0 3 -14 -51q8 -6 2 -145q1 -17 1 -50q0 -3 -7 -30q-6 -19 -2 -28q9 -23 47 -54q31 -29 31 -44
q0 -9 -6.5 -17t-47.5 -7q-27 -4 -78 -1q-7 3 -12 6q-22 0 -48 7q-19 -3 -37 -4q-21 9 -21 30q0 42 42 46q4 5 10 14q11 15 11 73l-2 128q2 4 11 37q7 24 4 32q-1 4 -24 45q-16 30 -16 43q0 27 37 72q38 44 39 59q0 -2 -3 87q0 21 17 63q3 10 38 33.5t68 45.5q41 23 75 23
q26 0 78 -12q48 -12 71 -11q13 2 44 26.5t52 26.5q39 1 75 -5q6 5 16 9q20 6 26 11q45 34 67 34q18 0 36 -15q8 -7 8 -22q1 -26 1 -27v-24q8 -3 0 -74v-67q0 -5 2.5 -15.5t0.5 -17.5q-1 -9 -7 -21q0 -47 -27 -66q48 -44 1 -66l33 -56q-33 -78 -18 -98t15 -61v-61
q0 -44 8.5 -66.5t44.5 -68.5zM648 516q-6 187 -8 201q-9 43 -21 55q-9 20 -27.5 21.5t-17.5 10.5q-12 1 -28 3q-42 3 -77 -71q-27 -55 -34 -109v-63q0 -39 1 -45q9 -29 47 -29l133 -4zM348 577v98q0 37 -30 60.5t-68 23.5q-34 0 -51 -20q-45 -49 -45 -67q0 -3 1.5 -13
t1.5 -19v-81q0 -45 18 -57q14 -10 57 -10h68q27 0 40 40q8 24 8 45zM88 477q17 25 18 33q-16 4 -25 3q-17 -14 -30 -29q-2 -6 4 -19q2 -5 21 -9q3 9 12 21z" />
    <glyph glyph-name=".notdef" horiz-adv-x="457" 
d="M354 729q0 -2 1 -5q26 -6 27 -15q5 -15 17 -43l-2 -3q15 -17 15 -27l-22 -23q4 -7 13 -16q-7 -18 -7 -29q1 -39 1 -36q-7 -232 -1 -280q-3 -72 -6 -143q-3 -114 7.5 -135t10.5 -73q0 -78 -15 -75q3 -2 -38 -3q-19 -14 -28 -14h-12q-6 -7 -14 -7l-25 -15q-20 -2 -38 15
h-72q-12 -8 -27 -8l-13 8h-38q-9 0 -27 13q-36 2 -39 3q-15 -4 -15 75q0 53 10.5 74t7.5 135q-1 70 -4 141l-3 282q0 13 1 28q2 9 0 14q-1 7 -7 22q9 9 13 17q-13 12 -21 22q-1 9 14 27l-2 3q9 14 20 44q7 15 67 19q9 0 21 2q2 3 5 4q-3 0 85 3q71 2 110 -1q7 -2 13 -2
q11 2 17 2zM267 556q-17 -1 -32 9l-7 -1l-21 7h-32q-13 -7 -27 -6l-12 6h-4v-1q0 -3 -9 -14.5t-11 -45.5l-1 -95q18 -27 18 -40q0 -8 -9 -22t-9 -20v-140q0 -168 -5 -175q-12 -21 -6 -66q9 6 23 6q1 0 19 -5h35q33 0 73 -1h27q6 10 15 27q23 39 17 46q-5 8 -5 177v140
q0 6 -8 20t-8 22q0 12 16 39l-1 96q0 45 -3 54l-2 1q-3 -1 -6 -3z" />
    <glyph glyph-name="glyph1" horiz-adv-x="0" 
 />
    <glyph glyph-name="glyph1" horiz-adv-x="0" 
 />
    <glyph glyph-name="glyph2" horiz-adv-x="300" 
 />
    <glyph glyph-name="space" unicode=" " horiz-adv-x="300" 
 />
    <glyph glyph-name="exclam" unicode="!" horiz-adv-x="390" 
d="M327 828q0 -32 -8.5 -97t-8.5 -100q0 -45 -4.5 -131t-4.5 -130q0 -13 -16 -43q1 19 -6 22q-8 3 -21 -4q-6 -9 -6 -17q0 -15 30 -21q-6 -18 -20 -18q-13 0 -25 2q-68 24 -68 282q0 10 4 29t4 28q0 33 -11 85q-7 42 -16 86q-20 -11 -32 -11q-27 0 -1 32q-6 36 -6 28
q0 15 36 -13q63 45 108 45q6 0 58 -12q14 -30 14 -42zM349 118q0 -36 -18 -54q-16 -12 -31 -24q-8 -12 -17.5 -24.5t-23.5 -12.5q-16 0 -38 17t-22 32q-1 3 -22 35q-14 19 -14 36l9 40q8 -1 14 2.5t12 3.5q16 9 43 32q11 4 41 4q22 0 44.5 -31.5t22.5 -55.5z" />
    <glyph glyph-name="quotedbl" unicode="&#x22;" horiz-adv-x="586" 
d="M378 606q-8 -2 -12 -2q-20 0 -24 29v45q0 31 -15 91q-9 17 -9 41q0 55 54 64l51 -42q1 -18 1 -34q0 -71 -46 -192zM241 585l-25 -8q-11 14 -22 52t-20 53q-26 33 -26 107q0 73 42 73q23 0 54 -22z" />
    <glyph glyph-name="numbersign" unicode="#" horiz-adv-x="742" 
d="M315 492q19 -21 55 -21q30 0 45 19q5 41 3 50q-1 22 -19 45q-15 7 -29 7q-19 0 -49 -27zM661 372l-108 3q-24 -18 -24 -48q15 -24 15 -57q0 -72 -48 -72q-31 0 -75 43l-1 110q-39 25 -59 25q-18 0 -33 -15q-19 -4 -19 -22q0 -5 6 -26q-5 -37 -11 -76q-7 -47 -30 -47
q-22 0 -64 44v79q-3 59 -39 59h-126q1 9 -17.5 29t-14.5 28q41 88 65 88q16 0 31 -40q11 1 29 0q21 -3 28 -3q36 0 44 37v74h-123q-17 -9 -29 -9q-36 0 -33 58q-3 12 30 33q29 18 47 23q30 -5 36 -5q36 0 48 27q28 12 28 59q0 10 -2 37t-2 42q9 -3 29 16t28 16
q88 -42 88 -65q0 -16 -40 -33q0 5 -1.5 -9.5t-1.5 -27.5q0 -47 22 -57l65 3q24 12 25 40q2 2 -1 74q6 27 13 37q12 20 36 26q27 4 42 -24q12 -23 12 -53l2 -85l19 -18q26 15 63 15q83 0 83 -53q0 -30 -41 -67q-64 6 -72 6q-34 0 -31 -23q-29 -13 -29 -31q0 -6 5.5 -21
t3.5 -24q20 -27 60 -17q38 -4 74 -10q43 -6 43 -27q0 -23 -45 -66z" />
    <glyph glyph-name="dollar" unicode="$" horiz-adv-x="511" 
d="M304 435q26 -2 49 -24.5t37 -20.5q79 -47 79 -117q0 -35 -19 -95q-2 -3 1 -14t3 -17q0 -15 -13.5 -21t-64.5 -41q-37 -25 -63 -25q0 -9 -11 -27t-13 -26q-4 0 -12.5 -4.5t-12.5 -4.5q-6 0 -9 12l-2 9q-4 6 -9 24l-27 6q0 -7 -9 -21.5t-9 -20.5q-4 0 -13 -4.5t-12 -4.5
q-6 0 -9 12l-2 9q-12 6 -24 23q-16 -2 -48 15q-40 21 -46 22q-24 9 -38.5 43t-14.5 71q0 59 32 69q3 2 22 -6q36 -15 39 -30q3 -10 0 -30q-4 -22 -4 -28q0 -30 55 -27q17 9 17 51v61q1 11 3 20q4 18 1 43q-4 32 -4 42q-33 30 -98 93q-4 12 -15 33q-1 3 -30 32q-18 18 -18 40
q0 14 8.5 40t8.5 38q3 45 43.5 82t91.5 32q3 6 9 30q6 54 34 54q20 0 15 -37q0 -9 6 -9t9 -5.5t6 -5.5q12 0 24 30t21 30q14 0 38 -57q9 0 31 -1q50 -2 81.5 -38t31.5 -82q0 -51 -41 -83q-7 -6 -15 -6q-24 0 -24 33q0 17 9 29q5 4 -12.5 19t-33.5 15q-20 0 -29 -24
q-3 -15 0 -39q-1 9 -6 -46q5 -33 6 -120zM145 552q21 3 21 34q0 21 -9 57q-21 9 -36 9q-25 0 -25 -25q0 -38 49 -75zM255 498l1 114q0 15 -4.5 28.5t-5.5 25.5q-14 21 -21 21q-3 0 -14 -21q-6 -27 -4 -35l6 -30q-3 -28 -3 -88q-2 -11 6.5 -26t18.5 -15q12 0 20 26zM247 147
q-6 25 -6 49q0 17 5.5 51.5t3.5 56.5q-3 2 -12.5 9.5t-15.5 7.5q-9 0 -21 -14q1 -42 -5 -96q11 -37 12 -66q-10 -4 -10 -12q0 -13 27 -13t22 27zM304 262q-18 -7 -18 -21q0 -15 2 -30q9 -10 18 -43q49 1 49 42q0 21 -15 37.5t-36 14.5z" />
    <glyph glyph-name="percent" unicode="%" horiz-adv-x="831" 
d="M238 133q-22 -79 -123 -136q-3 1 -25 10q-17 6 -17 17q0 6 3 12q9 21 69 93.5t79 81t28 24t18 32.5q36 16 57 37l117 122q15 36 45 76q15 3 60 36q39 29 60 29q27 0 27 -20q0 -13 -26 -33q-13 -9 -27 -19q-7 -20 -31 -51q-36 -23 -41 -32q-10 -33 -13 -37q-12 -8 -35 -26
q-12 -10 -81.5 -86.5t-78.5 -89.5t-30 -23q-27 -12 -35 -17zM787 105q6 -24 -3 -35q-24 -28 -72 -76q-9 -3 -27 -8q-10 -4 -31 -10t-45 -6q-57 0 -119 30q-6 1 -42 55q-6 8 -13 23v25v54q0 24 13 60q3 18 21 51q68 68 86 68h76q18 0 69 -33q47 -30 53 -39q6 -14 20 -47
t14 -60v-52zM693 111q9 33 0 63q-15 42 -41 42q-4 0 -9 -3q-6 -5 -15.5 2t-18.5 13q-6 1 -17 -5q-15 -7 -16 -9q-9 -1 -21 -15q-6 -15 -14 -43q-6 -45 47 -92q10 -4 22 -4q29 0 59 24q21 18 24 27zM361 454q8 -24 -3 -33q-22 -30 -70 -78q-9 -1 -27 -7q-11 -5 -32 -11
t-45 -6q-57 0 -118 30q-6 3 -44 57q-4 8 -13 21l1 27v54q0 24 12 59q5 19 23 52q67 66 85 66h77q18 0 69 -31q46 -30 52 -39q6 -15 19.5 -48t13.5 -59v-54zM267 460q10 35 0 63q-14 42 -39 42q-5 0 -9 -3q-6 -4 -16.5 2.5t-18.5 12.5q-6 3 -16 -3q-15 -9 -18 -9
q-8 -3 -17.5 -17t-15.5 -41q-8 -47 45 -93q12 -3 22 -3q30 0 59 24q22 18 24 25z" />
    <glyph glyph-name="ampersand" unicode="&#x26;" horiz-adv-x="972" 
d="M897 517q-36 -10 -44 -15q-57 -28 -124 -76q-20 -14 -39 -42l-30 -42q-23 -23 -57 -63q-8 -11 -8 -21q0 -51 93 -107q30 -18 79 -14t61 -1q31 -12 31 -63q0 -48 -21 -57q-15 -6 -48 -1q-10 1 -33 -12q-27 -14 -37 -15q-39 7 -107 10q-10 2 -32 29t-31 48q-6 12 -27 12
q-31 -3 -36 -2q-19 3 -22 2q-11 -6 -14.5 -19t-5.5 -23q-10 -26 -21 -38q-48 -49 -108 -49q-16 3 -90 9q-45 3 -76 31q-14 5 -36 17q-66 60 -80 73q-45 51 -37 90v69q0 44 10 60q29 39 56 80q15 6 43 24q65 40 74 73q1 6 -27 50q-17 24 -21 70q-3 33 4 83q14 75 5 103
q-3 8 7.5 17.5t16.5 8.5q13 0 33 -6q15 -3 58 -3h54q35 0 56 -9q37 -17 79 -54q51 -47 51 -83q0 -9 -3 -15q2 -16 0 -45q-6 -18 -50 -61.5t-44 -58.5q0 -30 70 -84q9 -15 36 -45q15 -13 42 -13q17 0 27 7q17 24 59 75q15 15 15 33q0 17 -16.5 50t-12.5 43q5 12 24 17
q32 7 42 13q44 24 45 24q-4 -1 33 -1h83q6 3 13 3q23 0 49 -18t26 -38q0 -7 -4.5 -14t-32.5 -16zM333 550q54 12 54 75q0 35 -21 62.5t-56 26.5q-18 -2 -31.5 -29t-13.5 -60q0 -81 68 -75zM439 205q14 51 -22 66q-17 -4 -51 2q-6 6 -14.5 32t-11.5 29q-76 84 -118 80
q-23 -3 -53 -36q-22 -26 -28 -44q-11 -25 -11 -52q0 -98 131 -174q3 -2 9 -2q9 0 35 11.5t40 9.5q6 -3 15 -3q24 0 48.5 28t30.5 53z" />
    <glyph glyph-name="quotesingle" unicode="'" horiz-adv-x="271" 
d="M190 598q-43 -49 -60 -66q-31 -33 -46 -39q-41 -4 -51 3q-21 14 -21 38q0 31 36 72q15 16 6 24q-24 18 -24 43q0 27 27.5 55t56.5 28q34 0 62.5 -37t28.5 -77q0 -27 -15 -44z" />
    <glyph glyph-name="parenleft" unicode="(" horiz-adv-x="409" 
d="M312 669q-2 -9 -24.5 -28.5t-27 -28t-34.5 -81.5q-4 -14 -32 -39.5t-31 -40.5q0 -30 -10 -90q-12 -42 -12 -57q0 -16 12 -52q4 -11 4 -36v-126q-1 -9 -1 -18q0 -11 27 -81q1 -15 10 -44q26 -34 51 -70q42 -59 50 -92q6 -30 -14 -46q-33 -2 -75 30.5t-49 69.5
q-20 18 -50 57q-1 30 -13 90q-2 8 -41.5 84.5t-39.5 79.5v91q-12 32 1 125q-1 30 2 82q1 9 10 20q15 16 18 19q20 27 53 86q19 48 114 213q6 10 20 14.5t26 4.5q60 0 60 -97q0 -23 -4 -39z" />
    <glyph glyph-name="parenright" unicode=")" horiz-adv-x="354" 
d="M300 246q12 -29 12 -51q0 -12 -14 -66q-15 -39 -39 -107q-10 -37 -12.5 -79t-6 -53.5t-30.5 -38.5t-32 -40q-21 -68 -91 -68q-29 0 -50 12q-37 21 -37 47q0 30 48 69q31 22 63 46q12 12 12 30q1 11 1 21q11 21 21 41q14 28 11 49q-3 9 -13 37.5t-10 43.5q0 38 45 62
q8 4 14 25t1 33q-13 33 -28 56q-11 15 -11 24q0 6 2 15q6 19 10 40q9 33 6 48q-3 11 -23 30.5t-25 34.5q-19 64 -22 100q-3 32 -7 41.5t-47 59.5q-41 43 -35 58q5 17 27 18q18 2 35 2q12 3 22 3q36 0 68 -39q22 -27 43 -56q2 -10 9.5 -32t14.5 -32q39 -59 30 -125
q0 -4 12 -27q14 -27 17 -36q10 -34 4 -94v-53q0 -16 5 -49z" />
    <glyph glyph-name="asterisk" unicode="*" horiz-adv-x="706" 
d="M634 408q-16 -146 -100 -146q-21 0 -44 12l-78 86q-3 -11 -8 -20t-5 -13q0 -11 31 -45q-13 -2 -27.5 -45.5t-26.5 -44t-41 -12t-44 -11.5q-45 0 -69 93q-6 23 19.5 50t25.5 28q0 6 -28 10.5t-34 13.5l-78 -102q-9 -10 -19 -10q-29 0 -61 61.5t-32 109.5q0 19 7 30
q26 21 59 21q15 0 36 -5.5t22 -5.5q5 0 6 3q-4 5 26 23q-8 13 -23 33q-12 7 -21 7q-6 0 -33.5 -10.5t-65.5 -13.5q-18 51 -18 90q0 48 25 91t115 47q21 2 28 -28q5 -23 8 -45q3 -12 9 -12q3 0 16.5 7.5t23.5 7.5q0 15 -1 69q-2 31 -2 49q15 -1 29 -1q22 1 28 43q11 24 50 24
q42 0 82.5 -25.5t43.5 -59.5q3 -27 -19.5 -28.5t-19.5 -22.5q1 1 4 1q5 0 6.5 -17t2.5 -17q2 1 5 12q12 37 63 31q12 0 112 -51q8 -3 8 -31q0 -15 -6 -77q-5 -46 0 -57q-23 3 -35 3q-19 0 -21 -10q-3 -17 -15 -26q-28 14 -64 21q18 -12 18 -22q0 -3 -6 -11q1 -6 54 -18
q60 -13 82 -34z" />
    <glyph glyph-name="plus" unicode="+" horiz-adv-x="600" 
d="M498 220l-138 -12l-26 -46q3 -17 3 -36q0 -86 -54 -86q-22 0 -54 17v163h-198q3 12 -1.5 25.5l-8.5 25.5q-2 12 29.5 33t46.5 21h132v198q12 -1 25.5 3.5t25.5 7.5t33 -29.5t21 -45.5v-104l59 -30q6 3 12 5q25 4 49 4q77 0 77 -42q0 -28 -33 -72z" />
    <glyph glyph-name="comma" unicode="," horiz-adv-x="280" 
d="M250 -26q-6 -34 -24 -69q-6 -9 -24 -17t-22 -13q-54 -58 -105 -58q-29 0 -56 18q-12 6 -12 21q0 21 17.5 39.5t39.5 15.5q5 -1 24.5 17t20.5 28q3 45 -7.5 61.5t-34.5 30.5q-12 1 -36 4q-4 2 -15 12q-16 69 0 95q17 27 51 27q23 0 59 -15q15 3 48 -5q21 -10 54 -63
q13 -22 22 -66v-63z" />
    <glyph glyph-name="hyphen" unicode="-" horiz-adv-x="492" 
d="M345 198q-11 0 -48 13q-18 6 -65 5q-34 -3 -69 -14q-27 -7 -49 -7q-12 0 -29 1q-57 6 -57 54q0 45 47 77q6 4 12 4q9 0 26 -7.5t25 -8.5q6 0 29 14t35 14q95 3 138 -7q11 -9 33 -29q36 -28 36 -55q0 -54 -64 -54z" />
    <glyph glyph-name="period" unicode="." horiz-adv-x="298" 
d="M207 88q0 -10 -12 -24q-54 -57 -77 -61q-60 -5 -73 0q-38 13 -38 57q0 87 3 72q-1 4 26 51q18 34 39 37q28 5 63.5 -5.5t45.5 -31.5q24 -50 23 -95z" />
    <glyph glyph-name="slash" unicode="/" horiz-adv-x="687" 
d="M783 1020q-6 -20 -30 -20q-35 0 -21 36q9 18 22 18q12 0 22 -12t7 -22zM403 969q-6 -14 -18 -14q-9 0 -4 15q3 12 13 12q14 0 9 -13zM219 127q-8 -141 -129 -273q-24 5 -49 10t-20 41q15 102 181 410q105 189 210 379q8 14 20 78q10 59 21 65q34 22 76 88q30 51 96 65
q21 -8 21 -27q0 -21 -29 -61t-29 -41q-5 -26 -9 -50q-5 -30 -20 -46q-45 -53 -45 -83q0 -22 -7 -51q-5 -13 -18 -30q-20 -22 -23 -27q-18 -28 -88.5 -175t-79.5 -176.5t-36 -51.5q-34 -32 -43 -44z" />
    <glyph glyph-name="zero" unicode="0" horiz-adv-x="696" 
d="M613 718q-49 -3 -49 48q0 45 37 51q18 3 34.5 -17t16.5 -44q0 -33 -39 -38zM519 160q-8 -12 -20 -33q-6 -15 -21 -27t-28 -24q-53 -49 -75.5 -60.5t-61.5 -11.5h-135q-7 -3 -16 -3q-42 0 -87 42q-8 17 -24 48q-21 35 -36 117q-11 60 -11 80q0 34 18 75q83 88 93 100
q60 54 107 54q12 0 22 -3q-4 2 15 8q14 6 27 12q20 7 35 7h81q25 -3 69.5 -43.5t44.5 -76.5q0 -16 -11.5 -28t-15.5 -27q-5 -14 7 -47q18 -45 20 -49q7 -35 3 -110zM420 213q4 7 0 37v54q-3 24 -15 57q-12 20 -35 27q-27 9 -30 11q-12 15 -36 37q-9 8 -21 6q-18 2 -52 -4
q-17 -20 -40 -43t-22 -34q3 -13 3 -28q0 -53 -31 -104q-26 -40 -26 -64q0 -15 9 -26q15 -15 44.5 -28.5t42.5 -13.5q60 -1 116 26q66 31 93 90zM292 366q-3 -21 -36 -21q-30 0 -30 16q0 8 12 18q5 5 26 0q22 -3 28 -13z" />
    <glyph glyph-name="one" unicode="1" horiz-adv-x="546" 
d="M388 487q-13 -9 -47 -9.5t-52 -14.5q-24 -19 -28 -55q-2 -30 -2 -60q-9 -15 -18 -44q0 -6 -3 -30t-3 -39q0 -70 59 -79q9 -2 27 -30q37 -60 37 -84q0 -53 -84 -53q-55 0 -91 20q-14 1 -48 6h-62q-34 9 -34 45q0 51 54 126q1 3 1 40v137q5 6 5 13q0 24 -65 74
q-24 19 -24 57q0 31 20 49q12 11 85 27q12 3 60 26q41 18 71 18q15 0 30 -4t28 -28q17 -31 26 -39q16 -3 46 -15q20 -12 20 -36q0 -12 -8 -18z" />
    <glyph glyph-name="two" unicode="2" horiz-adv-x="639" 
d="M492 156q1 -8 1 -17q0 -42 -70 -117q-3 -3 -32 -6q-19 -1 -57 -7q-10 -3 -35.5 -13t-27.5 -10h-235q-41 6 -41 33t35 65q28 33 60 52q12 12 31 35q20 15 51 49q14 26 14 69q0 63 -29 80q-9 0 -28.5 1.5t-61.5 10.5q-21 9 -21 34q0 3 2 6q21 35 40 69q42 59 78 59h84
q17 0 47 -27t42 -47q22 -34 12 -103q-3 -26 -30 -57q-6 -17 -21 -47q-17 -12 -45 -37q-12 -15 0 -42t33 -27q15 0 44 13.5t35 13.5h66l32 -5q19 -7 27 -28zM724 -270q-48 -6 -48 46q0 39 33 47q44 9 44 -41q0 -42 -29 -52z" />
    <glyph glyph-name="three" unicode="3" horiz-adv-x="516" 
d="M345 198q7 -14 7 -30q0 -23 -16 -59q-21 -43 -24 -57q-5 -37 -23 -99q-21 -7 -64 -36q-18 -15 -25 -39.5t-22 -35.5q-22 -4 -43 -9q-35 -7 -60 -45q-6 -4 -18 -4q-33 0 -86 31q-24 15 -24 62q0 48 33 57q18 10 56 30q24 9 51.5 17t38.5 31q16 34 16 81q0 54 -25 70
q-17 0 -50 8q-21 10 -43.5 38t-22.5 49q0 6 2 10q18 36 60 66q81 57 81 84q0 11 -10 21.5t-22 10.5t-26 -14.5t-16 -14.5q-13 -1 -18.5 7t-5.5 22q2 15 0 18q-7 12 -7 25q0 39 38 76.5t71 30.5h71q22 0 49 -25t35 -53q-2 4 -2 -32v-69q2 -31 -51 -96q-3 -3 -3 -6
q0 -9 18 -25l26 -26q7 -13 22 -37q12 -11 32 -33zM-45 373q24 2 24 -31q0 -35 -27 -36q-33 -8 -33 18q0 16 12 32.5t24 16.5zM-138 160q-14 5 -14 21q0 15 9 24q14 -6 14 -25q0 -14 -9 -20z" />
    <glyph glyph-name="four" unicode="4" horiz-adv-x="724" 
d="M571 99q-15 -18 -46 -21q-24 -2 -50 -3q-31 -6 -39 -48q-3 -12 -3 -65v-124q0 -33 -24.5 -53.5t-56.5 -20.5q-73 0 -64 74v109q0 9 3.5 22t3.5 17q0 17 -25 32q-6 3 -15 3q-15 0 -41.5 -10.5t-36.5 -10.5q-9 0 -27 9q-24 10 -39 13q-6 2 -60 5q-39 0 -50 16q-6 11 -6 26
q0 27 19.5 59t45.5 46q43 25 52 61q20 17 53 59q3 4 6 14.5t9 37.5q3 9 54 45q13 9 15.5 27t3.5 35q8 9 18 28q9 27 29 41q16 9 34 18q9 13 35 33q12 4 22 -5q14 -13 9 -42v-276l-4 -21q-3 -16 0 -24q10 -28 36 -28q12 0 43.5 11t46.5 8q18 -3 37.5 -27.5t19.5 -48.5
q0 -12 -8 -21zM246 249q-38 -24 -38 -63q0 -21 24 -24q30 9 30 51q0 31 -16 36z" />
    <glyph glyph-name="five" unicode="5" horiz-adv-x="579" 
d="M415 484q-1 -9 -13 -19.5t-17 -22.5q-7 -15 3 -84q3 -21 -12.5 -34.5t-35.5 -13.5q-16 0 -27 9q-9 26 -18 51q-18 42 -39 36q-3 0 -18.5 5.5t-21.5 5.5q-86 10 -84 3q1 -15 43 -48q60 -50 65 -53q18 -18 27 -64l10 -72q5 -24 9 -48q8 -41 8 -69q0 -32 -9 -51
q-9 -12 -18 -33q-2 -32 -14 -87q-13 -35 -55 -69q-17 -14 -60.5 -23t-77.5 -6q-17 -4 -53 -3q-30 6 -67 33q-9 12 -9 29q0 54 46 60l39 -3q32 -2 49 8t34.5 36t15.5 44q0 2 -6.5 20.5t-2.5 24.5q23 30 23 62q0 25 -38 105q-15 28 -39 82q-25 89 -25 125q0 13 2 26.5t23 49
t41 53.5q18 3 45 15q49 46 99 46q25 0 51 -10q13 -6 30.5 -28.5t34.5 -31t38 -15.5q27 -15 24 -41zM403 21q54 -3 41 -32q-12 -25 -44 -25q-27 0 -28 33q9 9 31 24z" />
    <glyph glyph-name="six" unicode="6" horiz-adv-x="660" 
d="M546 694q6 -25 -21 -43q-21 -6 -32.5 -19.5t-30.5 -21.5q-17 -12 -45 -33q-18 -4 -51 -18q-27 -25 -77 -64q-24 -9 -46 -20q-36 -15 -44 -42q-19 -27 -46 -70q-3 -6 -3 -15q0 -18 12 -33t27 -9q10 3 16 28.5t20 31.5q46 27 103 27q50 0 78 -18q21 -14 30 -23
q20 -16 20 -31q0 -8 3 -35t3 -43q0 -78 -63 -119q-5 -10 -17 -25q-27 -23 -82 -72q-44 -42 -56 -42q-30 1 -84 9q-24 4 -57 35.5t-43 66.5q-6 6 -18 19q-3 12 -12 41q-2 4 -17 25t-15 29q0 6 5 9q30 21 30 46q0 15 -13.5 43t-13.5 40q0 15 12 27q25 24 34 51q6 19 12 40
q24 57 59 98q60 67 94 67q3 0 12 -1.5t14 -1.5q13 0 25 10.5t38 30.5q16 3 45 10q37 21 75 42q28 15 49 15q18 0 45 -7q20 -6 26 -35zM334 211q2 24 -21.5 57t-47.5 33q-9 0 -18 -3.5t-24 -11.5q-7 -6 -14 -27t-22 -28q-25 -8 -57 -30q-10 -21 2 -50q9 -18 36.5 -35
t51.5 -22q38 -6 74 30t40 87z" />
    <glyph glyph-name="seven" unicode="7" horiz-adv-x="706" 
d="M531 550q16 -24 16 -51q0 -36 -30 -86l-60 -100q-3 -25 -16 -73q-17 -21 -41.5 -61.5t-54.5 -99.5q-8 -22 -5 -37q3 -17 2 -26q-3 -12 -22.5 -23t-26.5 -19.5t-4 -32.5t-1 -33q-47 -96 -105 -141q-6 -3 -17 -3q-21 0 -41 11.5t-22 29.5q-9 93 12 141q6 10 27 31t23.5 34
t6.5 40l14 33q10 27 10 39q0 52 -45 76q5 29 44 17q37 -9 52 0q23 15 50 54q16 24 34 49q35 39 35 65q0 22 -23 43q-3 3 -7 3q-8 0 -29.5 -9.5t-32.5 -12.5q-21 -5 -43 -11q-29 -7 -54 -4q-89 12 -98 7q-24 -9 -33.5 -45t-21.5 -42q-12 -3 -17 6q-9 23 -9 54q0 33 11 86
q15 72 15 73q27 21 52 41q33 24 59 24q24 0 65 -19.5t59 -19.5q11 0 18 3h210q18 0 44 -11zM-39 289q30 3 30 -15q0 -13 -15 -23.5t-27 -1.5q-32 -3 -32 7q0 9 16 20.5t28 12.5z" />
    <glyph glyph-name="eight" unicode="8" horiz-adv-x="646" 
d="M466 552q-3 -11 -46 -35q-14 -10 -41 -24q-19 -7 -39 -13q-25 -11 -30 -29q-3 -15 18 -27q15 -9 32 -16q18 -12 39.5 -27t38.5 -41q1 -13 9 -40q22 -44 22 -84q0 -63 -57 -132q-36 -45 -48 -56q-33 -33 -63 -39q-81 -13 -160 23q-18 0 -48 6q-72 55 -63 121q0 3 -10 28
t-13 34t-3 18q0 36 36 72q23 18 45 37q30 27 30 48q0 11 -6 20q-15 21 -58 142q-26 72 -26 101q0 27 15 63q5 9 51 51q26 25 51 52q36 35 56 29h111q40 -2 96 -27q3 -3 21.5 -3t23.5 -6q37 -42 37 -117q0 -54 -21 -129zM301 580q59 14 59 66q0 33 -25.5 58.5t-64.5 22.5
q-60 -4 -60 -54q0 -31 26 -59.5t65 -33.5zM249 148q55 27 55 93q0 38 -21 60.5t-57 16.5q-60 -12 -60 -78q0 -35 21 -60q24 -30 62 -32z" />
    <glyph glyph-name="nine" unicode="9" horiz-adv-x="652" 
d="M477 172q-24 -72 -135 -175l-44 -44q-30 -12 -78 -37q-6 -5 -46 -48q-29 -30 -47 -32q-24 -1 -49 -24q-29 -27 -41 -31h-73q-51 0 -51 73q0 71 40 74h80q15 0 34 15q26 27 53 54q42 42 67 52q14 12 38 27q57 23 57 60q0 9 -6 18q-14 21 -35 21q-19 0 -53.5 -18t-54.5 -18
q-49 0 -109 84q0 14 -5 41q-13 15 -34 48q-3 9 15 31.5t21 35.5q6 29 10 56q5 16 18 34q23 14 69 53q8 9 10 27.5t13 30.5q18 18 48 41q40 28 57 25q10 -1 30.5 -20.5t26.5 -21.5q67 -31 87 -43q43 -30 55 -71q6 -6 15 -19q38 -69 38 -164q0 -69 -21 -135zM0 -299
q3 -10 -11.5 -19t-24.5 -8q-8 -4 -15 -4q-26 0 -26 28q0 30 32 23q18 -3 45 -20zM345 367q4 14 -28 58t-62 46q-14 1 -41.5 -17.5t-30.5 -30.5q-18 -56 -18 -75q0 -36 28 -56q18 -12 51 -21q20 0 27.5 31t29.5 38q12 5 26.5 10t17.5 17z" />
    <glyph glyph-name="colon" unicode=":" horiz-adv-x="442" 
d="M369 436q-21 -42 -56 -75q-39 -37 -73 -40q-66 -3 -90 15q-42 33 -42 79q0 38 31 102q17 32 87 51q8 2 15 2q42 0 88 -33t46 -74q0 -13 -6 -27zM300 75q0 -11 -12 -24q-54 -57 -77 -62q-60 -4 -73 0q-38 14 -38 59q0 85 3 70q-1 5 26 51q19 35 39 38q28 4 63.5 -6.5
t45.5 -31.5q24 -49 23 -94z" />
    <glyph glyph-name="semicolon" unicode=";" horiz-adv-x="477" 
d="M313 268q-30 -3 -45 2q-15 12 -48 28q-69 21 -69 81q0 36 27 66q11 18 20 36q16 32 36 36q10 5 21 5q51 0 97.5 -52t46.5 -103q0 -13 -4.5 -24.5t-37.5 -43.5t-44 -31zM372 -15q-6 -36 -24 -71q-5 -9 -23.5 -16.5t-23.5 -11.5q-54 -59 -105 -59q-28 0 -55 17
q-12 7 -12 22q0 21 17 40t40 14q4 0 23.5 17.5t21.5 29.5q3 45 -7.5 61.5t-34.5 28.5q-12 1 -36 6q-5 1 -15 12q-17 67 0 94q18 26 51 26q22 0 58 -14q17 2 48 -4q21 -11 54 -63q14 -23 23 -68v-61z" />
    <glyph glyph-name="equal" unicode="=" horiz-adv-x="600" 
d="M490 325h-415q1 9 -30.5 26.5t-32.5 23.5q-2 12 29.5 33.5t46.5 21.5h296q25 15 63 15q82 0 82 -51q0 -30 -39 -69zM498 112h-467q3 9 -15.5 29.5t-15.5 27.5q42 89 66 89q15 0 31 -41h296q145 0 145 -42q0 -24 -40 -63z" />
    <glyph glyph-name="question" unicode="?" horiz-adv-x="516" 
d="M508 613q0 -19 -11 -61t-11 -62q0 -64 -24 -84q-9 -33 -32 -48q-12 -9 -51 -22q-25 -9 -69 -18q-40 15 -63 -8q27 -28 27 -54q0 -24 -12 -39l-15 -18l-22 15l-30 -4h-48q-20 1 -20 37q0 6 -6.5 43t-6.5 62q0 53 25 86q21 15 74 15q13 0 45 -2h45q103 0 129 57
q-2 14 -30 56q-24 37 -23 55q-1 3 -33 68q-30 13 -120 1q-51 42 -51 78q0 18 14.5 40.5t14.5 29.5t30.5 21t32.5 16q15 -6 31 -3q26 4 29 4q10 0 32.5 -7.5t31.5 -7.5q62 -69 86 -111q31 -60 31 -135zM280 39q-13 -21 -41 -38.5t-52 -17.5q-27 0 -64 51q-24 32 -24 60
q0 17 12.5 26.5t23 18.5l31.5 27q78 0 81 -1q51 -45 51 -74q0 -22 -18 -52z" />
    <glyph glyph-name="at" unicode="@" horiz-adv-x="1026" 
d="M948 270q0 -26 -21 -63q-23 -42 -45 -44q-2 -19 -50.5 -62t-69.5 -46q-3 -13 -32 -28q-21 -11 -42 -21l-45 10q-24 0 -72 -11t-69 -11q-73 0 -167.5 20t-132.5 20l-30 24h-1v0q-24 9 -48 20q-36 16 -36 34q0 5 3 11q-15 13 -30 29t-15 34l16 22q-27 29 -54 50
q-1 12 -7 54q-6 34 -6 55q0 62 30 83q-15 37 -15 81q0 78 120 225q19 6 133 72q81 48 144 39q29 16 80 16q106 0 196 -31q122 -45 122 -131q0 -30 -15 -63l15 -30q0 -13 -14.5 -38t-14.5 -40l17 -54q-9 -18 -47 -37l21 -41q-19 -31 -46 -49q-23 -53 -80 -101
q-61 -52 -114 -52q-42 0 -63 108h-13q-59 -65 -77 -78q-42 -33 -100 -42q-77 37 -92 88q18 14 18 41q0 9 -3.5 30t-3.5 30q0 30 75 99q88 81 100 100q47 5 36 26q65 19 188 67q25 -15 25 -45l-12 -30q12 -55 12 -66l-18 -42l-13 -3l-8 -33q17 -15 18 -67l-22 -18l12 -35
q45 15 57 75q12 54 40 59l12 52l-19 41q0 27 31 69q-6 87 -25 111q-17 18 -104 54l-34 -12q-17 0 -41.5 15t-39.5 15q-32 -18 -83 -29q-42 -9 -85 -16q-12 -47 -42 -42q-24 -23 -62 -29q-13 -21 -48 -94q-28 -60 -55 -92l12 -33q0 -15 -8.5 -45t-8.5 -45l3 -21
q14 -10 18 -46q3 -27 5 -54q34 -3 25 -60q12 -23 68 -66q51 -41 57 -57q64 -23 235 -23q8 0 26.5 2.5t29.5 2.5l31 25l23 -16l132 39q4 1 32.5 32.5t49.5 25.5q6 12 18 72q5 32 53 60q21 0 40.5 -14t19.5 -32zM513 478q0 41 -2 47q-4 22 -25 36q0 3 -15 13q-14 -7 -35 -25
q-13 -15 -25 -32q-17 -18 -35 -19q-66 -72 -66 -104v-3q-1 -19 14.5 -41.5t35.5 -27.5q7 14 22 38l30 24q21 18 21 30q0 7 40 22t40 42zM172 58v0h-1h1z" />
    <glyph glyph-name="A" unicode="A" horiz-adv-x="853" 
d="M808 52q-13 -4 -36 -18q-43 -37 -112 -37q-20 0 -51 4q-36 5 -45 5t-24 19q-24 33 -14 117q2 23 -12 50q-18 33 -19 42q-6 37 -11 45q-9 22 -33 31q-18 6 -93 5q-37 -5 -51 -9q-33 -11 -42 -36q-12 -33 -12 -71q0 -18 3 -30q2 -4 28 -38.5t26 -55.5q0 -12 -9 -23
q-31 -39 -81 -49q-37 -6 -75 -12q-6 -2 -22 1q-21 5 -24 6q-35 2 -101 8q-10 1 -22 13q-20 21 -20 59q0 33 18 55.5t51 17.5q3 -1 23.5 9.5t65.5 49.5t57 58q4 9 -12 24q-23 23 -24 26q-5 7 10 28q23 30 26 35q1 12 9 40q10 21 30 62l3 39q9 43 21 106q13 21 28 63
q3 66 26 114q9 17 52 83q11 16 33 18q60 4 80 -14q12 -45 52 -151q8 -21 15 -42q15 -36 38 -62q4 -6 6 -43q3 -48 4 -57q6 -33 21 -56q32 -43 30 -58q-3 -32 11 -54q19 -26 37 -53q0 -10 4 -29t13 -52q7 -37 37 -73q36 -44 69 -36q9 3 18 -5q15 -12 15 -34q0 -20 -15 -35z
M411 589q-9 9 -23 5q-63 -20 -63 -87q0 -62 59 -68q58 3 58 62q0 55 -31 88zM190 39q23 0 23 24q0 36 -26 34q-27 -1 -27 -30q0 -28 30 -28z" />
    <glyph glyph-name="B" unicode="B" horiz-adv-x="759" 
d="M645 211q0 -28 -26 -72q-19 -33 -39 -64q-9 -18 -28 -39q-26 -26 -45 -26q-11 0 -20 8h-79q-36 0 -70.5 -10t-58.5 -10h-243q-38 6 -45 29q-12 30 0 55q9 20 31 32q18 7 36 15q45 27 51 42q2 1 2 45v393q0 36 -2 37q-7 29 -60.5 56t-57.5 48q-3 9 -3 18q0 55 94 55
q47 0 71 -12q9 -4 48 -6l63 -1q9 1 48 10q31 9 58 9h54q44 0 88 -38t68 -89q26 -57 21 -72q-3 -14 -16 -74q-2 -7 -19 -23t-20 -22q-21 -40 6 -66q43 -40 54 -102q12 -69 25.5 -87.5t13.5 -38.5zM397 700q-6 20 -34 12q-23 -4 -26 -18q-4 -42 -13 -96q-27 -61 -27 -64
q0 -17 17 -30.5t41 -1.5q68 14 68 83q0 27 -11 66q-7 25 -15 49zM465 342q-5 10 -23.5 22t-24.5 21q-29 47 -63 47q-59 0 -74 -77q-4 -25 -3 -60v-84q-1 -4 -1 -12q0 -19 12.5 -39.5t29.5 -20.5q27 0 36 36q6 29 12 56q12 27 48 49q42 26 49.5 36.5t1.5 25.5zM447 265
q-3 6 -15 2q-48 -11 -48 -68q0 -40 36 -39q42 8 42 50q0 27 -15 55z" />
    <glyph glyph-name="C" unicode="C" horiz-adv-x="868" 
d="M756 153q0 -96 -30 -134q-35 -43 -132 -43h-239q-40 0 -40 -2q-32 17 -65 32q-28 1 -70 16q-17 15 -98 65q-40 25 -49 69q-12 21 -41 90q2 15 -3 45q-12 49 -12 88v89q0 67 9 87q47 94 48 99q17 9 44 31.5t42 30t30 13.5q18 19 57 51q25 18 75 43q39 15 63 17q82 3 198 0
q45 -2 97 -39q12 -8 39 -12q33 -6 42 -11q21 -7 17 -31q-6 -29 7 -72q14 -50 14 -66q0 -30 -23 -53q-4 -4 -13 -4q-32 0 -47 25q-34 63 -90 111q-67 57 -121 48q-20 6 -54 9q-51 -6 -100.5 -45.5t-76.5 -93.5q-2 -14 -11 -45q-15 -24 -33 -75q-10 -92 2 -132q1 -6 33 -60
q6 -9 3 -42t1 -44q51 -123 192 -112q27 1 36 -3q48 -26 69 -26q26 0 53 26q12 4 37 18q38 22 59 78q22 63 55 63q26 0 26 -41v-58z" />
    <glyph glyph-name="D" unicode="D" horiz-adv-x="928" 
d="M831 343q0 -4 4.5 -12.5t4.5 -17.5q0 -22 -26 -70q-24 -27 -81 -98q-15 -22 -30 -46q-24 -35 -52 -30q-35 4 -60 -21q-29 -30 -48 -32q-86 0 -240 -1q-38 0 -65 -10.5t-54 -10.5h-169q-65 0 -65 45q0 19 11 51q1 7 31 19h92q43 0 43 62q0 28 -7 60q-18 70 -17 159
q0 1 10.5 24.5t10.5 38.5q0 10 -4 18q-17 27 -17 61v63q14 23 20 68q-8 28 -38.5 38t-59.5 17q-21 9 -21 44q0 19 11.5 32t32.5 13q9 0 26 -3t23 -3q20 0 69 4q6 0 32.5 13t36.5 13h258q17 0 39 -17q38 -25 73 -41.5t107 -54.5q42 -22 51 -52q18 -20 53 -63q0 -15 4 -42
q12 -57 12 -71q-1 59 -1 -36v-111zM679 384q12 37 12 67q0 51 -37 105q-5 11 -14 27q-16 15 -39 39q-12 23 -40 54q-23 8 -60 27q-92 66 -146 66q-60 0 -90 -57q-6 -10 -1 -40v-374q1 -15 16 -60q15 -33 15 -88q0 -35 18 -53q12 -12 27 -10q21 10 50 21q27 3 52 6
q32 4 45.5 17t32.5 20q27 11 32 15q16 17 51 47q18 9 46 30q21 25 24 51q-1 31 6 90z" />
    <glyph glyph-name="E" unicode="E" horiz-adv-x="717" 
d="M627 142q-12 -39 -38 -115q-3 -9 -45 -26h-135q-21 0 -49.5 -12t-41.5 -12q-8 0 -14 2q-16 6 -31 13q-24 9 -38 9h-186q-6 -3 -13 -3q-15 0 -28 11.5t-13 26.5q0 10 9 19q21 18 43 39t22 42q0 9 -3 18q-5 14 0 20q31 36 31 63q0 18 -13 48q-12 24 10 73q6 12 6 72v113
q0 61 0 57q-3 25 -36 99q-4 10 -22 22t-23 18q-12 15 -12 35q0 22 18 34q3 3 42 8h420q45 -9 45 -51q0 -9 -10 -65q-5 -27 -38 -27q-39 0 -108 36q-36 18 -72 18q-40 0 -61 -28q-6 -6 -2 -80q3 -37 -24 -88q-9 -17 -9 -42q0 -35 18 -53q29 -7 35 -6q91 27 106 33
q33 15 86 60q3 3 15 2q15 0 22 -5q33 -21 33 -66q0 -13 -3 -37t-1 -33q1 -23 -18 -50q-14 -21 -44 -21q-16 0 -25 8q-14 13 -26 25q-18 18 -30 18h-61q-26 -3 -51 -6q-29 -7 -47 -33q-10 -12 -10 -27q0 -19 34 -73l-1 -32q-2 -60 16 -79.5t56 -19.5q31 0 84 17q30 1 87 10
q37 11 57 45q16 30 46 30q44 0 44 -39q0 -7 -3 -15z" />
    <glyph glyph-name="F" unicode="F" horiz-adv-x="657" 
d="M561 676q1 -37 1 -40q0 -6 -10.5 -20.5t-17.5 -14.5q-15 -1 -33 6q-23 11 -27 29q-11 39 -12 42q-9 12 -36 9q-12 -5 -23 -11q-21 -9 -30 -4q-1 0 -30 16q-19 12 -33 9q-64 -9 -64 -78q0 -49 34 -90q3 -4 -1 -22q-3 -20 1 -29q18 -36 60 -36q54 0 84 59q3 4 18 7
q15 2 23 0q12 -4 22 -31q2 -2 2 -32v-79q0 9 4 -24q3 -17 -7 -24q-18 -15 -42 -8q-11 5 -27.5 22t-26.5 22q-27 1 -81 16q-33 14 -39 6q-26 -30 -26 -79q0 -35 15 -51q24 -26 24 -48q0 -8 -3.5 -24.5t-3.5 -28.5q0 -19 9 -40q6 -14 36 -23t36 -31q4 -12 -2 -32
q-7 -24 -21 -24h-99q-1 0 -22 9t-30 11q-17 3 -33.5 -8.5t-19.5 -11.5h-84q-4 2 -31 8q-11 3 -11 16q0 6 32 42q15 21 51 69q27 35 27 134v217q0 47 -3 75q-5 38 -6 107q-2 15 -8 21q-15 10 -52 40q-9 11 -19.5 20.5t-19.5 6.5q-3 6 -3 14q0 24 46 43q41 17 68 17h120
q39 0 62 -10t85 -8q19 9 57 19q18 3 78 -6t60 -67q0 -21 -10 -34.5t-8 -42.5z" />
    <glyph glyph-name="G" unicode="G" horiz-adv-x="868" 
d="M769 394q8 -6 8 -21q0 -13 -9 -22q-39 -44 -38 -110q3 -96 0 -108q-9 -10 -30 -37q-58 -107 -223 -107q-26 0 -53 3q-10 2 -123 45q-28 6 -78 21q-21 9 -61 35q-89 60 -125 130q-3 15 -12 45q-4 20 -33 74q-6 12 -3 39q11 18 29 55q0 42 18 125q21 43 52 109q23 47 89 92
q52 36 87 45q25 -3 91 0q2 1 39 10q30 8 44 8q7 0 12 -2h102q76 6 129 -51q19 -6 46 -33q14 -37 3 -90q-3 -13 -21.5 -26.5t-35.5 -13.5q-18 0 -30 28q-19 39 -21 42q-49 54 -156 53q-87 0 -99 -3q-46 -8 -84 -47q-4 -12 -18 -34q-19 -21 -45 -60q2 -18 -4 -53
q-11 -22 -22 -45.5t-11 -56.5v-106q0 -38 40 -111q42 -78 83 -104q9 -6 28 0q14 5 27 11q26 10 51 10h59q16 -6 30 -6q61 0 61 95q0 30 -9.5 50t-38.5 25q-39 6 -45 9q-13 7 -13 19q0 15 24 35q19 15 34 21q26 7 54 9h50q3 1 39 11t58 10q32 0 54 -17z" />
    <glyph glyph-name="H" unicode="H" horiz-adv-x="982" 
d="M874 52q-3 -10 -49 -27h-69q-8 0 -17 1.5t-19 1.5q-17 -1 -48 -7q-3 0 -25 -11.5t-32 -8.5q-33 6 -50 38q-9 15 2 27q1 0 48 43q31 27 39 50q3 6 -5 25q-7 26 -7 32q0 31 -3 94q-3 26 -26 39q-13 6 -78 6h-246q-72 0 -72 -58q0 -20 9 -44q2 -31 3 -82q0 -11 2 -18
q3 -12 28 -33q17 -15 35 -29q22 -22 22 -52q0 -44 -37 -44q-15 0 -41.5 16t-33.5 16q-11 0 -32 -14.5t-30 -15t-39 -5.5q-24 -3 -36 -3q-27 0 -37.5 16t-10.5 35q0 18 12 29q42 34 42 81q0 9 -1.5 25.5t-1.5 23.5v344q0 18 10 49.5t10 47.5q0 15 -6 30t-39 27
q-38 14 -50 27.5t-12 35.5q0 23 14 33q9 8 22.5 9.5t25.5 2.5h202q15 0 34 -0.5t29 -14.5q8 -9 0 -25q-6 -14 -30 -26t-34 -30q-17 -27 -17 -49q2 39 2 -33v-113q0 -1 -2.5 -14t-2.5 -22q0 -27 23 -43q7 -6 33 -2q19 3 37 8q27 1 80 1h165q73 0 73 45v60q-10 24 -22 71
q0 10 9.5 26t9.5 23q0 15 -40 48q-48 42 -55 51t-7 27q0 39 33 45q62 -3 167 6q52 17 64 17q15 0 27 -5q33 -16 33 -51q0 -31 -24.5 -74t-32.5 -56q-10 -21 -13 -44q-6 -36 -6 -94v-90q0 1 -2.5 -17t-2.5 -31q0 -18 5 -29q18 -39 18 -87q0 -13 -1.5 -38t-1.5 -35
q0 -35 12 -59q19 -21 40 -42q33 -36 27 -57z" />
    <glyph glyph-name="I" unicode="I" horiz-adv-x="498" 
d="M402 193q-26 0 -26 29q0 31 26 36q25 3 25 -27q0 -32 -25 -38zM376 790q0 -19 -36 -48q-49 -37 -63 -54q-31 -39 -24 -91q12 -75 12 -81q-1 -24 -5 -52.5t-4 -81.5v-58q0 -77 6 -102q15 -60 68 -50q22 3 28 -4q21 -27 21 -75q0 -24 -8 -37.5t-62 -33.5q-15 -9 -45 -22
q-17 -6 -35 -6q-25 0 -80 16.5t-82 16.5q-12 0 -24 -3q3 1 -22 9q-9 3 -21 7.5t-16 13.5t-4 13q0 14 26 29q33 19 43 36q35 51 35 132q0 40 -14 135q0 3 9 66q3 16 3 64v59q0 69 -15 84q-72 72 -82 87q-6 7 -8 27q0 12 16 19.5t29 5.5h71q1 0 21.5 -9t29.5 -10
q4 -2 23.5 5.5t25.5 7.5q41 9 126 26q23 3 40 -7.5t17 -33.5z" />
    <glyph glyph-name="J" unicode="J" horiz-adv-x="490" 
d="M432 789q3 -6 3 -12q0 -14 -36 -68q-39 -19 -63 -52q-29 -36 -23 -68q0 -1 -3 -7t-3 -8q-1 -18 2 -34q4 -23 1 -96q-1 -66 6 -83q0 -18 3 -58q3 -17 3 -68v-109q0 -9 -6 -72q-6 -68 -9 -81q-4 -18 -24.5 -49.5t-67.5 -34t-67 -29.5q-22 -4 -48 -4q-69 0 -90 28
q-9 15 -9 27q0 23 38 42l48 24q6 6 27 122.5t18 128.5q-9 30 -18 40v45v276q0 48 -23.5 60t-47.5 23q-28 22 -37 85q-5 32 24.5 53.5t57.5 17.5h122q28 0 71 6.5t59 6.5q56 0 92 -52z" />
    <glyph glyph-name="K" unicode="K" horiz-adv-x="903" 
d="M823 48q-1 -20 -30.5 -35.5t-56.5 -15.5q-10 0 -18 3h-169q-18 0 -45 7q-9 9 -18 17q-14 13 -11 21q21 63 21 81q0 39 -45 72l-54 66q-22 27 -43 55q-26 30 -51 35q-44 6 -44 -51q0 -17 5 -42q7 -32 9 -44q0 -34 2 -70t34 -60q15 -8 30 -17q19 -13 18 -34q-5 -6 -14 -15
q-34 -21 -88 -21h-123q-8 0 -13 3.5t-8 3.5q-9 0 -35 -15q-10 -6 -33 -15q-18 -1 -33 3q-24 9 -24 39q0 20 12 30q8 8 37 14.5t38 14.5q32 19 38 48q1 10 1 69v421v26q2 15 2 18q0 16 -13 21.5t-71 14.5q-17 3 -33.5 17t-20.5 34q-6 28 10 34q12 6 47 8q45 1 55 3
q23 3 51 19q9 6 24 5q26 -3 21 -3h63q29 0 57 -12q39 -17 39 -44q0 -12 -9 -27q-16 -1 -43 -22q-15 -26 -15 -90v-59q0 -6 -4 -20t-4 -22q0 -33 35 -33q31 0 74 46.5t50 76.5q20 15 51 48q26 35 6 65q-1 1 -26 17.5t-25 30.5q0 19 39 22q27 2 54 3q12 6 36 14q21 3 44 7
q39 5 69 5q81 0 96 -42q9 -24 -39 -42q-36 -11 -74 -21q-30 -9 -87 -63q-51 -48 -67 -74q-9 -12 -31.5 -26t-30.5 -25q-39 -58 -31 -76q19 -45 93 -99q22 -18 51 -56q13 -42 60 -90l84 -78q18 -6 52 -21q6 -6 23 -19q15 -6 28 -12q23 -11 21 -27z" />
    <glyph glyph-name="L" unicode="L" horiz-adv-x="810" 
d="M715 24q-16 -42 -43 -42q-12 0 -26 4h-492q-37 0 -57 -3q-4 -1 -34 -10q-21 -8 -33 -8q-42 0 -42 38q0 25 48 51q33 13 65 29t38 53q0 -3 0 63v120q0 8 1.5 20t1.5 22q-1 17 -7 47q-3 12 -16.5 33.5t-13.5 23.5v118q0 74 -6 83q-2 4 -78 70q-26 23 -18 44q6 22 26 40
t41 18q23 0 36 -22q6 -8 24 -3q18 7 35 15q28 12 55 12h153q27 -5 48 -30.5t21 -52.5q0 -24 -16 -37q-17 -2 -45 -15q-44 -33 -45 -101q-2 -81 -14.5 -101t-17.5 -85q-3 -57 15 -91.5t18 -65.5v-71q0 -67 6 -82q11 -29 57 -29q29 0 78 9q20 12 59 29q34 -3 96 1q10 3 48 21
q31 17 46 17q9 0 16.5 -5.5t9.5 -29.5q1 -22 -6.5 -30.5t-31.5 -66.5z" />
    <glyph glyph-name="M" unicode="M" horiz-adv-x="1060" 
d="M984 64q-9 -22 -36 -39.5t-53 -17.5q-10 0 -21 3h-118q1 0 -17 -3q-15 -1 -22 0q-32 11 -32 32q0 15 14.5 37.5t27.5 43.5q8 13 8 72v147q4 121 4 127q-1 24 -33 24q-24 0 -39 -28q-9 -35 -28 -92q-29 -43 -66 -117q-2 -16 -15 -55q-23 -38 -28 -53.5t-10 -30.5
q-18 -26 -39 -72q2 -15 -7 -45q-14 -18 -42 -9q-24 6 -27 21q-9 45 -30 85q-32 56 -38 72q-1 29 -12 89q-13 16 -36 58q-1 30 -12 98q-7 28 -33 28q-25 0 -40 -27q-36 -67 -36 -153q0 -54 15 -96q9 -25 45 -60q30 -28 30 -46q0 -8 -3 -14q-12 -30 -48 -30q-56 0 -60 -1
q-33 -20 -101 -53q-22 -10 -63 30q-4 3 -4 11q0 16 30 46q3 15 13 39q20 23 41 44q21 27 21 51q0 7 -2 16v77q0 52 15 75q20 30 27 70q3 14 3 24q0 14 -6 44.5t-6 59.5v84q8 13 8 25q0 26 -31.5 40t-57 9.5t-34.5 18.5q-9 16 -9 31q0 72 147 72q28 0 48 -4q67 -11 82 -50
q0 -18 15 -81q21 -66 57 -118q29 -42 38 -86q10 -55 16 -72q15 -34 35 -102q1 -31 3 -63q3 -40 22 -40q9 0 23 9q3 13 13 34q18 23 36 63q24 54 30 65q27 46 38.5 84.5t15.5 44.5q35 46 74 114q0 1 9 70q7 53 24 80q4 7 27.5 24.5t37.5 19t131 4.5q9 0 20 -9q15 -15 15 -27
q0 -17 -8 -20q-42 -13 -69.5 -47t-27.5 -73q0 -42 34 -76q-1 0 -1 -48v-285q0 -57 9 -75q16 -36 79 -42q15 -2 20 -24q4 -21 0 -32z" />
    <glyph glyph-name="N" unicode="N" horiz-adv-x="970" 
d="M912 820q12 -13 -2 -25q-45 -36 -91 -72q-6 -9 -6 -66v-222q0 -32 -20 -90l9 -102q3 -30 -4 -66q-9 -42 -9 -59q0 -16 5 -31t10 -27q10 -23 7 -33q-6 -38 -45 -38q-13 0 -25 6q-11 17 -37 47t-74 84q-38 42 -105 123q-20 25 -36 37q-12 8 -17 18q-12 29 -45 54
q-45 33 -54 44q-6 16 -19 46q-20 18 -48 59q-21 48 -42 48q-8 0 -15 -8q-29 -25 -24 -73q6 -60 0 -77q-14 -15 -32 -48q-1 -9 14 -25q16 -21 18 -29q3 -15 -2 -84q-3 -55 17 -81q7 -9 33.5 -19.5t33.5 -17.5q21 -21 21 -48q0 -15 -7 -23q-23 -24 -48 -24q-6 0 -21 6t-27 6
q-27 0 -78 -24.5t-75 -24.5q-30 0 -53.5 21.5t-23.5 50.5q0 27 24 42q20 0 56 13q30 27 25 93v345q0 38 10.5 60.5t22.5 44.5q6 18 0 30q-9 18 -36 23q-42 9 -54 13q-46 23 -46 66q0 26 27 38q9 3 51 3h94q33 0 98 -33q10 -18 30 -47q42 -40 121 -121q6 -20 27 -56
q35 -31 104 -102q25 -37 76 -102q9 -22 20 -45q13 -31 40 -31q38 0 38 55q0 8 -1.5 17t-3.5 28q-1 8 -10 44q-2 13 -8 39v210q0 12 2.5 25.5t2.5 16.5q0 19 -72 37q-36 9 -36 54q0 32 30 39h223q9 2 18 3q14 2 24.5 -1t19.5 -14z" />
    <glyph glyph-name="O" unicode="O" horiz-adv-x="888" 
d="M825 376q0 -10 -12 -39q-17 -36 -17 -37q-6 -20 -4 -24q3 -9 3 -20q0 -52 -69 -120q-54 -52 -116 -85q-13 -6 -79 -32q-71 -27 -81 -27h-105q-23 0 -44 15q-34 23 -40 26q-21 6 -57 19q-12 11 -38 29q-25 12 -51 22q-37 21 -40 51q-2 8 -21 32q-29 31 -30 33q-2 16 -8 49
q-10 50 -10 92v136q0 56 16 137q12 10 35.5 35t74.5 83q7 8 24.5 11t24.5 7q59 45 107 45h133q23 0 40 12t37 11q81 -3 160 -62q30 -22 62 -63q25 -37 51 -73q54 -77 54 -107v-156zM645 274v218q0 49 1 28q-1 15 -19 42q-11 12 -24 29q-53 123 -129 130q-9 6 -26 14
q-40 10 -73 10q-48 0 -101 -22q-25 -11 -57 -30q-30 -53 -39 -69q-24 -51 -27 -93v-119q0 -45 17 -78q6 -25 15 -55q25 -32 57 -92q28 -51 46 -69q30 -28 81 -28h87q2 0 23.5 8t27.5 10q60 13 100 61t40 105z" />
    <glyph glyph-name="P" unicode="P" horiz-adv-x="708" 
d="M600 528q1 -39 -35 -96q-75 -119 -183 -119q-30 0 -61 9q-9 14 -9 29q0 36 64 78q86 55 86 129q0 45 -35 87q-4 13 -15 36q-22 31 -60.5 52t-62.5 23q-54 1 -54 -92q0 -12 2 -21v-76q0 -35 1 -32q-30 -61 -30 -93q0 -33 23 -70q3 -30 9 -87q0 -3 9 -27t7 -36
q-6 -80 59 -134q22 -19 22 -45q0 -25 -19 -34q-32 -14 -71 -14q-13 0 -46 3q-26 3 -39 2q-3 0 -19.5 -7t-18.5 -7h-85q-44 2 -44 47q0 10 3 21q9 19 42 29t45 27t14 50q-2 -51 -2 56v424q0 -4 5 21q4 14 -7 34t-52 49q-33 24 -33 40q0 8 6 19t32 13q21 1 42 3q10 -2 30 3
q28 15 57 30h39h76q30 0 35 -2q15 -4 61 -28q14 -2 36 -6q18 -5 48 -15q44 -27 74 -54q7 -6 12 -24q7 -23 9 -24q16 -32 33 -65q0 3 0 -36v-70z" />
    <glyph glyph-name="Q" unicode="Q" horiz-adv-x="982" 
d="M1914 -263q-15 -16 -68 -45q-61 -31 -106 -40q-21 -12 -65 -27q-69 -11 -88 3q-39 25 -75 25q-17 0 -50.5 -9t-53.5 -9q-6 0 -27 9q-25 12 -36 15h-175q-23 2 -40 15.5t-34 29.5q-12 9 -27 9q-18 0 -54 -18.5t-54 -18.5q-15 0 -28 10q-26 26 -53 50q-36 28 -64 30
q-18 -2 -51 9q-44 36 -80 49q-31 9 -63 18q-24 21 -72 62q-34 16 -90 45q-18 12 -180 84q-33 4 -84 21q-19 12 -72 61l-18 45q-31 75 -52 107q-47 64 -47 147q0 -8 11 108q1 22 52 116.5t167 175.5q33 23 100 26h110q96 3 144 -12q42 -12 115 -59q41 -27 87 -105
q27 -51 56 -103q39 -62 39 -122q0 -49 -33 -120.5t-66 -141.5q-9 -24 -69 -62q-66 -42 -74 -51q-10 -13 -10 -34q0 -15 7 -26q30 -48 93 -82q53 -27 107 -54q24 -12 64 -17q36 -3 75 -25q23 -2 47 -3q45 -2 63 -18q34 -30 72 -41q10 -3 91 -16q39 -12 110 -30q22 -5 48 -5
q13 0 35.5 1.5t33.5 1.5q21 0 39 -4q70 -23 90 -18q105 25 130 34q59 23 108 69q24 6 51 0q23 -13 23 -37q0 -12 -9 -23zM745 300v169q0 9 -12 30q-7 14 -15 26q-3 24 -15 73q-3 9 -21 21q-27 15 -28 17q-42 43 -99 97q-17 6 -41 18q-39 30 -93 30q-24 0 -43.5 -7.5
t-25.5 -29.5q-7 -27 -13 -32q-14 0 -41 7t-39 7q-24 0 -40 -20q-24 -25 -63 -124v-242q0 -21 87.5 -120.5t128.5 -123.5q54 -32 148 -32q68 0 96 24q50 42 80 99q18 32 49 113z" />
    <glyph glyph-name="R" unicode="R" horiz-adv-x="763" 
d="M781 72q3 -32 -1 -41q-17 -36 -59 -36q-36 0 -76 23q-11 0 -32 3q-33 12 -81 28q-18 5 -31.5 29t-25.5 46q-6 11 -28.5 21.5t-31.5 26.5q-28 47 -34 66l-14 35q-9 16 -34.5 55t-32.5 42q-24 12 -42 12q-48 0 -48 -61v-122q-3 -6 -3 -13q0 -42 102 -114q12 -9 4 -23
q-15 -28 -43 -28q-14 0 -69 21q-17 6 -65 -8q-18 2 -49 -6q-44 -31 -65 -31q-24 0 -42 31q-9 14 -9 23q0 15 32 27q40 15 54 31q4 8 3 21q-2 21 -2 23q2 31 6 52q17 62 12 81q-7 47 -9 39q11 167 11 147v164v57q-8 31 -45 52q-24 12 -24 39t22.5 51t46.5 20h135q16 0 36 -12
q27 -14 46 -18h63h90q6 1 12 1q29 0 62 -31.5t45 -67.5q13 -13 36 -39q6 -10 6 -27q0 -42 -30 -93q-9 -22 -17 -45q-15 -40 -27 -46q-73 -47 -67 -104q1 -9 16 -24q23 -21 24 -24q8 -15 26 -43q7 -12 35 -28.5t37 -25.5q27 -30 76 -90q3 -36 35 -45q61 -20 64 -21zM439 574
q3 59 3 54q0 63 -52 95q-74 43 -126 43q-62 0 -54 -72v-162q-3 -7 -3 -13q0 -29 31.5 -44.5t62.5 -9.5q63 10 105 63q17 19 33 46z" />
    <glyph glyph-name="S" unicode="S" horiz-adv-x="576" 
d="M462 286q15 -66 -14 -150q0 -1 2.5 -14t2.5 -20q0 -20 -14 -26q-21 -10 -102 -57q-40 -25 -90 -25h-75q-4 -6 -15 -6q-19 0 -111 34q-27 11 -40 48q-12 32 -9 62v54q3 34 28 49q2 0 21 -7q36 -15 41 -36q-3 -21 1 -60q17 -47 66 -47q23 0 47 10.5t27 10.5q9 0 29 -12
t26 -7q45 33 45 96q0 42 -27 73q-9 9 -49 27q-14 9 -41 29q-19 6 -57 33q-31 36 -97 108l-15 39q-20 21 -45 64q-3 11 3 60q6 17 10 48q0 50 49.5 95t99.5 45q10 0 18 -3q-5 1 46 22q18 8 41 8h73q48 -9 82 -51t34 -90q0 -56 -44 -93q-9 -8 -18 -8q-28 0 -37 53l-50 57
q-33 37 -75 37q-64 0 -123 -76q-4 -8 -4 -15q0 -50 94 -114q3 -2 30 -9q23 -5 35 -21q3 -15 10 -42q5 -18 24 -60q14 -26 41 -26q-3 0 52 9q15 2 47 -39q21 -25 27 -57z" />
    <glyph glyph-name="T" unicode="T" horiz-adv-x="858" 
d="M783 652q0 -7 -8 -24q-7 -22 -18 -24q-18 -4 -43 21l-42 42q-56 45 -92 42q-22 2 -66 0q-67 -7 -67 -96q0 -60 24 -115q3 -6 -6 -24q-12 -23 -14 -30q0 -8 18 -48q3 -5 3 -47v-178q0 -47 11.5 -56.5t84.5 -20.5q17 -3 24 -24q5 -12 2 -31q-3 -21 -22 -25.5t-50 -16.5
q-9 -5 -20 -5q-12 0 -32 7.5t-26 7.5h-162q1 0 -26 -1q-19 -3 -30 0q-15 4 -18 18q-4 19 29 48q46 42 52 51q26 34 26 81q0 18 -5 31q-1 6 -17 25t-16 31t13 35t14 29q9 35 9 53q0 40 -34 79q-2 2 -2 5q0 7 16.5 25t16.5 26q3 13 -19 63q-5 15 -14 45q-21 28 -57 28h-9h-9
q-30 0 -45 24q32 24 32 44q0 34 -75 34q-62 0 -69 -25q-2 -6 -2 -14q0 -21 24 -57t24 -52q0 -20 -19.5 -38t-38.5 -18q-21 0 -29 21q-9 30 -9 86q0 76 17 123q4 10 57 19h91q2 0 35.5 -2t35.5 -2h511q24 -9 29 -21q18 -42 12 -149zM-125 270q27 1 27 -29q0 -33 -28 -39
q-26 0 -26 29q0 37 27 39z" />
    <glyph glyph-name="U" unicode="U" horiz-adv-x="951" 
d="M70 621q0 -6 3 21q2 12 -6.5 30t-65.5 54q-18 7 -36 15q-25 12 -25 25q0 63 129 63h196q6 3 12 3q20 0 38.5 -20t18.5 -43q0 -16 -10 -28q-66 -66 -73 -77.5t-7 -65.5q-1 -10 -4 -21q-5 -22 0 -85l-9 -96l7 -81q-4 -15 -1 -45q85 -135 112 -138l68 -11q60 -9 95 12
t55.5 52t45.5 139q5 13 -1 106q0 3 4 84q0 12 -3.5 40t-3.5 26v54q1 11 4 33q-13 23 -55 89q-17 25 -5 40q6 8 19 9.5t23 2.5h63q8 0 35.5 9t56.5 9h87q7 5 35.5 -2t45.5 -19q4 -9 4 -18q0 -24 -62 -53t-65 -58l-14 -118l-9 -75q23 -48 21 -65q-13 -28 -31 -84
q-3 -39 -24 -123q-57 -133 -141 -175q-35 -18 -68 -24q-27 -3 -73 -15q-8 -5 -42 21q-26 -6 -50 -20.5t-27 -14.5q-6 0 -6 14q-19 7 -49 21q-9 7 -53 37q-39 26 -52 50q-17 34 -44 61q-4 11 -15 33q-28 53 -48 126q-3 11 3 47q9 51 11 54q1 18 0 30l-14 115v50zM270 -197
q-18 -1 -32.5 8t-14.5 21q0 16 23 25q15 5 30.5 -9.5t15.5 -29.5t-22 -15z" />
    <glyph glyph-name="V" unicode="V" horiz-adv-x="867" 
d="M667 195q-31 -5 -31 22q0 14 18 15q33 3 33 -19q0 -11 -20 -18zM807 786q-8 -27 -43 -52.5t-62 -23.5t-81 -82q-2 -15 -7 -46.5t-23 -100.5q-15 -21 -33 -63q-11 -48 -32 -109q-12 -14 -18 -47q-6 -39 -6 -40q-13 -17 -36 -60q-6 -17 -13 -74q-3 -31 -33 -52
q-24 -20 -56 -20q-60 0 -61 57q0 21 -18 44q-23 30 -29 48q2 15 0 49q-1 9 -16 27t-20 29q-4 33 -10 66q-11 49 -41 88q-1 15 -6 45q-3 15 -27 57q-9 36 -34 102q-14 23 -62.5 57.5t-74.5 38.5q-15 3 -18 18q-7 47 18 75q9 8 23 8q12 0 42 -10.5t43 -12.5h110q13 0 49 13.5
t51 9.5q66 -18 66 -68q0 -9 -3 -18q-7 -22 -44 -27.5t-43 -32.5q-3 -15 9 -27q29 -27 32 -61q3 -48 9 -63q12 -18 36 -57q16 -26 15 -54q-2 -41 0 -48q1 -8 10 -17t17 -7q24 1 47 26.5t31 52.5q-3 17 -2 48q38 116 68 185q6 13 3 28q-5 18 -21 20q-38 3 -61 24.5t-23 48.5
q0 48 61 48h107q12 -4 24 -4q19 0 53.5 15t51.5 16q34 5 81 -67zM73 150q-21 0 -21 21t20 24q18 -2 18 -24q0 -20 -17 -21z" />
    <glyph glyph-name="W" unicode="W" horiz-adv-x="1221" 
d="M523 366q-3 -24 -28 -80q-32 -69 -38 -87q-1 -12 -9 -37q-21 -62 -16 -92q4 -18 -11 -41t-34 -23q-30 0 -65 42q-9 10 -10 28q-2 14 -2 29q-3 9 -23 33t-23 34q-18 65 -47 191q-3 12 -16.5 36t-16.5 36q-4 27 -51 187q-1 15 -25 63q-8 12 -29 18q-33 8 -39 11
q-15 6 -33 30.5t-18 45.5q0 9 3 15q9 14 30 14q15 0 30 1h197q46 0 46 -52q0 -47 -30 -86q-12 -15 12 -54q8 -16 21 -48q18 -18 42 -60q-3 -33 -1 -100q4 -21 26.5 -47.5t45.5 -26.5q46 0 51 77q3 48 15 61q24 26 24 42v8v9q0 18 10 45q0 27 9 70q3 17 2 24q-3 11 -6 18
q-6 3 -38.5 10t-56.5 31q-6 7 -9 15q-12 13 -10 39q0 13 21 24q19 27 43 12l2 -2q28 3 49 0l50 -12l45 15q51 17 82 -6q45 -9 45 -48q0 -12 -6 -30q-4 -4 -25 -9q-8 -7 -23 -9q-34 -24 -34 -60q0 -22 18 -35.5t24 -45.5q12 -64 40 -109q8 -12 15 -105q5 -69 50 -66
q4 0 19 45.5t20 50.5q15 21 16 42v39q6 36 20 48q54 52 54 123q0 81 -83 91q-4 2 -7 12q-2 12 1 25t36 20q2 2 35 2h61q15 0 44.5 13.5t48.5 13.5q35 0 71.5 -15t36.5 -39q0 -17 -22 -36q-8 -6 -34 -7t-40 -14q-34 -39 -60 -117q-30 -90 -52 -125q-5 -18 -20 -48
q-28 -37 -28 -97q0 -14 -23 -50q-27 -45 -33 -60q-15 -79 -57 -210q-10 -21 -33 -21q-48 0 -87 56q-1 10 -6 28q-6 57 -19 143q-15 48 -42 159q-12 21 -33 64q-9 9 -18 9t-20.5 -14t-20.5 -74z" />
    <glyph glyph-name="X" unicode="X" horiz-adv-x="909" 
d="M799 784q3 -6 3 -13q0 -17 -11 -34t-25 -20q-18 7 -48 10q-21 -6 -31 -24q-9 -12 -17 -25q-33 -35 -102 -104q-24 -19 -61 -61q-20 -30 -20 -77q0 -16 5 -24q10 -18 42 -49l49 -53q9 -9 15 -28.5t18 -31.5q56 -51 153 -151q2 -2 17 -63q9 -36 -14 -51q-12 -11 -25 -11
q-20 0 -50.5 27t-42.5 27h-144q-50 0 -50 47q0 10 3 20t24 32q17 20 17 39q0 35 -59 84q-6 5 -13 29q-8 19 -17 24q-27 12 -55 -15q-104 -95 -93 -146q4 -18 29.5 -47t25.5 -43q0 -13 -19 -25q-36 -24 -86 -24h-129q2 0 -13 -2q-14 -3 -17 0q-33 14 -43 20q-27 16 -30 30
q-8 33 34 58q33 17 66 33q9 9 27 24q27 18 44 30q33 26 40 44q5 10 56 60l45 45q27 28 31 46q8 23 -18 50q-21 21 -43 42l-69 73q-6 8 -6 20q0 6 2 17t2 16q0 21 -21 30q-25 9 -88 48q-30 9 -86 46q-15 17 -15 42q0 20 10.5 30.5t24.5 11.5q21 2 22 2h71q43 0 49 -6
q8 -11 48 -17q36 -1 107 -4q19 -2 19 -23q0 -15 -20 -43.5t-20 -43.5q0 -13 35 -49t43.5 -64.5t42.5 -28.5q32 0 44 21q21 40 64 120q5 9 8 22q4 18 -9 35q-20 22 -20 24q-7 15 -1 19q42 32 51.5 35t51.5 3h78h60q38 -3 54 -35z" />
    <glyph glyph-name="Y" unicode="Y" 
d="M780 817q27 -6 27 -33q0 -19 -14.5 -36.5t-33.5 -18.5q-29 1 -75 -8q-18 -7 -30 -36q-9 -22 -20 -45q-18 -18 -52 -55q-30 -44 -41 -90q-4 -17 -3 -38q3 -19 0 -28q-4 -12 -23 -25.5t-23 -28.5q10 -21 13 -51q-27 -45 -27 -77q0 -43 50 -75q79 -52 79 -129q0 -69 -84 -58
h-99q-34 4 -93 18q-21 -3 -66 1q-19 11 -61 29q-33 7 -87 25q-33 20 -33 57q0 26 27 35q27 7 52 -2q3 -1 25 -22t38 -21q9 0 18 6q48 27 68 42q40 34 45 70q0 8 -5.5 26t-5.5 24q-4 52 -30 103q-1 17 -9 47q-6 13 -30 38.5t-28 33.5q-30 49 -59 100q-45 65 -94 66
q-38 2 -73 36.5t-35 68.5q0 21 15 35q19 19 76 19q47 0 72 -15q18 -16 56 -37q13 -5 37 10q32 18 41 20q57 12 78 -5q12 -9 10 -31q-1 -23 -12.5 -33.5t-26.5 -34.5q-6 -16 32 -76q10 -21 21 -42q16 -27 36 -32q13 -3 34 7.5t32 33.5q0 15 3 42q9 24 19 72q5 33 -4 49
q-14 21 -14 38q0 25 30 33q17 -2 51 -2q18 12 54 26q6 1 30 -9.5t32 -10.5q30 0 90 -6z" />
    <glyph glyph-name="Z" unicode="Z" horiz-adv-x="817" 
d="M759 88q-2 -16 -14 -24q-82 -57 -114 -57q-16 0 -43 14q-36 19 -48 22h-27h-101q-19 0 -49 -13q-36 -17 -50 -20q-31 2 -94 -1q-6 -2 -30 -9.5t-26 -7.5h-76q-50 15 -50 74q0 22 9 63q3 9 45 40q17 12 65 63q6 6 6.5 20.5t3.5 20.5q9 13 89 102q60 69 70 112q3 14 32 54
q15 18 29 37t14 41q0 15 -10.5 28t-48 20.5t-58.5 4.5q-58 -5 -117 -8q-51 -12 -87 -87q-9 -18 -30 -34q-31 -23 -48 1q-12 15 -12 35q0 -3 18 76q-1 32 6 87q3 8 23.5 35.5t30.5 29.5q8 3 53 -35q7 -7 29 -6.5t29 -3.5q36 -20 56 -20q19 0 51 15q12 6 51 6h205q74 5 74 -55
q0 -57 -69 -168q-20 -30 -36 -47q-23 -24 -47 -57q-4 -18 -25 -54q-36 -43 -105 -121q-35 -35 -35 -62q0 -24 29 -36q10 -6 30 8q25 15 28 16q6 2 24 -7t23 -11q9 -1 33.5 9.5t33.5 11.5q39 5 56 9q33 8 61 24q53 29 72 26q75 -12 75 -108q0 -23 -4 -53z" />
    <glyph glyph-name="bracketleft" unicode="[" horiz-adv-x="457" 
d="M576 -99q0 -11 -17 -11q-13 0 -13 14q0 12 10 12q20 0 20 -15zM354 729q18 -42 18 -71q0 -55 -80 -87l-25 -15q-20 -1 -36 15h-99v-1q0 -3 -9 -14.5t-11 -45.5l-1 -95q18 -27 18 -40q0 -8 -9 -22t-9 -20v-140q0 -168 -5 -175q-12 -21 -6 -68q30 3 77 3q33 0 74 -1.5
l41 -1.5q44 0 44 -66q0 -30 -10.5 -56t-24.5 -26l-25 -15q-20 -2 -38 15h-150q-9 0 -27 13q-43 2 -37 3q-17 -7 -17 75q0 53 10.5 74t7.5 135q-1 70 -4 141l-3 282q0 13 1 28q2 9 0 14q-1 7 -7 22q9 9 13 17q-13 12 -21 22q-1 9 14 27l-2 3q9 14 20 44q7 15 67 19
q42 3 110 2q93 -3 72 -3q12 0 35 4.5t34 4.5z" />
    <glyph glyph-name="bracketright" unicode="]" horiz-adv-x="457" 
d="M412 636q-9 -9 -22 -23q4 -7 13 -16q-7 -18 -7 -29q1 -39 1 -36q-7 -232 -1 -280q-3 -72 -6 -143q-3 -114 7.5 -135t10.5 -73q0 -81 -15 -75q6 -2 -38 -3q-19 -14 -28 -14h-150q-17 -15 -38 -15l-25 15q-14 0 -24.5 26.5t-10.5 57.5q0 65 44 65q4 0 53.5 -15t90.5 -20
q1 12 25 56q23 39 17 46q-5 8 -5 177v140q0 6 -8 20t-8 22q0 12 16 39l-1 96q0 45 -3 54t-17 6l-55 -15l-42 15q-18 -15 -38 -14l-25 14q-48 19 -48 28q0 3 19.5 21t29.5 44q11 0 3.5 27.5t4.5 27.5q-20 0 82 3q71 2 110 -1q55 -5 59 -20t16 -43l-2 -3q15 -17 15 -27z" />
    <glyph glyph-name="grave" unicode="`" horiz-adv-x="483" 
d="M282 550q-2 -12 -12.5 -13.5t-17.5 -1.5q-26 0 -54.5 37t-37.5 56q-13 30 -76 95q-56 55 -56 84q0 27 36 49q12 8 33 2q21 -5 32 -15q54 -60 106 -156q53 -101 47 -137z" />
    <glyph glyph-name="a" unicode="a" horiz-adv-x="481" 
d="M438 55q9 -67 -86 -67q-22 0 -72 7l-34.5 16t-55.5 16q-19 0 -56 -21t-62 -18q-59 7 -74 64q-7 27 -7 95q1 25 22 34q12 0 35 8q19 15 154 100q36 23 36 83q0 46 -19 55q-11 6 -20 6q-24 0 -78.5 -50t-87.5 -44q-41 9 -41 43q0 21 17.5 40.5t42.5 25.5q6 8 20 20
q34 18 81 33q27 13 76 30q27 3 59.5 -14.5t48.5 -50.5q0 -15 3 -46q2 -8 8.5 -18.5t17.5 -34.5q3 -10 -17 -48q-3 -7 -7 -48v-69q-6 -13 -6 -24q0 -28 49.5 -64t52.5 -59zM202 225q-21 1 -63 -60q-1 -5 -1 -11q0 -13 19.5 -26.5t32.5 -9.5q48 5 48 60q0 44 -36 47z" />
    <glyph glyph-name="b" unicode="b" horiz-adv-x="565" 
d="M508 234q0 -54 -18 -92q-6 -9 -27 -31q-25 -29 -43 -36q-30 -21 -92 -53q-18 3 -51 0q-49 -12 -78 -12q-21 0 -81 12q-15 -4 -49 0q-23 11 -45.5 51.5t-16.5 64.5v277q0 33 2 41q1 1 12.5 17.5t9.5 22.5q-4 18 -18 57q-6 21 -6 51v59q0 72 2 36q-3 37 -23 112q-4 20 3 42
q3 12 16.5 25t25.5 13h78q12 0 26.5 -15t15.5 -24q2 -14 2 -27q0 -27 -10 -67.5t-10 -61.5q6 -18 11 -35q9 -31 6 -48q-18 -75 -18 -81q0 -40 42 -45q12 0 34 35q11 15 44 31q18 9 28 11q71 7 101 -11q42 -24 73 -58q12 -17 36 -50q12 -28 18 -52v-159zM400 241q3 23 -13 63
q-12 24 -22 49l-14 35q-11 21 -26 32q-39 25 -97 19q-95 -10 -95 -63q0 -19 10 -51.5t10 -33.5q0 -41 33 -117q25 -57 76 -57q11 0 20 3q31 3 71 43.5t47 77.5z" />
    <glyph glyph-name="c" unicode="c" horiz-adv-x="445" 
d="M438 111q0 -6 -11 -29q-19 -9 -29.5 -47t-48.5 -40q-28 2 -75 -6q-25 -15 -54 -15q-22 0 -52 11q-24 7 -48 15q-15 13 -42 39q-42 37 -71 111q-7 19 0 52v78q-6 15 -6 33q0 44 27 89t71 66q22 6 64 19q8 3 59 33q34 21 66 26q69 12 103 -27q8 -8 14 -69q1 -17 -8 -35.5
t-24 -21.5q-21 -6 -63 21t-61 27q-38 0 -77.5 -52.5t-39.5 -91.5q0 -18 9 -32q0 -18 9 -51q22 -43 25 -49q24 -38 48 -47q45 -15 98 0q54 17 72 17q27 0 45 -24z" />
    <glyph glyph-name="d" unicode="d" horiz-adv-x="577" 
d="M549 25q-69 -52 -134 -52q-15 0 -28.5 3t-33.5 24.5t-41 21.5q-12 0 -37 -6.5t-35 -6.5h-60q-56 10 -135 67q-11 8 -11 32q0 30 -4 37q-33 66 -33 132q0 68 36.5 117.5t60.5 56.5q6 5 21 14q111 48 137 48q9 0 15 -3t23 12.5t19 26.5v34v95v36q-3 12 -26.5 35t-23.5 35
q0 21 33 39q27 17 45 17h59q55 0 55 -123v-122q0 -51 -4 -60q-15 -37 -15 -76q0 -27 9.5 -77.5t9.5 -77.5v-139q0 -29 25 -32.5t52.5 -6t27.5 -66.5q0 -29 -7 -35zM339 288q-23 60 -74 109q-21 21 -43 21q-32 0 -57.5 -37.5t-25.5 -70.5q0 -7 2 -12v-58q0 -23 10 -57
q20 -21 30 -26q20 -6 35 -18q39 -27 51 -22q78 31 78 133q0 23 -6 38z" />
    <glyph glyph-name="e" unicode="e" horiz-adv-x="487" 
d="M417 427q7 -30 7 -57q0 -39 -19 -48h-134q-96 0 -130 -3q-11 -1 -22 -15.5t-11 -23.5v-66q1 -19 26 -50t49.5 -39t75.5 -7q59 2 86 17q9 9 19 16q17 14 26 11q4 -2 9.5 -11.5t2.5 -15.5q-9 -17 -19 -25t-13 -14q-7 -17 -15.5 -36.5t-24.5 -31.5q-15 -6 -41 -18
q-52 -34 -85 -36q-17 0 -120 54q-6 3 -32 48l-30 54q-4 9 -4 36v29q0 21 -2 39q0 4 -9 34q-7 24 -3 36q2 33 14 96q19 59 87.5 98.5t128.5 35.5q160 -14 183 -107zM247 381q17 -3 27 -3q23 0 23 13q0 15 -24 35.5t-45 20.5q-8 0 -12 -2l-30 -12q-23 -10 -23 -24q0 -3 3 -7
q8 -20 27 -21l33 3q5 0 11.5 -1.5t9.5 -1.5z" />
    <glyph glyph-name="f" unicode="f" horiz-adv-x="345" 
d="M480 835q0 -39 -22 -72t-53 -33q-24 0 -48 23q-15 15 -42 15q-41 0 -81.5 -30t-40.5 -66q0 -14 6 -26v-103q0 -23 27 -41q18 -12 50 -12q9 0 25 2h24q21 0 31 -9t17 -41q6 -30 0 -37q-73 -5 -145 -8q-29 -9 -29 -91v-179q0 -6 31.5 -41t31.5 -62q0 -8 -3 -17t-25 -18h-60
q-2 0 -35.5 7t-47.5 8q-7 0 -24.5 -2t-24.5 -2q-15 0 -21 28q-6 32 16 71q20 31 21 48q-1 -6 -1 57v81q0 42 -3 51q-23 37 -45 76q-5 8 -2 36q2 9 30 65q12 22 17 63q6 54 16 97q33 116 131 186q15 2 43 14q65 42 126 42q36 0 73 -15t37 -65z" />
    <glyph glyph-name="g" unicode="g" horiz-adv-x="525" 
d="M588 510q46 -2 46 -39q0 -23 -17 -42.5t-41 -19.5q-11 0 -23 6h-61q-26 -4 -39 -25q-11 -14 -11 -38q-1 -28 -3 -36q-30 -91 -78 -135q-30 -25 -54 -27q-48 -3 -52 -4q-38 -9 -38 -44q0 -25 18 -46q24 -26 53 -26q24 0 67 21q8 5 29 -6q31 -16 40 -19q15 0 41 -8
q37 -39 46 -54q15 -22 15 -61v-111q0 -38 -7 -48q-26 -26 -51 -50q-15 -3 -44 -10q-46 -15 -87 -47q-25 -21 -72 -21h-105q-58 18 -115 35q-68 30 -63 87q-2 -11 -3 60q0 45 12 60q19 22 73 49q42 21 42 41q0 13 -13 31q-20 6 -51 32q-8 12 -8 42q-1 30 8 51q30 25 30 48
q0 22 -29 42q-3 1 -28 55q-17 35 -17 74q0 97 96 175q11 14 29 29q60 18 84 18h105q1 0 26.5 -7.5t36.5 -9.5q30 2 90 -1q22 -14 67 -30q29 -8 56 9zM298 205q17 50 17 110q0 87 -38 139q-9 11 -28 8q-84 -17 -84 -114q0 -45 21 -78q55 -81 78 -84q7 -2 20 5.5t14 13.5z
M414 -182v60q1 20 -17 37t-36 19q-24 1 -64 7q-30 6 -41 5q-12 -3 -33.5 -26.5t-24.5 -23.5q-57 -13 -57 -49q0 -33 46.5 -79.5t79.5 -46.5q16 0 39.5 15t29.5 16q25 2 52 22t26 44z" />
    <glyph glyph-name="h" unicode="h" horiz-adv-x="613" 
d="M562 18q-10 -17 -51 -17h-3q-36 0 -49 -10q-21 -17 -48 -17q-35 0 -65.5 22.5t-33.5 43.5q-2 11 18 32q28 28 38.5 44.5t3.5 55.5v119q0 81 -8 99q-15 42 -82 42q-35 0 -84 -11q-32 -6 -32 -61q0 -14 3 -21v-116q2 -15 0 -45q-3 -9 -3 -18q0 -33 48 -60.5t48 -45.5
q0 -12 -13 -30q-5 -5 -14 -5q-25 -1 -70 -12q-68 -15 -93 -15q-41 0 -74 23q-9 4 -9 15q0 15 27 46q38 44 38 45q12 20 9 101q3 45 -5 108l-18 28q-10 18 -10 30q0 11 9 23q22 27 25 63q-1 -14 -1 57v121q9 83 -9 99q-41 38 -41 66q0 27 35 47q66 37 88 37q32 0 59 -39
q6 -28 6 -54q0 -49 -30 -124q0 -3 -5 -141q0 -8 10 -23t22 -16l37.5 6t76.5 6h85q15 0 78 -81q9 -47 26 -77q12 -19 12 -57v-94q0 -78 6 -87q15 -21 31 -42q18 -26 18 -42q0 -11 -6 -18z" />
    <glyph glyph-name="i" unicode="i" horiz-adv-x="342" 
d="M286 750q-12 -35 -25 -69q-20 -44 -50 -44q-9 0 -21 3q-1 2 -42 6q-27 2 -42.5 24.5t-15.5 49.5q0 34 26 65.5t65 42.5q26 7 69.5 -27.5t35.5 -50.5zM286 82q3 -12 -18 -45t-40 -33h-170q-22 -4 -36.5 12.5t-14.5 38.5q0 14 6 26.5t35.5 19.5t42.5 35q6 12 3 27
q-3 24 -3 21v117q0 48 -9.5 65.5t-74.5 69.5q-4 3 -18.5 37.5t-11.5 40.5q6 11 18 12q14 -1 38 0l54 12q39 9 66 9q58 0 87 -40q7 -12 6 -26q-2 -12 -5 -25v-297q0 -17 20.5 -38t24.5 -39z" />
    <glyph glyph-name="j" unicode="j" horiz-adv-x="342" 
d="M165 669q-9 -6 -26 -15q-36 -3 -57.5 22.5t-21.5 61.5q0 76 70 90q36 6 60 -21t24 -63q0 -56 -49 -75zM264 66q0 -41 -7.5 -51.5t-10.5 -43.5q-2 -85 -12 -184q-20 -27 -60 -83q-21 -15 -72 -52q-24 -26 -81 -77q-21 -16 -45 -6q-38 15 -38 41q0 27 56 88q9 27 34 77
q24 33 33 102q8 58 2 93v133q0 38 1 42q6 12 11 23q1 3 5.5 9.5t4.5 12.5q0 9 -11 45t-11 54v92q0 16 -25 42.5t-25 45.5q0 23 17.5 41.5t41.5 20.5q18 12 61 31q18 5 54 3q39 -1 47 -13q24 -38 26 -59t4 -40v-387z" />
    <glyph glyph-name="k" unicode="k" horiz-adv-x="609" 
d="M426 166q6 -9 21 -13.5t15 -10.5l3 -33q3 -6 39 -27q13 -6 28 -14t18 -22q3 -21 -15.5 -41t-44.5 -23h-84q-21 0 -34 9q-29 18 -32 21q3 19 0 43q-33 32 -33 42q0 3 8.5 14.5t8.5 29.5l-54 76q-6 9 -15 14.5t-20 8.5q-12 -8 -25 -14q-3 2 -5 3q-3 0 -1 -10q-2 -5 -3 -9
q-5 -29 -11 -56q-1 -22 6 -39q21 -10 45 -42q3 -28 -20 -50.5t-50 -22.5h-60q-8 0 -40 -6t-53 -6q-14 1 -15 30q-2 27 6 37q22 30 45 60q1 3 1 44v222q0 4 -10.5 47.5t-10.5 88.5v188q11 39 -24 70q-10 11 -10 26q0 27 33 55.5t63 28.5q9 0 18 -4.5t45 -12.5q16 -3 16 -28
q0 -23 -9 -83q-3 -13 3 -61q8 -71 9 -174q-1 -5 -1 -11q0 -12 10.5 -48.5t7.5 -51.5q-15 -60 10 -102q14 4 29 3q3 1 11 18.5t22 18.5q18 29 19 41q-1 25 -16 41t-15 23q0 5 3 14q9 24 46 25q32 2 62 2q3 0 36 15t51 15q9 0 15 -3q16 -14 16 -35q0 -19 -13 -33
q-26 -28 -51 -57q-18 -21 -20 -39q-3 -22 -21.5 -38.5t-36.5 -33.5q7 -12 18 -27q7 -1 31 -25q-1 4 -1 6v0q21 -39 36 -74z" />
    <glyph glyph-name="l" unicode="l" horiz-adv-x="340" 
d="M186 -2h-90q-41 0 -57.5 7.5t-40.5 43.5q-3 5 1.5 16t10.5 16q41 33 56 64q6 9 13 26q2 18 2 85v426v51q-3 9 -45 77q-9 13 -5 37q9 36 35 41q33 0 100 3q26 3 41 -15t13 -44l-9 -169q0 -137 3 -57q-1 -39 -22 -83q-3 -7 4 -33q11 -36 12 -43q-1 -30 3 -80
q2 -9 -10 -31.5t-12 -32.5q-8 -131 -8 -111q0 -50 12 -80q5 -7 41 -32.5t36 -45.5q0 -10 -10.5 -23t-73.5 -13z" />
    <glyph glyph-name="m" unicode="m" horiz-adv-x="894" 
d="M804 169q-5 -34 -2 -49q2 -8 11 -34t9 -40q0 -22 -20 -36q-37 -28 -126 -28q-22 0 -36 4q-27 6 -27 51q0 15 6 23q23 24 51 61q5 12 8 45q-8 23 -9 63q18 51 18 80q0 37 -30 72q-12 15 -35 15q-16 0 -42 -11q-18 -7 -37 -15q-51 -18 -51 -69q0 -12 3 -24v-111
q-3 -10 -3 -22q0 -29 27.5 -71.5t29.5 -60.5q0 -26 -72 -26q-5 0 -26.5 -3t-36.5 -3q-50 0 -86 27q-21 17 -21 42q0 35 39 69q6 6 6 24q0 24 2 29v174q12 78 -80 78q-36 0 -63 -11q-12 -4 -31.5 -28t-22.5 -41q-6 -25 -6 -46v-128q2 -18 6 -51q42 -22 42 -67q0 -51 -45 -51
q-9 0 -18 3t-33 -7t-40 -8q-23 3 -41 24t-15 40q3 18 29 66q3 20 7 53v178q6 17 -10.5 45.5t-16.5 37.5q0 21 27 58q38 56 59 56q18 0 43.5 -23.5t31.5 -26.5q18 5 52 9q23 0 56.5 14.5t48.5 14.5q24 0 76.5 -37t81.5 -37q30 0 55 29q12 1 36 10q48 32 71 32q21 0 42 -18
q18 0 46 -14q24 -28 38 -67q3 -6 -7.5 -22.5t-13.5 -25.5q-2 -9 16 -27q24 -24 28.5 -31.5t3.5 -21.5q-3 -21 -3 -19v-116z" />
    <glyph glyph-name="n" unicode="n" horiz-adv-x="615" 
d="M544 34q-30 -63 -120 -63q-24 0 -49 6q-42 9 -42 59q0 28 19 51q5 12 14 34q18 26 39 72q6 113 -6 150q-6 21 -35 38l-48 24q-28 18 -45 7q-25 -16 -51 -31q-36 -29 -37 -53v-151q0 -74 40 -110q15 -15 14 -27q-9 -70 -102 -70q-24 0 -59 4q-42 6 -46 6q-9 2 -15 20
t-2 27q2 1 29 37q19 27 19 44v208q0 36 -9.5 49t-9.5 34q0 43 33.5 87.5t66.5 44.5q20 0 44.5 -31.5t45.5 -31.5q20 0 35 25q7 12 70 18q11 -3 36 0q9 2 17 2q48 0 82 -68q30 -60 21 -91v-185q0 -25 28 -75.5t23 -59.5z" />
    <glyph glyph-name="o" unicode="o" horiz-adv-x="589" 
d="M510 205q-2 -9 -18 -45q-12 -7 -23 -15q-15 -12 -18 -30q-9 -33 -31 -52q-41 -33 -47 -41q-1 0 -37 -4q-29 -2 -81 -9q-68 -20 -125 -2q-9 3 -63 38q-21 6 -55 19q-21 14 -8 56q0 3 6 52v117q-4 11 -4 21q0 27 39 78q4 17 24 48q19 21 58 54q18 12 48 17q42 6 50 7
q19 8 37 15q26 11 44 11q24 0 42 -17q19 -10 51 -33q16 -16 51 -54q3 -13 13 -34q56 -68 47 -197zM372 205v102q3 30 -33 72q-32 38 -62 53q-13 7 -28 7q-47 0 -85 -57t-38 -106q0 -12 3 -21q6 -15 12 -35q1 -34 39.5 -77t75.5 -43q23 0 39 17q24 18 50 36q30 24 27 52z" />
    <glyph glyph-name="p" unicode="p" horiz-adv-x="556" 
d="M492 225q0 -119 -122 -156q-13 -2 -34 -5q-38 -21 -114 -52q-15 1 -45 -3q-33 -21 -33 -68q0 -30 15 -52q18 -27 19 -62q5 -48 9 -60q5 -16 29.5 -26.5t31.5 -22t7 -24.5q0 -60 -77 -60q-33 0 -105 16q-27 -1 -88 5q-14 1 -20 19q-4 17 0 27q8 20 35.5 32.5t35.5 27.5
q16 38 9 95v66v43q-3 14 -32 71q-12 24 -1 37q37 54 37 120q0 14 -2 41.5t-2 42.5q0 6 -12 28t-15 28q0 16 -6 48q-20 69 -20 81t5 24q7 21 33 24q39 6 40 7q15 8 42 18q11 3 50 -18q4 -3 52 -3h57q80 0 107 -7.5t57 -50.5q40 -59 43 -65q14 -25 14 -58v-108zM370 342
q-1 13 -21 28q-13 9 -25 18q-6 14 -32 50q-16 16 -72 16q-49 0 -61 -16q-17 -21 -9 -102v-62q-8 -67 3.5 -95t40 -52t56.5 -25q21 0 65 37q33 29 46 44q18 24 18 76q0 24 -9 83z" />
    <glyph glyph-name="q" unicode="q" horiz-adv-x="583" 
d="M558 -279q16 -27 16 -45q0 -38 -96 -38h-141q6 0 -19 -4q-12 -2 -50 9q-21 4 -21 37q0 15 7.5 23.5t49.5 24.5q36 15 39 35q-3 15 8 48q27 42 19 69q-1 1 -10 18q-8 12 -8 19q2 68 -40 83q-12 3 -44 -8q-37 -12 -49 -12q-27 0 -114 24q-9 3 -20 21q-7 14 -15 27
q-30 44 -31 45q-23 36 -26 65q-10 18 -30 55q-3 8 -3 18q0 38 35 90q7 11 19 51q0 20 15 54q18 20 54 50q15 0 44 6q19 15 58 45q6 3 68 4h100q23 0 41 6q13 5 27 9q34 8 42 -24q18 -66 -6 -124q-9 -21 -9 -42q0 -20 9.5 -52t11.5 -49q0 -22 -7.5 -70t-7.5 -59q3 -39 9 -57
q4 -12 4 -45v-186q0 -100 24 -106q20 -2 47 -15zM346 270q3 37 -4 103q-8 20 -43 44t-56 22q-30 -3 -72 -48t-47 -73q-10 -56 0 -101q11 -43 68.5 -98.5t96.5 -48.5q38 5 64 38t26 72q0 21 -9.5 39.5t-23.5 50.5z" />
    <glyph glyph-name="r" unicode="r" horiz-adv-x="421" 
d="M331 397q-34 2 -100 -6q-36 -10 -36 -66q0 -15 3 -24v-108q0 -51 3 -55q9 -20 64 -41q17 -6 39.5 -27t22.5 -34q0 -21 -26.5 -40.5t-50.5 -19.5q-9 0 -15 4h-169q-11 -3 -18 -3q-44 0 -44 54q0 26 11 63q15 27 36 71q12 34 7 130q-1 35 -12 53q-37 54 -37 100q0 21 6 53
q36 21 69 48q16 13 39 18q21 3 45 -9q37 -20 45 -23q33 3 105 -4q21 -5 42.5 -30.5t21.5 -50.5q0 -44 -51 -53z" />
    <glyph glyph-name="s" unicode="s" horiz-adv-x="394" 
d="M558 742q-11 -1 -22 5t-11 13q0 8 15 11q31 6 31 -15q0 -9 -13 -14zM321 247q31 -39 31 -78q0 -37 -57 -132q-1 -3 -28 -25q-9 -14 -33 -32q-17 -4 -33 -10q-26 -8 -45 -8q-47 0 -77 41q-16 1 -46 7q-30 14 -27 32q1 10 1 22q0 15 -3.5 36t-3.5 29q0 22 28 39
q18 10 71 -39q30 -29 72 -29q9 0 13 3q24 18 24 38q0 27 -55 57q-36 19 -72 37q-27 35 -50 56q-12 18 -37 55q-2 3 7 18q14 21 15 26q9 24 3 58q-1 9 -9 39q-6 24 -6 38q0 25 21 39q8 4 29 -12q27 -21 34.5 -24t16.5 -3q18 0 48 13q36 18 45 20q15 1 48 4q10 3 21 3
q39 0 61.5 -29t22.5 -68q0 -78 -69 -89q-3 0 -42 41q-26 25 -53 15q-30 -12 -30 -33q0 -32 49 -65.5t74 -26.5q12 3 27 -22q2 -15 14 -41z" />
    <glyph glyph-name="t" unicode="t" horiz-adv-x="403" 
d="M381 472q3 -10 -24 -34q-20 -18 -27 -23q-17 -12 -30 -13h-77q-43 0 -43 -75v-125q0 -43 27 -57q13 -7 61 -10q42 -3 59.5 -17.5t17.5 -39.5q0 -75 -39 -86q-14 -3 -27 -3h-80q-24 2 -57 19t-66 35q-12 6 -21 59q0 16 -3 49l-9 35q-6 24 -1 36q4 10 12 33q3 9 -6 33
t-6 34q9 26 9 48q0 47 -39 89q-9 10 -9 30q0 21 9 33q18 25 105 105q7 6 16 6q27 0 51 -53q20 -45 99.5 -49.5t97.5 -58.5z" />
    <glyph glyph-name="u" unicode="u" horiz-adv-x="540" 
d="M484 37q-1 -16 -15 -27q-15 -3 -40 -7q-20 -12 -59 -27q-10 -3 -36.5 10.5t-38.5 13.5h-60q-10 0 -30 -12q-24 -15 -30 -18q-37 -15 -55 0q-57 45 -60 48q-29 27 -29 49q0 3 -15 28.5t-19 36.5q-5 13 12 46q21 42 24 57q13 89 -3 150q-20 26 -42 74q-14 87 43 93h59
q45 0 49 -78q3 -65 2 -188q-2 -63 8 -77t19 -37q1 -31 23.5 -50.5t51.5 -19.5q46 0 66 43v89l15.5 30t15.5 52q0 9 -1 17q-2 3 -18 25q-14 18 -12 32q12 73 -87 81q-6 0 -12 7.5t-6 10.5q4 33 40 49q32 17 68 12q15 -1 40 8q32 12 39 13q20 3 30 0q32 -9 32 -49
q0 -11 -2 -20v-268v-41q3 -13 27 -75q9 -22 6 -81z" />
    <glyph glyph-name="v" unicode="v" horiz-adv-x="607" 
d="M567 441q-6 -18 -51 -53q-54 -40 -69 -60q-8 -24 -81 -246q-2 -6 -15.5 -23t-16.5 -45.5t-10 -39.5q-20 -28 -38 -28q-25 0 -46 70q-15 50 -30 99q-2 2 -23 65q-9 28 -40 46q-18 9 -38 18q-22 15 -27 36q3 18 -3 71q-4 18 -47.5 45t-45.5 43q-1 48 114 92q20 9 57 9
q47 0 81 -20q24 -12 24 -33q0 -13 -19.5 -47t-19.5 -52t14 -31q3 -3 19 -27q3 -17 14 -50q10 -25 36 -25q25 0 39 27q3 15 13 48q21 40 17 54q-14 18 -27 34q-23 30 -21 53q1 30 25 49q11 9 26 9q13 0 41.5 -11t40.5 -11q108 -2 108 -53q0 -6 -1 -13z" />
    <glyph glyph-name="w" unicode="w" horiz-adv-x="802" 
d="M724 670q-15 0 -26 13.5t-11 30.5q0 22 24 27q31 6 31 -32q0 -28 -18 -39zM607 631q12 -1 12 -7q0 -11 -10 -11q-6 0 -9 6q-3 5 7 12zM708 142q15 0 15 -9t-11 -13q-10 -5 -19 6q1 15 15 16zM316 183q3 -14 -25 -63q-30 -8 -30 -35q0 -6 2 -23t2 -26q0 -21 -9 -36
q-6 -8 -15 -5q-15 2 -60 26q-9 7 -13 25q-5 27 -6 29q-18 43 -20 66q2 21 2 40q0 11 -21 29q-27 21 -33 30q-2 18 -6 46q-6 38 -29 107q-25 22 -58 60q-11 28 -11 63q0 28 12 40q11 0 27.5 -6.5t23.5 -8.5q33 5 98 3q12 -3 37.5 -18t28.5 -24q3 -12 -13.5 -34.5t-18.5 -28.5
q-6 -58 0 -96q12 -16 35 -55q4 -17 22 -45q2 24 21 27q12 3 18 -5q5 27 18 77q12 15 30 43q6 14 -9 32q-21 30 -22 33q-17 34 -3 51q4 9 10 21q0 6 3 6t10 -4.5t11 -4.5q3 1 5 3q10 0 14.5 7.5t12.5 7.5q33 4 99 1q10 -3 36.5 -18t27.5 -24q3 -12 -13.5 -33.5t-16.5 -27.5
q-7 -60 0 -96q11 -18 33 -56q6 -15 11 -28q10 -21 22 -21q24 0 35 42l12 60q13 15 31 43q5 14 -9 33q-22 30 -24 32q-15 34 -3 51q24 30 66 30q20 0 54.5 -7.5t44.5 -7.5q18 0 18 -20q0 -10 -12 -25t-22 -27l-12 -41q-18 -21 -48 -63q0 -16 -6 -42q-21 -30 -40.5 -60
t-15.5 -54q2 -9 14 -24.5t12 -21.5q0 -3 -2 -6q-37 -11 -54 -54q-27 -72 -31.5 -78t-13.5 -3q-16 1 -60 25q-9 6 -13 26l-6 27q-20 45 -21 66q1 21 3 42q-2 9 -23 27q-25 21 -31 30q-3 18 -8 46q-1 11 -8.5 9.5t-10.5 8.5q-20 -30 -40 -60.5t-16 -54.5z" />
    <glyph glyph-name="x" unicode="x" horiz-adv-x="528" 
d="M502 19q-7 -22 -26.5 -25t-37.5 -5h-107q-25 0 -42.5 3t-48.5 12q-15 6 -33 6q-21 0 -58.5 -10.5t-48.5 -10.5h-66q-34 15 -34 36q0 44 88 86q11 4 20 25t13 26q50 51 50 87q0 13 -6 37q-14 15 -38 42q-7 18 -24 50q-3 4 -58 54q-44 40 -44 66q0 22 30 39q3 3 57 6
q71 4 91 -6.5t25.5 -63t30.5 -58.5q26 -7 33 20q2 24 5 46q15 21 49 26q29 3 57 6q11 3 28 14t25 11q7 0 13 -6q26 -22 26 -48q0 -36 -74.5 -108t-74.5 -112q0 -44 59 -105q51 -51 99 -77q13 -7 19 -28t3 -35zM252 88q21 8 21 29q0 16 -10.5 29.5t-24.5 13.5q-31 0 -31 -36
q0 -40 31 -40q6 0 14 4z" />
    <glyph glyph-name="y" unicode="y" horiz-adv-x="504" 
d="M426 435q-2 -20 -6 -53q-3 -16 -9 -30q-21 -25 -44 -78q-1 -43 -27 -105q-33 -75 -37 -96q-15 -64 -31 -64t-35.5 -13t-19.5 -26q0 -6 5 -12q25 -26 25 -56q0 -31 -44 -94t-46 -93q0 -11 -15.5 -23.5t-26.5 -11.5h-75q-46 14 -46 63q0 51 43 74q14 0 45 4q45 15 60 68
q35 114 29 165q-2 25 -24 63q-32 57 -33 58q-6 29 -24 81q-11 32 -39 108q-24 26 -54 78q-15 63 28.5 69t71.5 6q108 0 108 -61q0 7 -13 -75q0 -6 12 -53q0 -18 3 -51q6 -18 15.5 -27t24.5 -9q42 0 56 36q-2 17 4 51q15 41 15 62q0 30 -28 70q-12 18 -11 24q8 18 17 20
q84 10 90 10q57 0 57 -31q0 -18 -21 -48z" />
    <glyph glyph-name="z" unicode="z" horiz-adv-x="517" 
d="M450 103q0 -21 -24 -46q-9 -14 -33 -41q-8 -6 -24 -6q-24 2 -27 2q-9 -2 -31 -8.5t-23 -6.5h-260q-28 25 -28 63q0 55 57 123q4 15 21 45q28 25 85 88q23 24 11 60q-12 38 -54 38q-18 0 -33 -9q-3 -2 -30 -30q-21 -21 -35 -15q-27 12 -24 30q-1 34 3 100q3 26 21 47
q3 4 9 4q9 0 28 -10.5t23 -10.5q32 -1 95 -6q27 -1 64.5 9.5t44.5 8.5q14 -61 44 -61q4 0 10 1q9 14 19.5 28t24.5 14q37 -1 37 -37q0 -35 -27 -86q-9 -19 -52 -64q-102 -74 -102 -156q0 -26 13 -50q5 -9 30 -13q24 12 80 72q42 46 79 42q2 -2 8 -24v-95z" />
    <glyph glyph-name="bar" unicode="|" horiz-adv-x="238" 
d="M130 105q29 -66 29 -146q0 -75 -26 -157q-10 1 -29.5 -6.5t-25.5 -7.5q-20 0 -29 30q-21 68 -21 249q0 137 14 366q13 246 13 266q2 15 -13 66.5t-15 66.5q0 9 3 14q21 34 28 112q6 59 59 99q36 5 36 -43q0 -20 -7 -53t-7 -36q2 -4 12 -39q8 -24 8 -40q0 -11 -2 -20
q-13 -49 -13 -66q0 -10 9 -27q9 -21 15 -49q3 -14 -3 -35q-8 -28 -9 -34q-3 -35 -2 -197q0 -163 6 -195q3 -28 -10 -61q-18 -42 -20 -57z" />
    <glyph glyph-name="uni00A0" unicode="&#xa0;" horiz-adv-x="150" 
 />
    <glyph glyph-name="exclamdown" unicode="&#xa1;" horiz-adv-x="390" 
d="M255 769q0 -24 -22.5 -55.5t-46.5 -31.5q-30 0 -41 3q-16 9 -42 33q-7 0 -12.5 4t-12.5 2l-11 41q0 16 15 36q21 31 23 34q0 15 21.5 31.5t38.5 16.5q13 0 22 -12l18 -24q15 -12 32.5 -27t17.5 -51zM231 60q0 -12 -14 -42q-51 -12 -57 -12q-46 0 -109 45q-35 -29 -35 -14
q0 -7 5 29q-26 31 3 31q10 0 30 -10q9 42 18 85q10 53 10 86q0 9 -3.5 27.5t-3.5 29.5q0 258 66 282q13 0 25 1q15 0 20 -18q-29 -6 -29 -21q0 -7 6 -16q14 -8 20 -5q9 3 7 23q17 -30 17 -44q0 -43 4.5 -129.5t4.5 -131.5q0 -34 7.5 -99.5t7.5 -96.5z" />
    <glyph glyph-name="cent" unicode="&#xa2;" horiz-adv-x="457" 
d="M141 174q15 -17 27 -17q16 0 12 20q6 39 1 93q3 79 -28 79q-8 0 -17 -6q-27 -54 -27 -82q0 -18 11 -39q18 -39 21 -48zM243 145q13 -30 43 -30q20 0 64 18t59 18t23 -9q0 -4 -11 -24q-18 -7 -29 -38t-32 -31.5t-66 -8.5q-11 -6 -30 -13l-21 -30q-8 -6 -18 -21
q-17 6 -31 12t-29 40q-15 8 -50 20q-87 70 -100 103q-9 21 -12 135q0 3 -5 17q-3 9 0 15q33 66 50 88q12 15 46 39q12 8 31 11t28 6l16 15q5 6 5 12q0 7 -15 20t-15 17q0 12 76 17q11 1 18.5 -13t5.5 -23q-3 -11 -7 -12l6 -17q27 5 49 5q54 0 85.5 -22.5t31.5 -51.5
q0 -37 -48 -51q-19 -6 -37 24t-42 27q3 -4 -13 -11.5t-14.5 -13t-4.5 -10.5t-6 -10q-1 -9 3 -34q9 -44 -6 -116q-3 -10 1 -26t4 -23q0 -9 -3 -20z" />
    <glyph glyph-name="sterling" unicode="&#xa3;" horiz-adv-x="660" 
d="M340 334h-66q-49 8 -49 -133q0 -50 4.5 -60.5t31.5 -22.5t33 -18q13 -3 24 -3q13 0 31 9t35 9l63 -6q36 -3 43 33q9 42 25 47.5t50 2.5q38 -3 48 -14q5 -4 5 -10q0 -9 -15 -28t-17 -25q-3 -12 2 -33q3 -25 3 -33q0 -54 -60 -54q-14 0 -48 6l-341 53q-12 3 -34.5 -14.5
t-35.5 -15.5l-17 -8q-15 -3 -27 -3q-31 0 -31 24q0 11 6.5 32.5t6.5 27.5q5 21 8.5 22t12.5 16q3 9 36 19l47 54q22 114 15 117l-35 14q-39 -20 -79 -3q-32 21 -14 37q41 41 59 41q10 0 25 -24l23 1q25 9 25 32q0 22 -31 22h-30q-12 -13 -23 -13q-10 0 -18 13q-4 8 -10 23
q-2 9 -3 3q3 36 37 36q18 0 39 -9q14 -3 23 -3q13 0 18.5 12.5t10.5 25.5t5 31q0 12 6 21q12 19 60 135q3 7 56.5 53t66.5 55q29 16 78 -5q32 -13 71 -15q67 -1 67 -78q0 -48 -27 -78q-16 -16 -28 -16q-17 0 -35 37q-24 48 -34 57q0 2 -8 21q-6 14 -22 14q-12 0 -30 -5
q-66 -18 -81 -124q-9 -18 -21 -53q-6 -19 -5 -49q3 -39 38 -39q6 0 33 3q22 1 37 0q9 3 17 3q51 0 51 -29q0 -22 -48 -28h-95q-46 4 -46 -14q0 -7 12 -19q21 -20 21 -21h79q41 0 41 -29q0 -33 -65 -27z" />
    <glyph glyph-name="currency" unicode="&#xa4;" horiz-adv-x="828" 
d="M556 282q8 0 -26.5 2t-72.5 2q-126 0 -133 -28q-27 -2 -27 -36q0 -50 45 -101q51 -58 114 -55q28 -3 73 0q33 10 33 3q24 24 71 60q10 4 22 19q0 6 5 15q16 35 30 35q28 0 36 -95l3 -21q-26 -88 -201 -88q-23 0 -56.5 1.5t-41.5 1.5q-42 0 -33 0q-25 13 -60 30
q-24 1 -63 16q-37 27 -73 54q-42 35 -48 75q-2 15 -15 42q-9 23 -6 47l-54 22q-17 -19 -35 -19t-30 16.5t-12 32.5q0 6 2 11q15 22 30 45.5t25 23.5q14 0 26 -27l24 -6q25 13 25 37q0 18 -16 41h-18q-11 -2 -21 -2q-45 0 -45 39q1 32 46 39q11 2 60 2q3 24 65 136
q27 47 58.5 59.5t62.5 26.5q35 28 122 78q52 21 121 21q105 0 164 -42q12 -9 36.5 -13t33.5 -10q18 -9 12 -30q-6 -30 -21 -39q-36 -21 -40 -24q-32 -28 -83 -28q-13 0 -16 6q0 1 -18 70q-11 39 -42 39q-9 0 -18 -3q-60 14 -80 14q-46 0 -84 -63q-4 -8 -38.5 -24.5
t-36.5 -19.5q-40 -54 -40 -103q0 -45 37 -53l119 2q28 10 70 10q90 0 90 -36q0 -22 -49 -52l-248 3q-39 -11 -39 -50q0 -27 30 -30l140 -1q159 -5 159 -32q0 -18 -50 -46z" />
    <glyph glyph-name="section" unicode="&#xa7;" horiz-adv-x="720" 
d="M396 189q12 0 27 7q21 12 51 6q9 -10 19 -10q30 0 57 37q9 12 8 29q-3 13 -5 28q3 14 3 44q-4 19 -30 30q-37 13 -40 16q-23 32 -75 84q-18 11 -43.5 47.5t-33.5 42.5q-42 35 -94 84q-21 3 -35 3q-58 0 -61 -66q0 -7 6 -23.5t6 -24.5q0 -6 -3 -12.5t-26.5 -18
t-21.5 -24.5q1 -21 43 -60q50 -41 98 -80q102 -85 103 -81q9 -9 47 -58zM381 660q31 -32 36 -32q31 -3 66 -48q40 -54 45 -57q18 -1 52 -16q11 -9 17 -27q10 -24 12 -29q6 -10 30.5 -29t29.5 -34q1 -4 -5.5 -17.5t-6.5 -18.5q-9 -28 -6 -60q1 -6 18.5 -29t15.5 -37
q-3 -22 -24.5 -40t-38.5 -21q-9 -3 -28 -23q-21 -24 -32 -28q-15 -9 -60 -20h-4q6 -10 30 -29.5t28 -33.5q2 -6 -3 -16q-7 -15 -9 -20q-7 -28 -4 -60q0 -7 18 -29.5t16 -37.5q-3 -23 -24.5 -40t-38.5 -22q-10 -1 -28 -22q-23 -23 -31 -27.5t-61 -19.5q-40 -1 -97 -9
q-6 -1 -27 2q-26 3 -24 3l-42 4q-9 0 -9 9q0 5 4 17q2 10 0 10q-13 3 -40 12q-42 20 -57 43t-14 77q2 65 -1 81q-3 12 -31 44.5t-26 48.5q3 12 15 12q4 0 60 -25q24 -8 46 -17q39 -16 59 -42q9 -12 28 -103q15 -72 48 -72q12 0 31 9t49 3q9 -11 19 -11q30 0 57 39q9 11 6 27
q-1 15 -4 29q4 15 4 43q-10 47 -60 87q-24 6 -75 36q-4 2 -6 5q-25 19 -46 48q-36 21 -47 39q-7 10 -10 25q-141 122 -177 174q-15 23 -15 65v78q0 40 3 43q45 65 90 131q13 16 54 15q-36 40 -36 90v78q0 40 3 43q34 47 76 111q20 30 32 33q4 2 52 2h66q59 0 75 -3
q47 -11 50 -53l-3 -25q-3 -15 6.5 -28t30.5 -13q27 0 33 -4q18 -8 20 -30q-2 -27 3 -149q-12 -12 -21 -12q-12 0 -25.5 28t-19.5 31q-17 -5 -27 -30q-14 -30 -26 -38q-28 8 -29.5 33.5t-3.5 49.5v60q5 37 -29 65.5t-71 28.5q-54 0 -56 -57q-1 -7 5 -23.5t6 -24.5
q0 -6 -3 -12t-26.5 -18t-21.5 -25q3 -23 48 -65q3 -4 66 -52q57 -44 51 -48z" />
    <glyph glyph-name="dieresis" unicode="&#xa8;" horiz-adv-x="508" 
d="M549 790q4 -19 -21 -55q-27 -41 -53 -39q-42 0 -48 1q-48 9 -48 56q0 33 26.5 70.5t57.5 37.5q27 0 53.5 -21t32.5 -50zM246 663q-23 -23 -63 -23q-27 0 -42 10t-32 35q-22 32 -31 41q-33 -14 -38 -14q-15 0 -16 21q6 11 16 11q12 0 33 -17q21 24 44 47q27 28 61 31
q53 2 66 -21q18 -31 18 -70q0 -33 -16 -51z" />
    <glyph glyph-name="guillemotleft" unicode="&#xab;" horiz-adv-x="504" 
d="M192 105q-2 -27 -24 -27q-14 0 -32 13q-28 33 -112 152q-6 7 -6 24q0 55 36 117q42 73 96 73q27 0 55 -19q2 -5 2 -11q0 -13 -45 -64t-45 -102q0 -68 75 -156zM387 79q-2 -27 -24 -27q-15 0 -33 14q-27 33 -111 151q-6 8 -6 24q0 54 36 117q40 72 96 72q27 0 55 -18
q2 -6 2 -10q0 -14 -45 -65.5t-45 -101.5q0 -69 75 -156z" />
    <glyph glyph-name="macron" unicode="&#xaf;" horiz-adv-x="600" 
d="M520 693h-466q1 10 -3.5 23.5t-7.5 25.5q-3 14 28.5 35t46.5 21h297q144 0 144 -44q0 -24 -39 -61z" />
    <glyph glyph-name="degree" unicode="&#xb0;" horiz-adv-x="414" 
d="M381 484q6 -24 -3 -34q-23 -30 -71 -77q-9 -3 -27 -7q-10 -5 -31 -11t-45 -6q-57 0 -120 29q-5 3 -42 57q-6 7 -14 21l2 27v54q0 24 12 58q4 20 22 53q68 67 86 67h76q18 0 66 -31.5t56 -40.5q4 -13 18.5 -46t14.5 -60v-53zM286 490q11 33 0 63q-13 42 -39 42
q-4 0 -10 -4q-5 -3 -15.5 3t-17.5 12q-6 3 -17 -3q-15 -9 -18 -9q-7 -2 -17 -16t-16 -43q-7 -46 45 -93q12 -3 23 -3q30 0 58 24q23 18 24 27z" />
    <glyph glyph-name="uni00B2" unicode="&#xb2;" horiz-adv-x="490" 
d="M105 702q-11 0 -9 30q3 46 3 42q0 9 15 35t12 46q55 69 96 69h76q18 0 40.5 -13.5t45.5 -12.5q46 -54 46 -73q0 -63 -3 -75q-7 -51 -43 -54q-21 -23 -66 -60q-17 0 -37 -15t-20 -30q9 -6 27 -2q16 3 24 12q45 14 105 14q22 0 22 -42q0 -18 -5 -55t-4 -46q2 -19 -43 -21
q-33 2 -68 2q-147 -11 -222 1q-10 0 -52 42l1 24q29 38 82 77t73 66q4 6 25 7q17 2 21 23q5 27 -28 38t-36 8q-3 -16 -28 -26.5t-50 -10.5z" />
    <glyph glyph-name="uni00B3" unicode="&#xb3;" horiz-adv-x="453" 
d="M319 573q26 -36 26 -53q0 -18 -26 -55q0 -27 -61.5 -76t-100.5 -49q-15 0 -24 9q-67 0 -67 48q0 18 9 34t15 17q16 -10 34 -10q27 0 48 19.5t21 40.5q0 34 -24 60q-3 4 -13 30q-6 13 -32 18q-7 1 -7 4q0 2 7.5 14.5t7.5 24.5q0 48 9 57q22 5 48 18q33 17 33 30
q0 36 -17 42q-30 9 -37.5 16.5t-19.5 13.5q-40 -22 -58 -22t-18 19q0 42 16 57q6 6 15 31.5t17 27.5q19 10 40 21q29 13 50 13q37 0 102 -37q69 -42 73 -83q3 -15 -9 -48.5t-23 -41t-27.5 -32.5t-28.5 -28q-66 -21 -66 -34q0 -29 44 -50t44 -46z" />
    <glyph glyph-name="acute" unicode="&#xb4;" horiz-adv-x="477" 
d="M376 867q-1 -17 -24 -44q-25 -31 -30 -40q-6 -33 -22 -81q-30 -56 -44 -125q0 -6 -9.5 -12t-12.5 -4q-11 -3 -20 -3q-42 0 -42 61q0 21 9 71q12 19 27 58q-1 17 0 48q12 51 26 102q13 36 58 62q5 1 11 1q31 0 66 -42q12 -16 7 -52z" />
    <glyph glyph-name="paragraph" unicode="&#xb6;" horiz-adv-x="685" 
d="M378 -164q-39 -93 -197 -93q-18 0 -39 2q-36 4 -87 18q-57 15 -76 31q18 137 108 137q13 0 27 -5q28 -7 47 -36.5t44 -29.5q11 0 24 3q29 6 77 30q3 38 30 102q6 17 3 74q-3 58 0 70q15 54 -6 194q-2 12 1 37.5t3 34.5q0 34 -24 48q-7 4 -25 4l-20 -1q-36 6 -109 25
q-33 11 -74 23q-85 27 -85 166v107q0 34 12 58q4 8 43 66q30 44 57 51.5t107 7.5h58q48 0 51 1q41 23 51 20q87 -3 186 -11q0 -1 39 -7q27 -3 33 -24q5 -11 5 -17q0 -7 -10 -20t-14 -28q0 -3 -12 -3q-18 0 -84 10t-81 10q-14 0 -14 -24q0 -30 7 -103.5l7 -73.5
q0 -24 -10 -48t-10 -35q0 -22 26 -58q3 -6 0 -47q-3 -40 -6 -49q-27 -54 -27 -62q0 -1 2 -10t2 -24l29 -56q-3 -13 -16.5 -44.5t-13.5 -43.5q0 -5 2 -11.5t2 -11.5q0 -7 -6 -17t-6 -17q0 -8 3 -17q23 -58 23 -105q0 -15 -6 -15q-18 -3 -27 -90.5t-12 -89.5zM342 718v62
q6 81 -8.5 100.5t-35.5 19.5q-22 0 -40 -18q-9 -18 -30 -50q-3 -24 -8 -69q-4 -16 -10 -34q-9 -32 -9 -54q0 -30 13 -47q12 -28 24 -57q23 -51 42 -49q12 0 25 -2.5t16 -2.5q9 0 18 21q3 6 4 81q0 77 -1 99z" />
    <glyph glyph-name="periodcentered" unicode="&#xb7;" horiz-adv-x="405" 
d="M342 298q3 -6 3 -12q0 -12 -50 -123q-6 -16 -24 -22q-58 -20 -82 -17q-41 -1 -74 42q-25 45 -51 89q-4 9 21 40q33 42 84 47q21 12 68 30q27 7 63 -22t42 -52z" />
    <glyph glyph-name="cedilla" unicode="&#xb8;" horiz-adv-x="732" 
d="M387 -2q-26 -18 -42 -42q-5 -7 -5 -15q0 -22 68 -42q18 -6 30.5 -33.5t8.5 -45.5q-2 -2 -12 -24q-8 -17 -8 -27q0 -6 2 -11q4 -18 0 -27q-21 -40 -60 -67t-80 -27q-24 0 -43 10l-24 6q-17 5 -26.5 17.5t-35.5 33.5q-15 12 -12 21q5 12 20 12q9 0 36.5 -7.5t44.5 -7.5
q49 0 64 71q6 30 -56 43.5t-56 46.5q1 10 27.5 20t35.5 20q27 33 43 105q11 44 68 53q13 21 36 21q40 0 40 -36q0 -15 -14 -29.5t-50 -38.5z" />
    <glyph glyph-name="uni00B9" unicode="&#xb9;" horiz-adv-x="357" 
d="M87 669q4 7 31 43q-1 39 -12.5 39t-20.5 36t-28 45l1 33q20 18 39 35q15 10 54 10q38 0 78 -12q57 -15 57 -43q0 -9 -12.5 -18t-15.5 -14.5t-3 -57.5q-24 -20 -24 -36q0 -11 14 -29.5t13 -30.5q-5 -65 -5 -68q0 -49 19 -89t19 -43q0 -25 -12 -30.5t-36 -17.5
q-24 -18 -27 -18q-5 0 -17 10.5t-13.5 11.5t-71.5 11q-44 8 -44 50q0 15 9 39.5t11 35.5q3 21 0 54q-3 43 -3 54z" />
    <glyph glyph-name="guillemotright" unicode="&#xbb;" horiz-adv-x="487" 
d="M274 70q-16 5 -16 15q0 12 37.5 44.5t37.5 42.5q0 2 14 35t14 51q0 9 -4 15q-63 108 -63 142q0 27 24 32q15 3 25 3q29 0 33 -44q6 -55 38 -81q40 -30 40 -66q0 -69 -180 -189zM102 82q-17 6 -17 15q0 14 37.5 46t36.5 41q0 3 14 36t14 51q0 9 -3 15q-63 108 -63 143
q0 27 24 30q15 4 26 4q27 0 33 -45q4 -55 37 -79q41 -30 41 -68q0 -69 -180 -189z" />
    <glyph glyph-name="questiondown" unicode="&#xbf;" horiz-adv-x="516" 
d="M442 793q0 -15 -12 -25.5t-22.5 -19.5l-31.5 -27q-78 0 -82 2q-50 45 -50 73q0 23 18 53q12 21 40 38t52 17q27 0 64 -49q24 -32 24 -62zM415 642q0 -15 -9.5 -43.5t-6.5 -46.5q-8 -14 -113 -67t-130 -113q12 -65 7 -104q2 -3 33 -66q8 -4 38 -34q21 -21 51 -17
q21 -48 21 -87q0 -15 -32 -48q-13 6 -30 3q-25 -4 -28 -4q-11 0 -33.5 6.5t-32.5 8.5q-62 67 -84 111q-33 60 -33 133q0 21 12 63t12 62q0 63 22 82q9 33 32 48q12 9 52 23q26 9 69 19q39 -15 62 6q-26 29 -26 56q0 22 12 37l14 18l24 -15l30 6h48q19 -3 19 -37z" />
    <glyph glyph-name="Agrave" unicode="&#xc0;" horiz-adv-x="853" 
d="M799 55q0 -37 -33 -51q-18 0 -52 -1q-24 -3 -49.5 3t-51 9.5t-51.5 5.5q-46 4 -51 12q-9 15 -9 99v51q-6 39 -25 102q-18 30 -62 30q-15 0 -48 -6t-73.5 -40.5t-50.5 -75.5q-14 -51 -11 -60q14 -43 38 -63q7 -6 7 -24q0 -43 -30 -43h-73q-12 1 -38 9q-19 7 -28 7
q-14 0 -42.5 -9.5t-44.5 -9.5q-24 0 -44 18q-15 13 -15 33q0 22 19 44.5t46 28.5q7 2 26.5 19t28.5 35q30 62 47 102q13 21 37 66q11 54 27 140q15 22 32 67q1 32 3 62q1 9 16 30q24 36 29 67q7 48 18 74q12 33 49 81q45 57 71 57q30 0 57 -78l18 -78q9 -18 25 -56
q8 -36 24 -99q14 -25 35 -79q-2 -30 3 -87q3 -35 22 -96q23 -39 35 -79.5t40 -88.5q15 -27 56 -50q25 -13 49 -29t24 -49zM381 405q52 7 52 84q0 45 -21.5 81t-59.5 42q-18 -9 -16 -21q1 -18 -11 -64.5t-12 -66.5q0 -54 68 -55zM585 882q-3 -14 -13.5 -14.5t-18.5 -0.5
q-25 0 -53.5 36t-37.5 57q-14 33 -57 66q-38 28 -38 42q0 18 44 45q12 6 34 1q21 -4 30 -16q122 -132 110 -216z" />
    <glyph glyph-name="Aacute" unicode="&#xc1;" horiz-adv-x="853" 
d="M799 55q0 -37 -33 -51q-18 0 -52 -1q-24 -3 -49.5 3t-51 9.5t-51.5 5.5q-46 4 -51 12q-9 15 -9 99v51q-6 39 -25 102q-18 30 -62 30q-15 0 -48 -6t-73.5 -40.5t-50.5 -75.5q-14 -51 -11 -60q14 -43 38 -63q7 -6 7 -24q0 -43 -30 -43h-73q-12 1 -38 9q-19 7 -28 7
q-14 0 -42.5 -9.5t-44.5 -9.5q-24 0 -44 18q-15 13 -15 33q0 22 19 44.5t46 28.5q7 2 26.5 19t28.5 35q30 62 47 102q13 21 37 66q11 54 27 140q15 22 32 67q1 32 3 62q1 9 16 30q24 36 29 67q7 48 18 74q12 33 49 81q45 57 71 57q30 0 57 -78l18 -78q9 -18 25 -56
q8 -36 24 -99q14 -25 35 -79q-2 -30 3 -87q3 -35 22 -96q23 -39 35 -79.5t40 -88.5q15 -27 56 -50q25 -13 49 -29t24 -49zM381 405q52 7 52 84q0 45 -21.5 81t-59.5 42q-18 -9 -16 -21q1 -18 -11 -64.5t-12 -66.5q0 -54 68 -55zM364 1011q0 -11 -3 -11l-9 8q-6 6 -12 -6
q-6 -33 -22 -81q-30 -56 -44 -126q0 -5 -9.5 -11t-12.5 -4q-11 -3 -20 -3q-42 0 -42 61q0 21 9 71q12 19 27 58q-1 17 0 47q5 33 11 64q22 12 43 26q5 1 11 1q31 0 66 -43q12 -15 7 -51z" />
    <glyph glyph-name="Acircumflex" unicode="&#xc2;" horiz-adv-x="853" 
d="M799 55q0 -37 -33 -51q-18 0 -52 -1q-24 -3 -49.5 3t-51 9.5t-51.5 5.5q-46 4 -51 12q-9 15 -9 99v51q-6 39 -25 102q-18 30 -62 30q-15 0 -48 -6t-73.5 -40.5t-50.5 -75.5q-14 -51 -11 -60q14 -43 38 -63q7 -6 7 -24q0 -43 -30 -43h-73q-12 1 -38 9q-19 7 -28 7
q-14 0 -42.5 -9.5t-44.5 -9.5q-24 0 -44 18q-15 13 -15 33q0 22 19 44.5t46 28.5q7 2 26.5 19t28.5 35q30 62 47 102q13 21 37 66q11 54 27 140q15 22 32 67q1 32 3 62q1 9 16 30q24 36 29 67q7 48 18 74q12 33 49 81q45 57 71 57q30 0 57 -78l18 -78q9 -18 25 -56
q8 -36 24 -99q14 -25 35 -79q-2 -30 3 -87q3 -35 22 -96q23 -39 35 -79.5t40 -88.5q15 -27 56 -50q25 -13 49 -29t24 -49zM381 405q52 7 52 84q0 45 -21.5 81t-59.5 42q-18 -9 -16 -21q1 -18 -11 -64.5t-12 -66.5q0 -54 68 -55zM522 960q10 -24 16 -48q-33 -3 -45.5 12
t-23.5 33q-22 30 -55 73q-20 -3 -45 -13q-21 -26 -44 -59q-1 -13 -16 -27q-24 -19 -26 -24q-31 0 -31 12q0 5 30 47q12 10 30 33q0 10 4 28q17 36 86 90q9 2 22 -4q38 -6 69.5 -55.5t31.5 -84.5q0 -9 -3 -13z" />
    <glyph glyph-name="Atilde" unicode="&#xc3;" horiz-adv-x="853" 
d="M381 405q52 7 52 84q0 45 -21.5 81t-59.5 42q-18 -9 -16 -21q1 -18 -11 -64.5t-12 -66.5q0 -54 68 -55zM633 948q-5 -6 -60 -18q-15 -2 -27 -2q-30 0 -66 20.5t-54 20.5q-12 0 -26 -6q-22 -9 -19 -38q9 -3 19 -4q6 3 11 3q30 0 57 -78l18 -78q9 -18 25 -56q8 -36 24 -99
q14 -25 35 -79q-2 -30 3 -87q3 -35 22 -96q23 -39 35 -79.5t40 -88.5q15 -27 56 -50q25 -13 49 -29t24 -49q0 -37 -33 -51q-18 0 -52 -1q-24 -3 -49.5 3t-51 9.5t-51.5 5.5q-46 4 -51 12q-9 15 -9 99v51q-6 39 -25 102q-18 30 -62 30q-15 0 -48 -6t-73.5 -40.5t-50.5 -75.5
q-14 -51 -11 -60q14 -43 38 -63q7 -6 7 -24q0 -43 -30 -43h-73q-12 1 -38 9q-19 7 -28 7q-14 0 -42.5 -9.5t-44.5 -9.5q-24 0 -44 18q-15 13 -15 33q0 22 19 44.5t46 28.5q7 2 26.5 19t28.5 35q30 62 47 102q13 21 37 66q11 54 27 140q15 22 32 67q1 32 3 62q1 9 16 30
q24 36 29 67q7 48 17.5 75t48.5 68q4 18 7 42q-10 31 -7 40t3 17q0 15 -17.5 33t-18.5 28q0 6 15.5 18t18.5 17q11 15 20 31q15 18 39 20q57 -32 106 -29q23 -12 78 -19q23 3 41.5 30t29.5 27q16 0 29 -15t13 -33q0 -44 -63 -114z" />
    <glyph glyph-name="Adieresis" unicode="&#xc4;" horiz-adv-x="853" 
d="M799 55q0 -37 -33 -51q-18 0 -52 -1q-24 -3 -49.5 3t-51 9.5t-51.5 5.5q-46 4 -51 12q-9 15 -9 99v51q-6 39 -25 102q-18 30 -62 30q-15 0 -48 -6t-73.5 -40.5t-50.5 -75.5q-14 -51 -11 -60q14 -43 38 -63q7 -6 7 -24q0 -43 -30 -43h-73q-12 1 -38 9q-19 7 -28 7
q-14 0 -42.5 -9.5t-44.5 -9.5q-24 0 -44 18q-15 13 -15 33q0 22 19 44.5t46 28.5q7 2 26.5 19t28.5 35q30 62 47 102q13 21 37 66q11 54 27 140q15 22 32 67q1 32 3 62q1 9 16 30q24 36 29 67q7 48 18 74q12 33 49 81q45 57 71 57q30 0 57 -78l18 -78q9 -18 25 -56
q8 -36 24 -99q14 -25 35 -79q-2 -30 3 -87q3 -35 22 -96q23 -39 35 -79.5t40 -88.5q15 -27 56 -50q25 -13 49 -29t24 -49zM381 405q52 7 52 84q0 45 -21.5 81t-59.5 42q-18 -9 -16 -21q1 -18 -11 -64.5t-12 -66.5q0 -54 68 -55zM609 1030q4 -19 -21 -55q-27 -41 -53 -39
q-42 0 -48 1q-48 9 -48 56q0 33 26.5 70.5t57.5 37.5q27 0 53.5 -21t32.5 -50zM306 903q-23 -23 -63 -23q-27 0 -42 10t-32 35q-22 32 -31 41q-33 -14 -38 -14q-15 0 -16 21q6 11 16 11q12 0 33 -17q21 24 44 47q27 28 61 31q53 2 66 -21q18 -31 18 -70q0 -33 -16 -51z" />
    <glyph glyph-name="Aring" unicode="&#xc5;" horiz-adv-x="853" 
d="M366 699q9 6 9 16q0 21 -21 23q-9 -6 -9 -17q0 -9 7.5 -17t13.5 -5zM426 456q-3 13 -18 39.5t-50 26.5q-43 0 -48 -41v-55q0 -53 59 -53q33 0 54 23.5t3 59.5zM265 910q-10 26 -3 74v42q5 27 35 28q12 14 34 29q21 3 63 7q6 0 47.5 -12t57.5 -63q8 -42 15 -84
q-3 -7 -7 -21q-21 -42 -69 -55q-12 -11 -12 -23q0 -13 20 -33.5t22 -26.5q15 -24 33 -72q1 -31 13 -79q15 -29 32 -56q19 -39 22 -61q-3 -18 0 -51q14 -27 30 -77q5 -66 9 -85q17 -69 63 -110q8 -18 29 -40q31 -15 53.5 -45t22.5 -54q0 -39 -57 -32h-192q-28 0 -40 14
q-5 6 -5 13q0 11 14.5 31t16.5 27.5t2 15.5q0 7 -31 78q1 19 -6 52q-18 24 -39 27q1 0 -38 0h-78q-118 0 -118 -93q0 -18 3 -39q6 -25 44 -64t38 -59q0 -12 -12 -25q-3 -5 -36 -11h-45h-136q-45 0 -54 3q-23 9 -35.5 13.5t-12.5 16.5q0 8 6.5 23.5t8.5 21.5l63 57
q36 32 34 66q0 3 16 27t20 36q21 36 48 108q2 35 15 98q12 18 32 58q4 33 19 95q44 73 108 208q2 9 26 20q-8 27 -30 34q-42 11 -43.5 12.5t-15.5 35.5zM367 1000q-36 -1 -36 -31q0 -20 14.5 -38.5t32.5 -18.5q9 0 18 7q33 18 33 54q0 12 -6 20.5t-56 6.5z" />
    <glyph glyph-name="AE" unicode="&#xc6;" horiz-adv-x="1099" 
d="M804 633q-17 -5 -17 16q0 15 15 23q15 -2 15 -18q0 -15 -13 -21zM447 457q0 30 -3 74q-6 16 -15 16q-24 0 -32 -43l-48 -53q-13 -13 -13 -25q0 -30 49 -30q29 0 47.5 15.5t14.5 45.5zM615 819q22 7 45.5 15.5t57.5 8.5l156 -8q62 -1 62 -33v-16q-2 -12 -2 -18l-1 -62
q12 -48 -14 -60q-13 -7 -39 -3q-16 3 -26.5 22.5t-18.5 36.5q-12 24 -61 25l-81 5q-87 3 -87 -119q0 -18 1.5 -45t1.5 -33q1 -30 45 -70q9 -9 27 -9q27 0 57 13q13 6 35.5 8.5t33.5 9.5q13 17 45 48q12 11 19 3q30 -34 30 -48q0 -4 -3 -13t-4 -18l-2 -62q5 -15 5 -45
q-6 -13 -24 -18q-15 -4 -26 0q-13 15 -46 41q-17 10 -75 12l-57 3q-33 1 -48 -35q-9 -18 -9 -42q0 -16 16 -90v-37q2 -3 5 -8q3 -18 16 -43q9 -6 18 -14h6l146 -6q30 2 73 38q59 46 72 54q6 3 12 3q18 0 31.5 -22t13.5 -44q0 -15 -7 -24q-24 -20 -22.5 -48.5t-3.5 -35.5
q-24 -39 -85 -39q-30 0 -77 10q-34 8 -69 17q-7 0 -58 -20q-9 -3 -29 2q-16 -6 -40 -2l-96 9q-20 -1 -33 -6q-18 -9 -51 -21q-26 -6 -50.5 23.5t-17.5 48.5q6 17 15 20q41 15 60 49q0 3 -9 75q9 18 11 51q-11 26 -30 32q-20 1 -39 3l-78 6q-111 9 -131 -170q-3 -27 31 -55.5
t34 -40.5t-18 -25q-5 -5 -39 -8q-3 0 -45 3l-137 11q-45 4 -52 9q-20 10 -33 13q-8 6 -8 14q0 9 13.5 26t15.5 23q25 20 51 41q15 13 25 51q44 57 101 133q18 17 51 69q3 6 60 86q10 22 34 62.5t69 109.5q42 57 90 111q-7 6 -15 11q-13 7 -9 27q3 10 18 24q95 21 104 21
q33 6 60 3q34 -5 33 -24z" />
    <glyph glyph-name="Ccedilla" unicode="&#xc7;" horiz-adv-x="868" 
d="M360 -24q-20 -23 -20 -35q0 -22 68 -42q18 -6 30.5 -33.5t8.5 -45.5q-2 -2 -12 -24q-8 -17 -8 -27q0 -6 2 -11q4 -18 0 -27q-21 -40 -60 -67t-80 -27q-24 0 -43 10l-24 6q-17 5 -26.5 17.5t-35.5 33.5q-15 12 -12 21q5 12 20 12q9 0 36.5 -7.5t44.5 -7.5q49 0 64 71
q6 30 -56 43.5t-56 46.5q1 10 27.5 20t35.5 20q24 30 34 60q-24 12 -48 23q-28 1 -70 16q-17 15 -98 65q-40 25 -49 69q-12 21 -41 90q2 15 -3 45q-12 49 -12 88v89q0 67 9 87q47 94 48 99q17 9 44 31.5t42 30t30 13.5q18 19 57 51q25 18 75 43q39 15 63 17q82 3 198 0
q45 -2 97 -39q12 -8 39 -12q33 -6 42 -11q21 -7 17 -31q-6 -29 7 -72q14 -50 14 -66q0 -30 -23 -53q-4 -4 -13 -4q-32 0 -47 25q-34 63 -90 111q-67 57 -121 48q-20 6 -54 9q-51 -6 -100.5 -45.5t-76.5 -93.5q-2 -14 -11 -45q-15 -24 -33 -75q-10 -92 2 -132q1 -6 33 -60
q6 -9 3 -42t1 -44q45 -108 161 -112q19 12 42 0q18 1 25 -3q48 -26 69 -26q26 0 53 26q12 4 37 18q38 22 59 78q22 63 55 63q26 0 26 -41v-58q0 -96 -30 -134q-35 -43 -132 -43h-234z" />
    <glyph glyph-name="Egrave" unicode="&#xc8;" horiz-adv-x="717" 
d="M642 148q0 -10 -24 -42q-3 -15 -11 -43q-6 -23 -30 -62q-9 -6 -24 -7q-21 -3 -24 -3h-334q-62 0 -86 -5q-15 -6 -43 -13q-23 -3 -45 15q-18 13 -18 36q0 25 19 46q53 56 59 74q4 7 4 60v369q0 51 -1 54q-6 34 -51 60.5t-50 50.5q-7 49 5 82q6 15 30 21q21 5 34 -1h422
q45 0 49 -9q18 -36 18 -93q0 -53 -17 -74t-40 -21q-39 0 -90 63q-12 14 -61 9h-71q-46 0 -60 -21q-7 -9 -7 -21q0 -15 18 -45t16 -45q-1 -15 -13 -31.5t-14 -28.5q-4 -37 24 -60q24 -18 62 -18q43 0 70 23q18 7 54 22q8 3 30 20q17 12 26 12q39 0 39 -83v-76q0 -63 -41 -63
q-18 0 -42 10q-19 20 -58 42q-86 5 -105 0q-9 -3 -22 -17t-11 -25q1 -28 0 -63q-3 -48 -3 -52q0 -57 40 -99q6 -6 24 -9l29 -3h132q24 0 42 24t36.5 51.5t66.5 27.5q44 0 47 -39zM360 882q-3 -14 -13.5 -14.5t-18.5 -0.5q-25 0 -53.5 36t-37.5 57q-14 33 -57 66
q-38 28 -38 42q0 18 44 45q12 6 34 1q21 -4 30 -16q122 -132 110 -216z" />
    <glyph glyph-name="Eacute" unicode="&#xc9;" horiz-adv-x="715" 
d="M364 1011q0 -11 -3 -11l-9 8q-6 6 -12 -6q-6 -33 -22 -81q-6 -14 -39 -24q-23 -9 -18 -42q3 0 21 -5.5t21 -5.5h156q63 0 63 -33v-15q-2 -12 -2 -18v-61q14 -47 -12 -62q-13 -7 -39 -3q-16 3 -26.5 21t-21 38.5t-60.5 20.5h-79q-69 0 -69 -62q0 -21 9 -60.5t9 -53.5
q0 -22 -2 -46q2 -32 20 -47q7 -6 24 -6q28 0 60 15q24 3 67 21q14 18 44 50q12 10 19 3q32 -33 32 -47q0 -3 -3 -12.5t-3 -18.5v-60q0 1 4 -21q3 -17 0 -24q-6 -15 -21.5 -19.5t-27.5 -1.5q-14 15 -47 39q-16 9 -75 9h-58q-32 0 -47 -36q-7 -18 -7 -39q0 -20 18 -93
q1 -30 1 -60q6 -41 47 -41h145q30 5 74 41q57 49 69 57q7 4 13 4q18 0 31.5 -21.5t13.5 -44.5q0 -13 -6 -22q-22 -21 -22 -50q1 -33 0 -34q-26 -45 -93 -45q-29 0 -74 9q-31 6 -64 12q-8 1 -59 -20q-9 -4 -22 -3q-21 3 -20 3h-90q-48 0 -65 -7.5t-50 -20.5q-27 -8 -52 20
t-17 49q4 16 13 19q74 30 74 122q0 16 -3 34q-8 47 10 89q11 24 11 45q0 13 -5.5 29t-5.5 22v58q0 2 4.5 23.5t4.5 23.5v106q0 86 -96 138q-13 8 -7 26q1 10 16 25q11 3 47 20q28 12 45 12q21 0 39.5 -16.5t30.5 -13.5q14 1 27 4q-6 27 6 95q12 19 27 58q-1 17 0 47
q5 33 11 64q22 12 43 26q5 1 11 1q31 0 66 -43q12 -15 7 -51z" />
    <glyph glyph-name="Ecircumflex" unicode="&#xca;" horiz-adv-x="717" 
d="M642 148q0 -10 -24 -42q-3 -15 -11 -43q-6 -23 -30 -62q-9 -6 -24 -7q-21 -3 -24 -3h-334q-62 0 -86 -5q-15 -6 -43 -13q-23 -3 -45 15q-18 13 -18 36q0 25 19 46q53 56 59 74q4 7 4 60v369q0 51 -1 54q-6 34 -51 60.5t-50 50.5q-7 49 5 82q6 15 30 21q21 5 34 -1h422
q45 0 49 -9q18 -36 18 -93q0 -53 -17 -74t-40 -21q-39 0 -90 63q-12 14 -61 9h-71q-46 0 -60 -21q-7 -9 -7 -21q0 -15 18 -45t16 -45q-1 -15 -13 -31.5t-14 -28.5q-4 -37 24 -60q24 -18 62 -18q43 0 70 23q18 7 54 22q8 3 30 20q17 12 26 12q39 0 39 -83v-76q0 -63 -41 -63
q-18 0 -42 10q-19 20 -58 42q-86 5 -105 0q-9 -3 -22 -17t-11 -25q1 -28 0 -63q-3 -48 -3 -52q0 -57 40 -99q6 -6 24 -9l29 -3h132q24 0 42 24t36.5 51.5t66.5 27.5q44 0 47 -39zM387 945q10 -24 16 -48q-33 -3 -45.5 12t-23.5 33q-22 30 -55 73q-20 -3 -45 -13
q-21 -26 -44 -59q-1 -13 -16 -27q-24 -19 -26 -24q-31 0 -31 12q0 5 30 47q12 10 30 33q0 10 4 28q17 36 86 90q9 2 22 -4q38 -6 69.5 -55.5t31.5 -84.5q0 -9 -3 -13z" />
    <glyph glyph-name="Edieresis" unicode="&#xcb;" horiz-adv-x="717" 
d="M642 148q0 -10 -24 -42q-3 -15 -11 -43q-6 -23 -30 -62q-9 -6 -24 -7q-21 -3 -24 -3h-334q-62 0 -86 -5q-15 -6 -43 -13q-23 -3 -45 15q-18 13 -18 36q0 25 19 46q53 56 59 74q4 7 4 60v369q0 51 -1 54q-6 34 -51 60.5t-50 50.5q-7 49 5 82q6 15 30 21q21 5 34 -1h422
q45 0 49 -9q18 -36 18 -93q0 -53 -17 -74t-40 -21q-39 0 -90 63q-12 14 -61 9h-71q-46 0 -60 -21q-7 -9 -7 -21q0 -15 18 -45t16 -45q-1 -15 -13 -31.5t-14 -28.5q-4 -37 24 -60q24 -18 62 -18q43 0 70 23q18 7 54 22q8 3 30 20q17 12 26 12q39 0 39 -83v-76q0 -63 -41 -63
q-18 0 -42 10q-19 20 -58 42q-86 5 -105 0q-9 -3 -22 -17t-11 -25q1 -28 0 -63q-3 -48 -3 -52q0 -57 40 -99q6 -6 24 -9l29 -3h132q24 0 42 24t36.5 51.5t66.5 27.5q44 0 47 -39zM519 1030q4 -19 -21 -55q-27 -41 -53 -39q-42 0 -48 1q-48 9 -48 56q0 33 26.5 70.5
t57.5 37.5q27 0 53.5 -21t32.5 -50zM216 903q-23 -23 -63 -23q-27 0 -42 10t-32 35q-22 32 -31 41q-33 -14 -38 -14q-15 0 -16 21q6 11 16 11q12 0 33 -17q21 24 44 47q27 28 61 31q53 2 66 -21q18 -31 18 -70q0 -33 -16 -51z" />
    <glyph glyph-name="Igrave" unicode="&#xcc;" horiz-adv-x="498" 
d="M402 193q-26 0 -26 29q0 31 26 36q25 3 25 -27q0 -32 -25 -38zM376 790q0 -19 -36 -48q-49 -37 -63 -54q-31 -39 -24 -91q12 -75 12 -81q-1 -24 -5 -52.5t-4 -81.5v-58q0 -77 6 -102q15 -60 68 -50q22 3 28 -4q21 -27 21 -75q0 -24 -8 -37.5t-62 -33.5q-15 -9 -45 -22
q-17 -6 -35 -6q-25 0 -80 16.5t-82 16.5q-12 0 -24 -3q3 1 -22 9q-9 3 -21 7.5t-16 13.5t-4 13q0 14 26 29q33 19 43 36q35 51 35 132q0 40 -14 135q0 3 9 66q3 16 3 64v59q0 69 -15 84q-72 72 -82 87q-6 7 -8 27q0 12 16 19.5t29 5.5h71q1 0 21.5 -9t29.5 -10
q4 -2 23.5 5.5t25.5 7.5q41 9 126 26q23 3 40 -7.5t17 -33.5zM285 882q-3 -14 -13.5 -14.5t-18.5 -0.5q-25 0 -53.5 36t-37.5 57q-14 33 -57 66q-38 28 -38 42q0 18 44 45q12 6 34 1q21 -4 30 -16q122 -132 110 -216z" />
    <glyph glyph-name="Iacute" unicode="&#xcd;" horiz-adv-x="487" 
d="M246 610q3 27 -41 30q-18 0 -35 -12.5t-17 -27.5t22 -20q-6 2 18 2q17 3 33.5 7.5t19.5 20.5zM228 370q-42 -21 -42 -63q0 -33 34 -46q30 -2 30 40q0 51 -22 69zM249 1041q0 -11 -14 -39q-6 -33 -22 -81q-30 -56 -41 -110q6 -1 39 -16q21 -9 44 -9q13 0 39.5 3.5
t39.5 3.5q33 0 53 -22q4 -5 -2.5 -19t-17.5 -20q-67 -30 -78 -74q0 -31 -4 -94v-131q0 -12 -3 -90t-3 -84q0 -43 10 -117q8 -19 78 -61q21 -14 21 -30q0 -17 -16.5 -29.5t-32.5 -12.5q-11 0 -17 4h-210q-31 -10 -49 -10q-33 0 -44 25q-3 11 -3 18q0 23 47.5 55t47.5 67v108
v276q-5 15 -11 42q-3 19 1 38t4 20q0 9 -6 17q-11 15 -47 26t-49 31q-11 15 -11 31q0 26 32 35q18 -3 51 1q9 14 24 30q9 17 9 32q0 10 -7.5 27.5t-6.5 26.5q12 19 27 58q-1 17 0 47q5 33 11 64q22 12 43 26q5 1 11 1q31 0 66 -43q4 -6 3 -9q-5 -8 -6 -12z" />
    <glyph glyph-name="Icircumflex" unicode="&#xce;" horiz-adv-x="531" 
d="M418 82q8 -9 8 -19q0 -21 -31.5 -41.5t-58.5 -20.5q-9 0 -15 3h-197q-40 -3 -79 9q-50 17 -50 53q0 15 24 25q20 8 38.5 18.5t38 23t27 29t6.5 30.5q-5 27 -5 19v383q0 51 -19 78q-30 39 -62 78q-1 3 0 16q2 15 8.5 22.5t21.5 9.5q11 1 21 3h63q8 0 35.5 9t56.5 9h87
q7 6 31 0q26 -6 42 -17q6 -12 6 -21q0 -24 -47 -54.5t-47 -59.5v-456q0 -45 15 -60q42 -34 82 -69zM342 945q10 -24 16 -48q-33 -3 -45.5 12t-23.5 33q-22 30 -55 73q-20 -3 -45 -13q-21 -26 -44 -59q-1 -13 -16 -27q-24 -19 -26 -24q-31 0 -31 12q0 5 30 47q12 10 30 33
q0 10 4 28q17 36 86 90q9 2 22 -4q38 -6 69.5 -55.5t31.5 -84.5q0 -9 -3 -13z" />
    <glyph glyph-name="Idieresis" unicode="&#xcf;" horiz-adv-x="498" 
d="M402 193q-26 0 -26 29q0 31 26 36q25 3 25 -27q0 -32 -25 -38zM376 790q0 -19 -36 -48q-49 -37 -63 -54q-31 -39 -24 -91q12 -75 12 -81q-1 -24 -5 -52.5t-4 -81.5v-58q0 -77 6 -102q15 -60 68 -50q22 3 28 -4q21 -27 21 -75q0 -24 -8 -37.5t-62 -33.5q-15 -9 -45 -22
q-17 -6 -35 -6q-25 0 -80 16.5t-82 16.5q-12 0 -24 -3q3 1 -22 9q-9 3 -21 7.5t-16 13.5t-4 13q0 14 26 29q33 19 43 36q35 51 35 132q0 40 -14 135q0 3 9 66q3 16 3 64v59q0 69 -15 84q-72 72 -82 87q-6 7 -8 27q0 12 16 19.5t29 5.5h71q1 0 21.5 -9t29.5 -10
q4 -2 23.5 5.5t25.5 7.5q41 9 126 26q23 3 40 -7.5t17 -33.5zM372 1009q4 -19 -23 -57.5t-51 -36.5h-49q-47 10 -47 55q0 33 26.5 71.5t57.5 38.5q26 0 53 -21t33 -50zM88 1045q53 2 66 -21q18 -31 18 -70q0 -33 -16 -51q-23 -23 -63 -23q-38 0 -62.5 29.5t-47.5 57.5
q21 24 44 47q27 28 61 31z" />
    <glyph glyph-name="Eth" unicode="&#xd0;" horiz-adv-x="930" 
d="M835 358q0 -6 -21 -66q-30 -79 -90 -153q-63 -78 -138 -115q-7 -8 -21 -15q-84 -23 -129 -23h-94q1 0 -29.5 9t-47.5 9q-16 2 -49 -8l-33 -10h-134q-60 23 -60 51q0 15 14 36q19 17 94 63q38 23 38 62v148q-6 12 -18 30q-12 11 -36 5q-38 -9 -44 -9q-19 0 -34 12
q3 9 3 30q-2 9 -2 18q0 30 21 48.5t47 18.5q18 0 31 -9q32 0 32 26v133q0 41 -8 53q-13 21 -64 27q-3 0 -10.5 7.5t-7.5 11.5q1 36 3 51q3 30 12 35q19 10 90 10h175q75 0 143 -31q3 -2 46 -2q39 0 51 -3q29 -6 86 -33q64 -30 76 -48q8 -21 29 -64q16 -18 37 -51
q8 -30 22 -55.5t17 -37.5t3 -75v-86zM676 705q-31 -2 -31 -32q0 -27 30 -27q27 6 27 36q0 23 -26 23zM712 334q-13 18 -41.5 45t-46.5 32q-8 1 -26.5 -7t-23.5 -7q-27 14 -27 47t32 33q12 -21 27 -21q21 0 41 27t19 42q-2 63 -44 114q-33 39 -93 63q-52 16 -104.5 33.5
t-82.5 17.5q-57 0 -69 -56q-8 -33 -5 -39v-81q0 -6 9 -31.5t14 -29.5q12 -2 33 -9q4 -6 16 -15q24 19 41 19q24 0 24 -36v-60q-12 -30 -38 -30q-9 0 -27.5 4.5t-29.5 4.5q-25 0 -42 -22q-1 -11 -1 -21q0 -32 19.5 -76t19.5 -58q0 -4 -16.5 -21.5t-16.5 -27.5q0 -26 42 -53
q37 -24 63 -25q9 -20 25 -20q17 0 39 15q14 8 27 17q11 0 30 6q8 4 8 13q0 24 -20 24q-4 0 -9 -4q-45 18 -48 18q-27 -12 -42 -12q-18 0 -24 16q26 17 87 17q32 -2 65 -2q36 6 43 62q8 51 36 49q21 -1 48 -22t38 -18q36 12 36 66q0 12 -5 19zM606 189q21 7 21 30
q0 28 -24 28q-29 0 -29 -37q0 -39 32 -21z" />
    <glyph glyph-name="Ntilde" unicode="&#xd1;" horiz-adv-x="970" 
d="M798 963q-2 -8 -45 -45q-35 -29 -83 -29h-13h-12q-39 0 -59 -25q-12 -15 0 -32q15 -1 41 0h223l18 3q14 2 24.5 -1t19.5 -14q12 -13 -2 -25q-45 -36 -91 -72q-6 -9 -6 -66v-222q0 -32 -20 -90l9 -102q3 -30 -4 -66q-9 -42 -9 -59q0 -16 5 -31t10 -27q10 -23 7 -33
q-6 -38 -45 -38q-13 0 -25 6q-11 17 -37 47t-74 84q-38 42 -105 123q-20 25 -36 37q-12 8 -17 18q-12 29 -45 54q-45 33 -54 44q-6 16 -19 46q-20 18 -48 59q-21 48 -42 48q-8 0 -15 -8q-29 -25 -24 -73q6 -60 0 -77q-14 -15 -32 -48q-1 -9 14 -25q16 -21 18 -29
q3 -15 -2 -84q-3 -55 17 -81q7 -9 33.5 -19.5t33.5 -17.5q21 -21 21 -48q0 -15 -7 -23q-23 -24 -48 -24q-6 0 -21 6t-27 6q-27 0 -78 -24.5t-75 -24.5q-30 0 -53.5 21.5t-23.5 50.5q0 27 24 42q20 0 56 13q21 18 25 45v48v345q0 38 10.5 60.5t22.5 44.5q6 18 0 30
q-9 18 -36 23q-42 9 -54 13q-46 23 -46 66q0 26 27 38q9 3 51 3h94q33 0 98 -33q10 -18 30 -47q42 -40 121 -121q6 -20 27 -56q35 -31 104 -102q25 -37 76 -102q9 -22 20 -45q13 -31 40 -31q38 0 38 55q0 8 -1.5 17t-3.5 28q-1 8 -10 44q-2 13 -8 39v210q0 12 2.5 25.5
t2.5 16.5q0 19 -72 37q-15 3 -31 6t-19 14q-4 -2 -27 19q-7 6 -11 32.5t-32.5 35.5t-34.5 18q-3 4 5.5 22t8.5 24q1 18 3.5 39t23.5 35q33 0 49 3q29 4 57 22q26 2 78 21q18 14 21 53q5 33 23 34q60 6 60 -76q0 -35 -9 -78z" />
    <glyph glyph-name="Ograve" unicode="&#xd2;" horiz-adv-x="888" 
d="M825 376q0 -10 -12 -39q-17 -36 -17 -37q-6 -20 -4 -24q3 -9 3 -20q0 -52 -69 -120q-54 -52 -116 -85q-13 -6 -79 -32q-71 -27 -81 -27h-105q-23 0 -44 15q-34 23 -40 26q-21 6 -57 19q-12 11 -38 29q-25 12 -51 22q-37 21 -40 51q-2 8 -21 32q-29 31 -30 33q-2 16 -8 49
q-10 50 -10 92v136q0 56 16 137q12 10 35.5 35t74.5 83q7 8 24.5 11t24.5 7q59 45 107 45h133q23 0 40 12t37 11q81 -3 160 -62q30 -22 62 -63q25 -37 51 -73q54 -77 54 -107v-156zM645 274v218q0 49 1 28q-1 15 -19 42q-11 12 -24 29q-53 123 -129 130q-9 6 -26 14
q-40 10 -73 10q-48 0 -101 -22q-25 -11 -57 -30q-30 -53 -39 -69q-24 -51 -27 -93v-119q0 -45 17 -78q6 -25 15 -55q25 -32 57 -92q28 -51 46 -69q30 -28 81 -28h87q2 0 23.5 8t27.5 10q60 13 100 61t40 105zM585 882q-3 -14 -13.5 -14.5t-18.5 -0.5q-25 0 -53.5 36
t-37.5 57q-14 33 -57 66q-38 28 -38 42q0 18 44 45q12 6 34 1q21 -4 30 -16q122 -132 110 -216z" />
    <glyph glyph-name="Oacute" unicode="&#xd3;" horiz-adv-x="888" 
d="M645 274v218q0 49 1 28q-1 15 -19 42q-11 12 -24 29q-53 123 -129 130q-9 6 -26 14q-40 10 -73 10q-48 0 -101 -22q-25 -11 -57 -30q-66 -111 -66 -162v-119q0 -45 17 -78q6 -25 15 -55q25 -32 57 -92q28 -51 46 -69q30 -28 81 -28h87q2 0 23.5 8t27.5 10q60 13 100 61
t40 105zM409 1011q0 -11 -3 -11l-9 8q-6 6 -12 -6q-6 -33 -22 -81q-12 -21 -23 -41q-3 -4 -7 -28q10 -42 88 -38q11 -4 18 -4q9 0 25 14t34 13q81 -3 160 -62q30 -22 62 -63q25 -37 51 -73q54 -77 54 -107v-156q0 -10 -12 -39q-17 -36 -17 -37q-6 -20 -4 -24q3 -9 3 -20
q0 -52 -69 -120q-54 -52 -116 -85q-13 -6 -79 -32q-71 -27 -81 -27h-105q-23 0 -44 15q-34 23 -40 26q-21 6 -57 19q-12 11 -38 29q-25 12 -51 22q-37 21 -40 51q-2 8 -21 32q-29 31 -30 33q-2 16 -8 49q-10 50 -10 92v136q0 56 16 137q12 10 35.5 35t74.5 83q7 8 24.5 11
t24.5 7q39 30 59 38q-8 27 4 102q12 19 27 58q-1 17 0 47q5 33 11 64q22 12 43 26q5 1 11 1q31 0 66 -43q12 -15 7 -51z" />
    <glyph glyph-name="Ocircumflex" unicode="&#xd4;" horiz-adv-x="888" 
d="M825 376q0 -10 -12 -39q-17 -36 -17 -37q-6 -20 -4 -24q3 -9 3 -20q0 -52 -69 -120q-54 -52 -116 -85q-13 -6 -79 -32q-71 -27 -81 -27h-105q-23 0 -44 15q-34 23 -40 26q-21 6 -57 19q-12 11 -38 29q-25 12 -51 22q-37 21 -40 51q-2 8 -21 32q-29 31 -30 33q-2 16 -8 49
q-10 50 -10 92v136q0 56 16 137q12 10 35.5 35t74.5 83q7 8 24.5 11t24.5 7q59 45 107 45h133q23 0 40 12t37 11q81 -3 160 -62q30 -22 62 -63q25 -37 51 -73q54 -77 54 -107v-156zM645 274v218q0 49 1 28q-1 15 -19 42q-11 12 -24 29q-53 123 -129 130q-9 6 -26 14
q-40 10 -73 10q-48 0 -101 -22q-25 -11 -57 -30q-30 -53 -39 -69q-24 -51 -27 -93v-119q0 -45 17 -78q6 -25 15 -55q25 -32 57 -92q28 -51 46 -69q30 -28 81 -28h87q2 0 23.5 8t27.5 10q60 13 100 61t40 105zM537 945q10 -24 16 -48q-33 -3 -45.5 12t-23.5 33q-22 30 -55 73
q-20 -3 -45 -13q-21 -26 -44 -59q-1 -13 -16 -27q-24 -19 -26 -24q-31 0 -31 12q0 5 30 47q12 10 30 33q0 10 4 28q17 36 86 90q9 2 22 -4q38 -6 69.5 -55.5t31.5 -84.5q0 -9 -3 -13z" />
    <glyph glyph-name="Otilde" unicode="&#xd5;" horiz-adv-x="888" 
d="M645 274v218q0 49 1 28q-1 15 -19 42q-11 12 -24 29q-53 123 -129 130q-9 6 -26 14q-40 10 -73 10q-48 0 -101 -22q-25 -11 -57 -30q-66 -111 -66 -162v-119q0 -45 17 -78q6 -25 15 -55q25 -32 57 -92q28 -51 46 -69q30 -28 81 -28h87q2 0 23.5 8t27.5 10q60 13 100 61
t40 105zM576 955q-3 -7 -53 -36q-28 -16 -58 -16q-15 0 -38.5 4.5t-33.5 4.5q-24 0 -42 -17q-5 -3 -5 -9q0 -9 11 -27q10 -22 11 -26t13.5 -10.5t8.5 -9.5l31 1q23 0 39.5 12t37.5 11q81 -3 160 -62q30 -22 62 -63q25 -37 51 -73q54 -77 54 -107v-156q0 -10 -12 -39
q-17 -36 -17 -37q-6 -20 -4 -24q3 -9 3 -20q0 -52 -69 -120q-54 -52 -116 -85q-13 -6 -79 -32q-71 -27 -81 -27h-105q-23 0 -44 15q-34 23 -40 26q-21 6 -57 19q-12 11 -38 29q-25 12 -51 22q-37 21 -40 51q-2 8 -21 32q-29 31 -30 33q-2 16 -8 49q-10 50 -10 92v136
q0 56 16 137q12 10 35.5 35t74.5 83q7 8 24.5 11t24.5 7q26 20 62 26q31 4 45 19l16 18q-4 5 -4 18q0 26 -24 39q-29 15 -32 24q-1 5 9.5 21.5t11.5 22.5q5 18 11 38t28 29q65 -10 110 8q25 -5 81 7q19 11 30 48q9 32 28 29q48 -3 48 -59q0 -40 -25 -102z" />
    <glyph glyph-name="Odieresis" unicode="&#xd6;" horiz-adv-x="888" 
d="M825 376q0 -10 -12 -39q-17 -36 -17 -37q-6 -20 -4 -24q3 -9 3 -20q0 -52 -69 -120q-54 -52 -116 -85q-13 -6 -79 -32q-71 -27 -81 -27h-105q-23 0 -44 15q-34 23 -40 26q-21 6 -57 19q-12 11 -38 29q-25 12 -51 22q-37 21 -40 51q-2 8 -21 32q-29 31 -30 33q-2 16 -8 49
q-10 50 -10 92v136q0 56 16 137q12 10 35.5 35t74.5 83q7 8 24.5 11t24.5 7q59 45 107 45h133q23 0 40 12t37 11q81 -3 160 -62q30 -22 62 -63q25 -37 51 -73q54 -77 54 -107v-156zM645 274v218q0 49 1 28q-1 15 -19 42q-11 12 -24 29q-53 123 -129 130q-9 6 -26 14
q-40 10 -73 10q-48 0 -101 -22q-25 -11 -57 -30q-30 -53 -39 -69q-24 -51 -27 -93v-119q0 -45 17 -78q6 -25 15 -55q25 -32 57 -92q28 -51 46 -69q30 -28 81 -28h87q2 0 23.5 8t27.5 10q60 13 100 61t40 105zM609 1030q4 -19 -21 -55q-27 -41 -53 -39q-42 0 -48 1
q-48 9 -48 56q0 33 26.5 70.5t57.5 37.5q27 0 53.5 -21t32.5 -50zM238 1045q53 2 66 -21q18 -31 18 -70q0 -33 -16 -51q-23 -23 -63 -23q-27 0 -42 10t-32 35q-22 32 -31 41q21 24 40 48q27 28 60 31z" />
    <glyph glyph-name="Oslash" unicode="&#xd8;" horiz-adv-x="928" 
d="M882 435q-8 -42 -17 -75q-3 -11 0 -30q-13 -21 -15.5 -70.5t-23.5 -75.5q-30 -36 -84.5 -83t-77.5 -55q-40 -16 -81 -33q-70 -28 -81 -28h-106q-15 0 -35 7q-12 11 -40 30q-23 9 -68 26q-12 10 -39 30q-21 10 -58 24q-8 3 -17.5 17t-11.5 16q-9 7 -25 9q-15 1 -48 -18
q-47 -24 -48 -26q-12 -4 -21 14q-5 12 -9 24q-3 7 -3 15q0 48 66 70q6 2 25 30q0 20 -6 36.5t-6 73.5v139q0 54 11 78q22 35 45 69q-2 14 6 35q78 99 117 99q1 0 16 12.5t24 15.5q33 17 68 17h135q22 0 39.5 11t38.5 13q30 0 97 -38q23 -13 41 -15q13 -3 24 -12
q18 -25 60 -73q1 -2 25 -6q17 13 54 30q30 3 47.5 -14.5t17.5 -44.5q0 -43 -42 -63q-3 -9 -11 -25q17 -24 17 -50v-106zM-54 228q-3 -2 -8 -2q-10 0 -20 10.5t-10 22.5q0 15 20 18q13 3 24.5 -6t11.5 -21q0 -15 -18 -22zM660 595q-12 48 -47 87q-40 47 -87 51q-9 6 -25 14
q-41 10 -72 10q-50 0 -102.5 -21.5t-59.5 -32.5q-66 -108 -66 -168v-117q-5 -15 0.5 -39t17.5 -33q10 -1 21 -1q34 0 77.5 30.5t85.5 63.5q15 12 39 21q36 15 57 26q39 19 62 30q10 -6 21 -6q30 0 57 31.5t21 53.5zM711 468q0 6 -9 15.5t-15 6.5q-41 -16 -126 -64
q-36 -27 -105 -77q-20 -6 -57 -34q-26 -30 -47 -30q-16 0 -27 18q-4 4 -12 4q-18 0 -39 -21t-21 -33q17 -18 25 -55.5t13 -44.5q25 -35 63 -50q13 -6 64 -16h89q3 0 24 8t27 10q61 13 101 62.5t40 106.5v80q22 45 22 58q0 20 -15 35z" />
    <glyph glyph-name="Ugrave" unicode="&#xd9;" horiz-adv-x="951" 
d="M70 621q0 -6 3 21q2 12 -6.5 30t-65.5 54q-18 7 -36 15q-25 12 -25 25q0 63 129 63h196q6 3 12 3q20 0 38.5 -20t18.5 -43q0 -16 -10 -28q-66 -66 -73 -77.5t-7 -65.5q-1 -10 -4 -21q-5 -22 0 -85l-9 -96l7 -81q-4 -15 -1 -45q85 -135 112 -138l68 -11q60 -9 95 12
t55.5 52t45.5 139q5 13 -1 106q0 3 4 84q0 12 -3.5 40t-3.5 26v54q1 11 4 33q-13 23 -55 89q-17 25 -5 40q6 8 19 9.5t23 2.5h63q8 0 35.5 9t56.5 9h87q7 5 35.5 -2t45.5 -19q4 -9 4 -18q0 -24 -62 -53t-65 -58l-14 -118l-9 -75q23 -48 21 -65q-13 -28 -31 -84
q-3 -39 -24 -123q-57 -133 -141 -175q-35 -18 -68 -24q-27 -3 -73 -15q-8 -5 -42 21q-26 -6 -50 -20.5t-27 -14.5q-6 0 -6 14q-19 7 -49 21q-9 7 -53 37q-39 26 -52 50q-17 34 -44 61q-4 11 -15 33q-28 53 -48 126q-3 11 3 47q9 51 11 54q1 18 0 30l-14 115v50zM270 -197
q-18 -1 -32.5 8t-14.5 21q0 16 23 25q15 5 30.5 -9.5t15.5 -29.5t-22 -15zM585 882q-3 -14 -13.5 -14.5t-18.5 -0.5q-25 0 -53.5 36t-37.5 57q-14 33 -57 66q-38 28 -38 42q0 18 44 45q12 6 34 1q21 -4 30 -16q122 -132 110 -216z" />
    <glyph glyph-name="Uacute" unicode="&#xda;" horiz-adv-x="951" 
d="M70 621q0 -6 3 21q2 12 -6.5 30t-65.5 54q-18 7 -36 15q-25 12 -25 25q0 63 129 63h196q6 3 12 3q20 0 38.5 -20t18.5 -43q0 -16 -10 -28q-66 -66 -73 -77.5t-7 -65.5q-1 -10 -4 -21q-5 -22 0 -85l-9 -96l7 -81q-4 -15 -1 -45q85 -135 112 -138l68 -11q60 -9 95 12
t55.5 52t45.5 139q5 13 -1 106q0 3 4 84q0 12 -3.5 40t-3.5 26v54q1 11 4 33q-13 23 -55 89q-17 25 -5 40q6 8 19 9.5t23 2.5h63q8 0 35.5 9t56.5 9h87q7 5 35.5 -2t45.5 -19q4 -9 4 -18q0 -24 -62 -53t-65 -58l-14 -118l-9 -75q23 -48 21 -65q-13 -28 -31 -84
q-3 -39 -24 -123q-57 -133 -141 -175q-35 -18 -68 -24q-27 -3 -73 -15q-8 -5 -42 21q-26 -6 -50 -20.5t-27 -14.5q-6 0 -6 14q-19 7 -49 21q-9 7 -53 37q-39 26 -52 50q-17 34 -44 61q-4 11 -15 33q-28 53 -48 126q-3 11 3 47q9 51 11 54q1 18 0 30l-14 115v50zM561 1044
q-2 -17 -11 -24.5t-15 -17.5q-6 -33 -22 -81q-30 -56 -44 -126q0 -5 -9.5 -11t-12.5 -4q-11 -3 -20 -3q-42 0 -42 61q0 21 9 71q12 19 27 58q-1 17 0 47q5 33 11 64q22 12 43 26q5 1 11 1q31 0 66 -43q10 -12 9 -18z" />
    <glyph glyph-name="Ucircumflex" unicode="&#xdb;" horiz-adv-x="951" 
d="M70 621q0 -6 3 21q2 12 -6.5 30t-65.5 54q-18 7 -36 15q-25 12 -25 25q0 63 129 63h196q6 3 12 3q20 0 38.5 -20t18.5 -43q0 -16 -10 -28q-66 -66 -73 -77.5t-7 -65.5q-1 -10 -4 -21q-5 -22 0 -85l-9 -96l7 -81q-4 -15 -1 -45q85 -135 112 -138l68 -11q60 -9 95 12
t55.5 52t45.5 139q5 13 -1 106q0 3 4 84q0 12 -3.5 40t-3.5 26v54q1 11 4 33q-13 23 -55 89q-17 25 -5 40q6 8 19 9.5t23 2.5h63q8 0 35.5 9t56.5 9h87q7 5 35.5 -2t45.5 -19q4 -9 4 -18q0 -24 -62 -53t-65 -58l-14 -118l-9 -75q23 -48 21 -65q-13 -28 -31 -84
q-3 -39 -24 -123q-57 -133 -141 -175q-35 -18 -68 -24q-27 -3 -73 -15q-8 -5 -42 21q-26 -6 -50 -20.5t-27 -14.5q-6 0 -6 14q-19 7 -49 21q-9 7 -53 37q-39 26 -52 50q-17 34 -44 61q-4 11 -15 33q-28 53 -48 126q-3 11 3 47q9 51 11 54q1 18 0 30l-14 115v50zM567 945
q10 -24 16 -48q-33 -3 -45.5 12t-23.5 33q-22 30 -55 73q-20 -3 -45 -13q-21 -26 -44 -59q-1 -13 -16 -27q-24 -19 -26 -24q-31 0 -31 12q0 5 30 47q12 10 30 33q0 10 4 28q17 36 86 90q9 2 22 -4q38 -6 69.5 -55.5t31.5 -84.5q0 -9 -3 -13z" />
    <glyph glyph-name="Udieresis" unicode="&#xdc;" horiz-adv-x="951" 
d="M70 621q0 -6 3 21q2 12 -6.5 30t-65.5 54q-18 7 -36 15q-25 12 -25 25q0 63 129 63h196q6 3 12 3q20 0 38.5 -20t18.5 -43q0 -16 -10 -28q-66 -66 -73 -77.5t-7 -65.5q-1 -10 -4 -21q-5 -22 0 -85l-9 -96l7 -81q-4 -15 -1 -45q85 -135 112 -138l68 -11q60 -9 95 12
t55.5 52t45.5 139q5 13 -1 106q0 3 4 84q0 12 -3.5 40t-3.5 26v54q1 11 4 33q-13 23 -55 89q-17 25 -5 40q6 8 19 9.5t23 2.5h63q8 0 35.5 9t56.5 9h87q7 5 35.5 -2t45.5 -19q4 -9 4 -18q0 -24 -62 -53t-65 -58l-14 -118l-9 -75q23 -48 21 -65q-13 -28 -31 -84
q-3 -39 -24 -123q-57 -133 -141 -175q-35 -18 -68 -24q-27 -3 -73 -15q-8 -5 -42 21q-26 -6 -50 -20.5t-27 -14.5q-6 0 -6 14q-19 7 -49 21q-9 7 -53 37q-39 26 -52 50q-17 34 -44 61q-4 11 -15 33q-28 53 -48 126q-3 11 3 47q9 51 11 54q1 18 0 30l-14 115v50zM582 987
q22 -2 22 15q0 13 -16.5 27.5t-29.5 9.5q-24 -9 -24 -24q0 -13 14 -22t34 -6zM669 1030q4 -19 -21 -55q-27 -41 -53 -39q-42 0 -48 1q-48 9 -48 56q0 33 26.5 70.5t57.5 37.5q27 0 53.5 -21t32.5 -50zM298 1045q53 2 66 -21q18 -31 18 -70q0 -33 -16 -51q-23 -23 -63 -23
q-27 0 -42 10t-32 35q-22 32 -31 41q21 24 40 48q27 28 60 31z" />
    <glyph glyph-name="Yacute" unicode="&#xdd;" 
d="M780 817q27 -6 27 -33q0 -19 -14.5 -36.5t-33.5 -18.5q-29 1 -75 -8q-18 -7 -30 -36q-9 -22 -20 -45q-18 -18 -52 -55q-30 -44 -41 -90q-4 -17 -3 -38q3 -19 0 -28q-4 -12 -23 -25.5t-23 -28.5q10 -21 13 -51q-27 -45 -27 -77q0 -43 50 -75q79 -52 79 -129q0 -69 -84 -58
h-99q-34 4 -93 18q-21 -3 -66 1q-19 11 -61 29q-33 7 -87 25q-33 20 -33 57q0 26 27 35q27 7 52 -2q3 -1 25 -22t38 -21q9 0 18 6q48 27 68 42q40 34 45 70q0 8 -5.5 26t-5.5 24q-4 52 -30 103q-1 17 -9 47q-6 13 -30 38.5t-28 33.5q-30 49 -59 100q-45 65 -94 66
q-38 2 -73 36.5t-35 68.5q0 21 15 35q19 19 76 19q47 0 72 -15q18 -16 56 -37q13 -5 37 10q32 18 41 20q57 12 78 -5q12 -9 10 -31q-1 -23 -12.5 -33.5t-26.5 -34.5q-6 -16 32 -76q10 -21 21 -42q16 -27 36 -32q13 -3 34 7.5t32 33.5q0 15 3 42q9 24 19 72q5 33 -4 49
q-14 21 -14 38q0 25 30 33q17 -2 51 -2q18 12 54 26q6 1 30 -9.5t32 -10.5q30 0 90 -6zM559 1011q0 -11 -3 -11l-9 8q-6 6 -12 -6q-6 -33 -22 -81q-30 -56 -44 -126q0 -5 -9.5 -11t-12.5 -4q-11 -3 -20 -3q-42 0 -42 61q0 21 9 71q12 19 27 58q-1 17 0 47q5 33 11 64
q22 12 43 26q5 1 11 1q31 0 66 -43q12 -15 7 -51z" />
    <glyph glyph-name="Thorn" unicode="&#xde;" horiz-adv-x="783" 
d="M357 594q6 -3 36 29t37 29q38 -13 59 -16q33 -3 48 -6q19 -14 61 -38q35 -19 60 -52q18 -26 36 -51q2 -14 5 -36q9 -23 9 -44q0 -9 -14 -70v-57q-90 -68 -178 -123q-11 -8 -29 -14q-48 -18 -99 6q-12 6 -28.5 6t-25.5 5q-25 10 -25 37q0 26 24 33q34 -3 102 6q4 2 39 42
q63 74 55 114q-9 42 -39 102q-16 9 -43 29q-21 16 -57 16q-77 0 -108 -76q0 -137 6 -309v-47q9 -39 46 -49q18 -2 48 -11q12 -9 12 -25q0 -17 -12 -23q-16 3 -48 0q-45 -22 -79 -22q-35 0 -87 25q-5 2 -68 -4q-31 -3 -67 6q-44 12 -44 33q0 13 18 30q30 12 83 42
q25 19 25 88v83q0 36 -0.5 38t-11 20t-9.5 32q3 37 12 58q9 17 9 56v163v41q-13 19 -45 19q-39 2 -48 8q-64 42 -64 64q0 11 37 24q33 12 48 12q11 0 20 -3h121q47 0 24 -3q20 3 74 26q1 1 39 3q54 1 115 -26q6 -3 10.5 -18.5t12.5 -18.5q-26 -69 -71 -69q-16 0 -44.5 12
t-37.5 12q-18 0 -18 -36l-2 -60q8 3 14 3q10 0 26.5 -19.5t30.5 -25.5z" />
    <glyph glyph-name="germandbls" unicode="&#xdf;" horiz-adv-x="579" 
d="M562 915q-6 -5 -30 -6q-34 0 -60 13q-7 21 42 42q5 2 11 2q16 0 32 -9t16 -21q0 -11 -11 -21zM534 228q0 -72 -12 -105q-21 -54 -89 -90q-15 -12 -39 -24q-12 -2 -87 6q-6 6 -19 15q-2 0 -23 1q-15 2 -15 8q2 39 93 57q33 24 60 64q32 47 32 84q0 21 -12 38
q-3 6 -19.5 10.5t-22.5 11t-5.5 24t-2.5 23.5q-15 30 -45 45q-27 10 -70 40q-21 26 -21 57q0 30 25 44q38 21 77 84q18 15 39 46q9 42 6 53q-9 40 -77 75q-34 16 -57 16q-24 0 -51 -18q-45 -30 -45 -99q0 -30 11 -69q6 -28 -7.5 -96.5t-13.5 -59.5q0 -31 30 -51
q-15 -12 -15 -39q0 -9 6 -45q3 -30 1 -46q-9 -18 -27 -69q-6 -15 -6 -32q0 -78 98 -126q4 -1 7 -16q3 -14 0 -21q-10 -23 -66 -24q-25 1 -78 0q-61 -11 -58 -11q-27 0 -44 21q-4 5 3 21q11 23 12 29q8 33 23 96v241q0 15 -10.5 37.5t-10.5 45.5q0 13 3 32t18 52q25 27 28 66
q6 66 13 87.5t64 111.5q15 6 39 18q31 21 64 42h39h89q18 0 66 11q19 4 24 -6q10 -23 31 -57q15 -24 15 -35q0 -7 -6 -13q5 -15 5 -30q0 -45 -48 -113q-39 -52 -78 -105q-14 -24 8 -42t82 -93q16 -15 45 -46q3 -5 13.5 -35t10.5 -36v-61z" />
    <glyph glyph-name="agrave" unicode="&#xe0;" horiz-adv-x="466" 
d="M427 133q18 -19 18 -40q0 -41 -78 -105q-12 -9 -25 -9q-21 0 -66 36t-68 36q-16 -2 -27.5 -32.5t-26.5 -33.5q-7 -2 -25 7q-24 14 -30 15q-15 0 -48 11q-48 30 -57 81q-2 43 -3 88q-2 15 15 29q22 3 66 16q88 35 127 65q33 25 33 67q0 20 -12.5 39.5t-32.5 19.5
q-16 0 -42 -18q-39 -27 -43 -30q-15 -2 -41 -8q-6 -1 -33 -12q-15 -6 -24 -1q0 33 29.5 76.5t65.5 52.5q7 7 25 22q29 14 65 50q4 10 -9 28q-21 26 -24 32q-14 30 -78 96q-56 57 -56 85q0 27 38 47q36 18 64 -14q65 -70 143 -228q1 -12 6.5 -36t46.5 -49.5t47 -46.5
q12 -36 6 -58v-116q-1 -19 -7 -49q-18 -45 -18 -47q0 -19 25 -33q20 -7 54 -33zM187 126q42 0 42 42q0 52 -49 46q-42 -4 -42 -49q0 -50 49 -39z" />
    <glyph glyph-name="aacute" unicode="&#xe1;" horiz-adv-x="513" 
d="M198 141q33 1 33 25q0 15 -13.5 29.5t-30.5 14.5q-16 0 -31 -13t-15 -28q0 -36 37 -36q11 0 20 8zM364 801q-1 -18 -24 -44q-25 -31 -30 -40q-6 -33 -22 -81q-30 -56 -39 -102q9 -2 28.5 -5.5t40.5 -30t21 -53.5v-241q-3 -8 -3 -14q0 -46 82 -43q12 0 23 -39
q1 -5 9.5 -20.5t8.5 -21.5q-8 -12 -21.5 -16t-76.5 -38q-48 -27 -78 -27q-16 0 -36.5 9.5t-35.5 9.5t-39 -8t-31 -8q-86 -12 -149 61q-18 20 -18 48q0 20 12 58t14.5 52.5t47.5 32.5q19 9 58 25q30 8 60 15q47 12 60.5 34t13.5 62q0 38 -15 57.5t-47 19.5q-27 0 -48 -16.5
t-21 -46.5q0 -14 -10 -18q-41 -20 -66 -20q-26 0 -35 17q-6 13 24 57q8 19 30 51q18 10 54 31q29 18 56 26q-3 25 7 90q12 19 27 58q-1 17 0 47q12 51 26 102q13 36 58 63q5 1 11 1q31 0 66 -43q12 -15 7 -51z" />
    <glyph glyph-name="acircumflex" unicode="&#xe2;" horiz-adv-x="514" 
d="M433 84q3 -36 -42.5 -74.5t-80.5 -32.5q-27 17 -82 36q-27 5 -55 -6.5t-56 -23.5q-41 -18 -80 -1q-40 16 -40 82q0 14 1 26q2 39 17 97q12 17 40.5 19t37.5 11q15 15 45 36q22 0 69 23q22 21 22 51q0 27 -19 70q-9 20 -30 20q-17 0 -41 -15t-40 -36l-21 -30
q-9 -9 -66 -12q-14 10 -12 43q1 27 10 48q93 122 192 122q44 0 81 -30q17 -14 39 -50q26 -45 26 -79q0 -11 -3 -20v-66q4 -34 1 -42q-10 -15 -25 -46q-9 -26 22.5 -68.5t65.5 -39.5q6 0 24 -12zM187 126q29 19 29 63q0 40 -32 40q-7 0 -15 -3q-30 -10 -30 -52q0 -54 48 -48z
M327 615q10 -24 16 -48q-31 -3 -46 40q-21 62 -23 65q-22 30 -55 73q-20 -3 -45 -13q-9 -11 -34.5 -48.5t-25.5 -43.5q-2 -48 -26 -78q-31 0 -31 33q0 44 30 86q12 10 30 33q0 10 4 28q17 36 86 90q9 2 22 -4q36 -5 71 -83q30 -67 30 -115q0 -11 -3 -15z" />
    <glyph glyph-name="atilde" unicode="&#xe3;" horiz-adv-x="481" 
d="M202 225q-21 1 -63 -60q-1 -5 -1 -11q0 -13 19.5 -26.5t32.5 -9.5q48 5 48 60q0 44 -36 47zM399 643q-2 -7 -45 -45q-33 -30 -81 -30q-5 0 -14 2h-13q-38 0 -57 -26q-6 -7 4 -25q23 10 36 12q27 3 59.5 -14.5t48.5 -50.5q0 -15 3 -46q2 -8 8.5 -18.5t17.5 -34.5
q3 -10 -17 -48q-3 -7 -7 -48v-69q-6 -13 -6 -24q0 -28 49.5 -64t52.5 -59q9 -67 -86 -67q-22 0 -72 7l-34.5 16t-55.5 16q-19 0 -56 -21t-62 -18q-59 7 -74 64q-7 27 -7 95q1 25 22 34q12 0 35 8q19 15 154 100q36 23 36 83q0 46 -19 55q-11 6 -20 6q-24 0 -78.5 -50
t-87.5 -44q-41 9 -41 43q0 21 17.5 40.5t42.5 25.5q6 8 20 20q42 21 73 30q-6 19 -33 28t-33 18q-1 3 6.5 22t8.5 23q0 20 2 38q3 24 24 36q34 0 49 4q29 5 57 23q27 0 78 21q18 13 23 52q3 32 22 35q60 4 60 -78q0 -33 -10 -77z" />
    <glyph glyph-name="adieresis" unicode="&#xe4;" horiz-adv-x="481" 
d="M438 55q9 -67 -86 -67q-22 0 -72 7l-34.5 16t-55.5 16q-19 0 -56 -21t-62 -18q-59 7 -74 64q-7 27 -7 95q1 25 22 34q12 0 35 8q19 15 154 100q36 23 36 83q0 46 -19 55q-11 6 -20 6q-24 0 -78.5 -50t-87.5 -44q-41 9 -41 43q0 21 17.5 40.5t42.5 25.5q6 8 20 20
q34 18 81 33q27 13 76 30q27 3 59.5 -14.5t48.5 -50.5q0 -15 3 -46q2 -8 8.5 -18.5t17.5 -34.5q3 -10 -17 -48q-3 -7 -7 -48v-69q-6 -13 -6 -24q0 -28 49.5 -64t52.5 -59zM202 225q-21 1 -63 -60q-1 -5 -1 -11q0 -13 19.5 -26.5t32.5 -9.5q48 5 48 60q0 44 -36 47zM477 768
q4 -20 -22 -58t-52 -37h-48q-48 9 -48 56q0 33 26.5 70.5t57.5 37.5q27 0 53.5 -21t32.5 -48zM246 663q-23 -23 -63 -23q-27 0 -42 10t-32 35q-22 32 -31 41q-33 -14 -38 -14q-15 0 -16 21q6 11 16 11q12 0 33 -17q21 24 44 47q27 28 61 31q53 2 66 -21q18 -31 18 -70
q0 -33 -16 -51z" />
    <glyph glyph-name="aring" unicode="&#xe5;" horiz-adv-x="481" 
d="M438 55q9 -67 -86 -67q-22 0 -72 7l-34.5 16t-55.5 16q-19 0 -56 -21t-62 -18q-59 7 -74 64q-7 27 -7 95q1 25 22 34q12 0 35 8q19 15 154 100q36 23 36 83q0 46 -19 55q-11 6 -20 6q-24 0 -78.5 -50t-87.5 -44q-41 9 -41 43q0 21 17.5 40.5t42.5 25.5q6 8 20 20
q34 18 81 33q27 13 76 30q27 3 59.5 -14.5t48.5 -50.5q0 -15 3 -46q2 -8 8.5 -18.5t17.5 -34.5q3 -10 -17 -48q-3 -7 -7 -48v-69q-6 -13 -6 -24q0 -28 49.5 -64t52.5 -59zM202 225q-21 1 -63 -60q-1 -5 -1 -11q0 -13 19.5 -26.5t32.5 -9.5q48 5 48 60q0 44 -36 47zM318 657
q0 -5 -8 -21q-19 -41 -64 -54q-39 -9 -77 -20q-12 -4 -84 38q-3 1 -16 36q-9 25 -3 75v40q4 27 34 29q14 13 35 28q21 3 64 8q5 0 46 -12t58 -63q7 -42 15 -84zM162 739q-36 -1 -36 -31q0 -20 14 -38.5t32 -18.5q9 0 17 6q34 19 34 55q0 12 -6.5 20.5t-54.5 6.5z" />
    <glyph glyph-name="ae" unicode="&#xe6;" horiz-adv-x="675" 
d="M573 375q-9 -24 -50 -29q-12 -4 -37 -10q-33 -3 -66 -23q-66 -40 -66 -105q0 -55 52 -84q-3 2 43 8.5t79 3.5q37 -4 37 -46q0 -27 -18 -42q-37 -30 -100 -54h-98q-6 0 -30.5 13.5t-29.5 14.5q-42 14 -88 0q-11 -1 -35.5 -14.5t-26.5 -13.5h-76q-57 0 -57 63v142
q13 38 79 41q6 0 27 9.5t28.5 16.5t16.5 7q32 1 50.5 25t18.5 54q0 54 -42 54q-18 0 -40.5 -15.5t-43.5 -32.5q-31 -21 -49 -21q-41 0 -41 44q0 28 26 64q22 32 51 48q13 0 43 8q8 3 35 19q19 14 36 14q21 0 57 -19t49 -19q18 0 53 20q42 24 54 28q39 14 87 6
q84 -12 84 -109q0 -35 -12 -66zM418 457q-27 2 -43.5 -17t-16.5 -43q0 -39 36 -46q9 0 37.5 30t28.5 51q0 22 -42 25zM175 91q38 11 38 48q0 24 -16.5 44.5t-40.5 20.5q-23 0 -39.5 -13.5t-16.5 -34.5q0 -24 19 -46t41 -22q8 0 15 3z" />
    <glyph glyph-name="ccedilla" unicode="&#xe7;" horiz-adv-x="462" 
d="M177 -2q-26 -18 -42 -42q-5 -7 -5 -15q0 -22 68 -42q18 -6 30.5 -33.5t8.5 -45.5q-2 -2 -12 -24q-8 -17 -8 -27q0 -6 2 -11q4 -18 0 -27q-21 -40 -60 -67t-80 -27q-24 0 -43 10l-24 6q-17 5 -26.5 17.5t-35.5 33.5q-15 12 -12 21q5 12 20 12q9 0 36.5 -7.5t44.5 -7.5
q49 0 64 71q6 30 -56 43.5t-56 46.5q1 10 27.5 20t35.5 20q36 44 43 99q-12 0 -33 12q-57 77 -54 168q-7 33 -12 93q5 29 9 59q6 36 21 54q56 69 129.5 109.5t140.5 40.5q14 0 27 -2q36 -4 60 -37q9 -14 6 -53q3 -18 3 -55q-1 -9 -11 -17.5t-22 -8.5q-18 0 -45 23
q-31 25 -42 27h-54q-18 0 -46 -8q-8 -6 -20 -19q-1 -18 -9 -53q-10 -18 -19 -36q-14 -25 -14 -42q0 -7 2 -12q9 -28 31 -69q27 -51 46 -53t44 -14q21 -12 36 -12q11 0 25 3.5t40.5 27.5t39.5 24q17 0 29 -18t12 -34q0 -17 -8 -26q-27 -36 -69 -66q-33 -24 -130 -28z" />
    <glyph glyph-name="egrave" unicode="&#xe8;" horiz-adv-x="456" 
d="M228 462q-20 0 -34 -14.5t-14 -29.5q0 -28 40 -22q6 -2 12 -2q33 0 33 35q0 34 -37 33zM336 579q4 -32 4 -33q14 -9 23 -32.5t13 -27.5q39 -41 39 -86q0 -61 -67 -55h-68q-9 0 -30.5 3t-33.5 3q-41 0 -68 -27q-33 -38 -33 -74q0 -13 5 -25q10 -29 56.5 -64t75.5 -31
q27 5 67 29q36 22 53 22q10 0 20.5 -6t7.5 -21q-3 -10 -6 -21q-12 -52 -67 -85q-12 -8 -98 -44q-7 -3 -39 -4q-34 -2 -52 3q-41 9 -65 58q-4 17 -16 47q-50 85 -50 148q0 32 11 62q-2 18 4 57q18 55 51 99q17 21 53.5 46.5t59.5 25.5q3 0 16.5 5t26.5 8q9 5 23 9l12 33
q1 8 -20 14t-24 13q-13 30 -76 95q-56 55 -56 84q0 27 36 49q12 8 33 2q21 -5 32 -15q57 -62 103 -143q50 -85 44 -121z" />
    <glyph glyph-name="eacute" unicode="&#xe9;" horiz-adv-x="517" 
d="M426 351q-14 -12 -78 -9h-140q-82 0 -82 -56q0 -64 94 -91q6 -2 18 -32t33 -33q18 -3 52.5 41.5t51.5 42.5q33 -3 33 -55q0 -65 -29 -114q-6 -11 -21 -17q-19 -6 -55 -24q-35 -30 -80 -30q-18 0 -37 6q-33 20 -99 48q-14 3 -24 23q-8 13 -15 27q-14 16 -41 61
q-15 23 -15 53q0 18 6 46q8 38 8 45v81q0 63 30 99q16 21 85 68q14 0 41 1q37 5 46 32q5 18 5 51v60q-2 9 -2 18q0 16 13.5 42.5t18.5 44.5q0 27 4 79q3 20 26.5 40t42.5 22q20 3 49 -13.5t37 -37.5q3 -15 -12 -47.5t-30 -60.5q-5 -27 -23 -84q-21 -26 -46 -63q-3 -3 -3 -8
q0 -30 45 -45l48 -24q16 0 43 -15q35 -48 35 -99q0 -45 -33 -73z" />
    <glyph glyph-name="ecircumflex" unicode="&#xea;" horiz-adv-x="465" 
d="M429 352q-8 -34 -66 -30q-27 3 -92 -3h-118q-32 -13 -32 -40q0 -14 23 -71q19 -48 59 -71t80 -17q17 3 46 18t41 15q36 0 36 -33q0 -30 -42.5 -62.5t-72.5 -32.5q-12 0 -42 -19q-36 -23 -48 -26q-11 -3 -27.5 7t-32.5 19q-23 3 -44 7q-36 8 -54 35q-36 58 -55 102
q1 0 13 61q3 29 9 80q5 25 36 81q3 4 26 81q76 79 189 79q64 0 99 -36q70 -73 70 -127q0 -9 -1 -17zM232 379q47 -6 47 38q0 22 -13.5 38.5t-34.5 13.5q-20 -1 -39.5 -27.5t-14.5 -39.5q7 -20 55 -23zM402 615q10 -24 16 -48q-31 -3 -46 40q-21 62 -23 65q-22 30 -55 73
q-20 -3 -45 -13q-9 -11 -34.5 -48.5t-25.5 -43.5q-2 -48 -26 -78q-31 0 -31 33q0 44 30 86q12 10 30 33q0 10 4 28q17 36 86 90q9 2 22 -4q36 -5 71 -83q30 -67 30 -115q0 -11 -3 -15z" />
    <glyph glyph-name="edieresis" unicode="&#xeb;" horiz-adv-x="487" 
d="M388 325q-4 -6 -16 -6q-23 -1 -68 -4q-16 -3 -55 16.5t-68 17.5q-21 0 -48 -25.5t-28 -47.5q0 -15 13 -33q20 -26 23 -32q28 -69 108 -84h90q16 0 43 -10q11 -12 12 -29q2 -16 -7 -22q-81 -60 -140 -60h-70q-57 0 -98 54q-31 54 -63 109v39v120q0 32 35 104q7 22 34 60
q12 4 38 18q36 24 52 28q5 2 44 2h64q57 6 95 -41q33 -42 33 -100q0 -45 -23 -74zM238 412q26 -6 26 17q0 12 -9 21.5t-23 6.5q-27 -6 -27 -33q0 -15 17 -15q7 0 16 3zM477 768q4 -20 -22 -58t-52 -37h-48q-48 9 -48 56q0 33 26.5 70.5t57.5 37.5q27 0 53.5 -21t32.5 -48z
M178 805q53 2 66 -21q18 -31 18 -70q0 -33 -16 -51q-23 -23 -63 -23q-27 0 -41 9q-45 30 -58 104q19 16 39.5 32.5t54.5 19.5z" />
    <glyph glyph-name="igrave" unicode="&#xec;" horiz-adv-x="294" 
d="M252 75q1 -14 -23.5 -42.5t-44.5 -38.5q-12 -2 -30 3q-25 7 -27 7q-24 -6 -93 2q-25 7 -25 40q0 39 30 62q9 4 18 55v68q0 19 -11.5 45.5t-12.5 51.5q13 18 24 54q-3 26 -40 53t-37 40q0 5 3 11t27 13q35 11 41 14q58 27 69 27q13 0 23.5 -7.5t12 -20.5t3.5 -23v-57
q0 -9 12 -28.5t15 -28.5q10 -44 -2 -66q-28 -26 -19 -53q7 -13 21 -40q9 -38 6 -56q-2 -7 -2 -15q0 -28 23 -46q19 -12 39 -24zM282 550q-2 -12 -12.5 -13.5t-17.5 -1.5q-26 0 -54.5 37t-37.5 56q-13 30 -76 95q-56 55 -56 84q0 27 36 49q12 8 33 2q21 -5 32 -15
q54 -60 106 -156q53 -101 47 -137z" />
    <glyph glyph-name="iacute" unicode="&#xed;" horiz-adv-x="306" 
d="M334 801q-1 -18 -24 -44q-25 -31 -30 -40q-6 -33 -22 -81q-30 -56 -44 -126q-1 -11 -18 -15q-3 13 -3 -56v-289q0 -17 9 -50q20 -10 44 -45q3 -13 -13 -23t-29 -17q-41 -26 -87 -26q-72 0 -110 60q-1 3 -1 9q0 15 36 69q25 35 25 71q0 22 -12 60q-4 18 -1 51q4 37 3 52
q-3 12 -38 63q-13 21 -13 54q0 27 10.5 38.5t35 10.5t32.5 2q30 15 46 17q0 22 9 78q12 19 27 58q-1 17 0 47q12 51 26 102q13 36 58 63q5 1 11 1q31 0 66 -43q12 -15 7 -51z" />
    <glyph glyph-name="icircumflex" unicode="&#xee;" horiz-adv-x="294" 
d="M252 75q1 -14 -23.5 -42.5t-44.5 -38.5q-12 -2 -30 3q-25 7 -27 7q-24 -6 -93 2q-25 7 -25 40q0 39 30 62q9 4 18 55v68q0 19 -11.5 45.5t-12.5 51.5q13 18 24 54q-3 26 -40 53t-37 40q0 5 3 11t27 13q35 11 41 14q58 27 93 27q36 0 36 -15q0 -5 -11.5 -17.5t-9.5 -18.5
v-57q0 -9 12 -28.5t15 -28.5q10 -44 -2 -66q-28 -26 -19 -53q7 -13 21 -40q9 -38 6 -56q-2 -7 -2 -15q0 -28 23 -46q19 -12 39 -24zM234 618q9 -23 15 -47q-30 -3 -45 39q-21 62 -23.5 65t-2.5 6q0 6 4.5 17t4.5 17q0 5 -3 6q-19 0 -43 -7q-8 -9 -19 -36t-11 -33
q-3 -50 -27 -78q-32 -2 -32 31q0 24 14 48q18 36 21 44q-2 10 1 31q12 8 29 26q18 34 57 90q7 1 21 -6q49 -6 49 -129q0 -62 -10 -84z" />
    <glyph glyph-name="idieresis" unicode="&#xef;" horiz-adv-x="294" 
d="M252 75q1 -14 -23.5 -42.5t-44.5 -38.5q-12 -2 -30 3q-25 7 -27 7q-24 -6 -93 2q-25 7 -25 40q0 39 30 62q9 4 18 55v68q0 19 -11.5 45.5t-12.5 51.5q13 18 24 54q-3 26 -40 53t-37 40q0 5 3 11t27 13q35 11 41 14q58 27 69 27q13 0 23.5 -7.5t12 -20.5t3.5 -23v-57
q0 -9 12 -28.5t15 -28.5q10 -44 -2 -66q-28 -26 -19 -53q7 -13 21 -40q9 -38 6 -56q-2 -7 -2 -15q0 -28 23 -46q19 -12 39 -24zM277 726q3 -17 -19.5 -49t-44.5 -31h-41q-42 9 -42 48q0 27 23.5 59.5t50.5 32.5q22 0 44.5 -18t28.5 -42zM34 724q39 2 50 -13q13 -23 13 -50
q0 -21 -13.5 -33.5t-38.5 -15.5q-24 -2 -38 6q-33 21 -42 70q14 12 29 23.5t40 12.5z" />
    <glyph glyph-name="eth" unicode="&#xf0;" horiz-adv-x="559" 
d="M567 616q27 0 27 -34q0 -20 -10.5 -33.5t-25.5 -5.5q-26 9 -26 43q0 35 21 35q6 0 14 -5zM334 325q6 24 -11 54t-37 30q-6 0 -12 -6q-48 -21 -55 -25q-36 -21 -38 -42q-3 -50 -3 -66q0 -111 71 -144q6 -2 10 -2q14 0 18.5 25.5t7.5 49.5q22 54 49 126zM441 769
q-14 -22 -72 -42q16 -28 49 -82q18 -20 41 -53q1 -30 15 -85q34 -68 34 -143v-103q6 -14 6 -26q0 -24 -24 -55q-19 -24 -39 -50q-24 -42 -48.5 -86t-51.5 -62q-5 -2 -9 -2q-9 0 -28 13l-19 13q-67 4 -137.5 56.5t-117.5 142.5q-6 9 -1 51v113q-2 9 0 22q3 18 3 20
q0 58 63 91q21 12 82 29q11 3 27.5 -16t32.5 -19q39 0 39 39q0 14 -24.5 34t-24.5 26q0 54 -56 128q-18 -5 -72 -33q-39 -21 -75 -17q-43 5 -43 51q0 60 49 107q-70 45 -70 94q0 62 49 62q11 0 35 -5.5t36 -5.5t42 -36l36 -42q25 -9 60 -22q7 -6 18 -18q36 -2 72 -9
q1 -2 37 8.5t50 10.5q6 0 9 -1q34 -27 34 -66q0 -17 -7 -32z" />
    <glyph glyph-name="ntilde" unicode="&#xf1;" horiz-adv-x="589" 
d="M349 184v71q0 58 -1 63l-36 78q-15 33 -51 33q-39 0 -66 -33q-33 -38 -18 -83v-138q-3 -10 -3 -21q0 -39 30.5 -78t65.5 -42q10 -1 30 27q51 74 51 89q0 3 -2 13v21zM474 688q-2 -7 -45 -45q-33 -30 -81 -30q-5 0 -14 2h-13q-60 0 -60 -33q0 -8 24 -39q28 16 40 16
q51 0 108 -44t57 -94q0 -9 -3 -16v-77q0 -72 -22 -112q-9 -15 -5 -30q12 -20 33 -60q11 -21 11 -71q0 -78 -42 -78h-60q-3 0 -62 27q-18 9 -36 7t-45 3t-39 2q-10 -1 -27.5 -21.5t-24.5 -23.5q-44 -25 -96 -3q-15 2 -48 11q-35 18 -35 61q0 18 8 32q58 87 58 109q0 6 -8 33
t-8 65v88q0 20 -15 39.5t-17 35.5q-4 30 38 58t72 28q6 0 9 -2q52 -25 106 -9q-9 11 -10 18q-5 26 -30 35q-32 10 -38 19q-1 3 6.5 22t8.5 23q0 20 2 38q3 24 24 36q34 0 49 4q29 5 57 23q27 0 78 21q18 13 23 52q3 32 22 35q60 4 60 -78q0 -33 -10 -77z" />
    <glyph glyph-name="ograve" unicode="&#xf2;" horiz-adv-x="589" 
d="M372 205v102q3 30 -33 72q-32 38 -62 53q-13 7 -28 7q-47 0 -85 -57t-38 -106q0 -12 3 -21q6 -15 12 -35q1 -34 39.5 -77t75.5 -43q23 0 39 17l48 36q29 24 29 52zM372 550q6 -15 1 -28q8 -12 25 -30t52 -56q3 -13 13 -34q56 -68 47 -197q-2 -9 -18 -45q-12 -7 -23 -15
q-15 -12 -18 -30q-9 -33 -31 -52q-41 -33 -47 -41q-1 0 -37 -4q-29 -2 -81 -9q-68 -20 -125 -2q-9 3 -63 38q-21 6 -55 19q-21 14 -8 56q0 3 6 52v117q-4 11 -4 21q0 27 39 78q4 17 24 48q19 21 58 54q18 12 48 17q42 6 50 7q25 3 49 5q32 6 27 37q-6 6 -15 17
q-27 36 -36 55q-13 30 -76 95q-56 55 -56 84q0 27 36 49q12 8 33 2q21 -5 32 -15q54 -60 106 -156q53 -101 47 -137z" />
    <glyph glyph-name="oacute" unicode="&#xf3;" horiz-adv-x="589" 
d="M378 343q-11 62 -38 83q-39 33 -79 25q-24 -1 -48 -3q-32 -4 -44.5 -21.5t-18.5 -54.5q-3 -21 -6 -44q-8 -10 -18 -28q-11 -26 -11 -42q0 -26 29 -60q78 -98 123 -101t69 18q54 53 54 129q0 27 -12 99zM424 801q-1 -18 -24 -44q-25 -31 -30 -40q-6 -33 -22 -81
q-29 -53 -38 -93q33 7 74.5 -20.5t80.5 -57.5q3 -9 10 -26q17 -22 42 -66q12 -30 12 -76q0 -89 -37 -137q-57 -76 -87 -105q-57 -54 -108 -54q-9 0 -20 2q-1 0 -69 -2q-24 -1 -76 33q-15 6 -41 20q-49 45 -64 75q0 12 -5 31q-22 63 -22 125q0 73 33 142q7 18 96 75
q67 44 93 41q-2 24 7 81q12 19 27 58q-1 17 0 47q12 51 26 102q13 36 58 63q5 1 11 1q31 0 66 -43q12 -15 7 -51z" />
    <glyph glyph-name="ocircumflex" unicode="&#xf4;" horiz-adv-x="589" 
d="M510 205q-2 -9 -18 -45q-12 -7 -23 -15q-15 -12 -18 -30q-9 -33 -31 -52q-41 -33 -47 -41q-1 0 -37 -4q-29 -2 -81 -9q-68 -20 -125 -2q-9 3 -63 38q-21 6 -55 19q-21 14 -8 56q0 3 6 52v117q-4 11 -4 21q0 27 39 78q4 17 24 48q19 21 58 54q18 12 48 17q42 6 50 7
q19 8 37 15q26 11 44 11q24 0 42 -17q19 -10 51 -33q16 -16 51 -54q3 -13 13 -34q56 -68 47 -197zM372 205v102q3 30 -33 72q-32 38 -62 53q-13 7 -28 7q-47 0 -85 -57t-38 -106q0 -12 3 -21q6 -15 12 -35q1 -34 39.5 -77t75.5 -43q23 0 39 17q24 18 50 36q30 24 27 52z
M402 615q10 -24 16 -48q-31 -3 -46 40q-21 62 -23 65q-22 30 -55 73q-20 -3 -45 -13q-9 -11 -34.5 -48.5t-25.5 -43.5q-2 -48 -26 -78q-31 0 -31 33q0 44 30 86q12 10 30 33q0 10 4 28q17 36 86 90q9 2 22 -4q36 -5 71 -83q30 -67 30 -115q0 -11 -3 -15z" />
    <glyph glyph-name="otilde" unicode="&#xf5;" horiz-adv-x="555" 
d="M499 226q0 -79 -13 -106q-21 -41 -113 -104q-18 -13 -57 -16q-63 -3 -136 1q-45 3 -63 24l-84 90q-29 30 -36 65q-3 9 2 29t5 22q3 46 12 105q12 22 47 72q34 30 78 79q1 6 1 11q0 18 -30 31q-34 15 -37 20q-3 4 5 22t8 24q2 18 4 39t23 35q33 0 50 3q28 6 57 24
q1 1 34 4q29 3 44.5 17.5t26.5 74.5q16 9 30 9q48 0 48 -87q0 -45 -11 -66q-40 -78 -183 -77q-6 0 -17 -7.5t-11 -13.5q3 -42 36 -52q10 -2 64 -2h56q-9 0 15 2q15 3 25.5 -4t55.5 -49q49 -46 52 -57q12 -40 12 -93v-69zM372 276q0 13 -17 63q0 18 -13 54q-33 49 -107 45
q-46 -3 -75 -56q-24 -45 -24 -93q0 -7 -5 -27.5t-5 -29.5q0 -7 1 -12q38 -76 62 -106q48 -62 103 -53q81 44 81 171q0 20 -1 44z" />
    <glyph glyph-name="odieresis" unicode="&#xf6;" horiz-adv-x="589" 
d="M510 205q-2 -9 -18 -45q-12 -7 -23 -15q-15 -12 -18 -30q-9 -33 -31 -52q-41 -33 -47 -41q-1 0 -37 -4q-29 -2 -81 -9q-68 -20 -125 -2q-9 3 -63 38q-21 6 -55 19q-21 14 -8 56q0 3 6 52v117q-4 11 -4 21q0 27 39 78q4 17 24 48q19 21 58 54q18 12 48 17q42 6 50 7
q19 8 37 15q26 11 44 11q24 0 42 -17q19 -10 51 -33q16 -16 51 -54q3 -13 13 -34q56 -68 47 -197zM372 205v102q3 30 -33 72q-32 38 -62 53q-13 7 -28 7q-47 0 -85 -57t-38 -106q0 -12 3 -21q6 -15 12 -35q1 -34 39.5 -77t75.5 -43q23 0 39 17q24 18 50 36q30 24 27 52z
M477 768q4 -20 -22 -58t-52 -37h-48q-48 9 -48 56q0 33 26.5 70.5t57.5 37.5q27 0 53.5 -21t32.5 -48zM178 805q53 2 66 -21q18 -31 18 -70q0 -33 -16 -51q-23 -23 -63 -23q-27 0 -41 9q-45 30 -58 104q19 16 39.5 32.5t54.5 19.5z" />
    <glyph glyph-name="oslash" unicode="&#xf8;" horiz-adv-x="568" 
d="M538 271q0 -25 -37 -78q1 -15 3 -42q-2 -13 -21 -37q-26 -33 -29 -38q-3 -15 -15 -40q-21 -30 -82 -42q-5 -2 -18.5 1t-14.5 3h-110q2 0 -12.5 -3t-20.5 -1q-25 7 -49 13q-30 11 -53 39q-61 -13 -73 8q-9 57 21 78q-20 30 -26 91q-1 14 14 36q19 29 21 35q4 21 7 42
q8 37 24 52q45 44 90 89q53 42 107 42h88q14 0 51 -35q20 -18 38 -37q10 6 21 6q21 0 38 -16.5t17 -34.5q0 -15 -15 -24q-4 -35 2 -44q12 -13 23 -28t11 -35zM331 363q5 9 5 18q0 22 -27 36.5t-56 14.5q-10 0 -18 -2q-39 -10 -49 -39q-5 -18 -14 -43q-37 -50 -37 -81
q0 -9 1 -18q15 -8 41 -8q16 8 47.5 37t61.5 46q36 21 45 39zM396 184q12 17 9 69q-3 51 -14 59h-37q-23 -14 -44 -36q-25 -24 -33 -30q-43 -30 -96 -75q-3 -3 -3 -9q0 -15 15 -33t30 -18q6 0 12 4q32 36 90 39q54 5 71 30z" />
    <glyph glyph-name="ugrave" unicode="&#xf9;" horiz-adv-x="540" 
d="M265 586l20 -25q6 0 20 -4.5t17 -4.5q17 -2 35 6q25 12 34 13q20 3 30 0q32 -9 32 -49q0 -11 -2 -20v-268v-41q3 -13 27 -75q9 -22 6 -81q-1 -16 -15 -27q-15 -3 -40 -7q-20 -12 -59 -27q-10 -3 -36.5 10.5t-38.5 13.5h-60q-10 0 -30 -12q-24 -15 -30 -18q-37 -15 -55 0
q-57 45 -60 48q-29 27 -29 49q0 3 -15 28.5t-19 36.5q-5 13 12 46q21 42 24 57q13 89 -3 150q-20 26 -42 74q-14 87 43 93h59q45 0 49 -78q3 -65 2 -188q-2 -63 8 -77t19 -37q1 -31 23.5 -50.5t51.5 -19.5q46 0 66 43v89l15.5 30t15.5 52q0 9 -1 17q-2 3 -18 25
q-14 18 -12 32q12 73 -87 81q-6 0 -12 7.5t-6 10.5q-2 12 1 43q-7 2 -4 17t-5 24q-27 36 -36 55q-13 30 -76 95q-56 55 -56 84q0 27 36 49q12 8 33 2q21 -5 32 -15q40 -45 82 -141q47 -104 54 -116z" />
    <glyph glyph-name="uacute" unicode="&#xfa;" horiz-adv-x="556" 
d="M511 40q-9 3 -36 -15q-31 -21 -52 -24q-11 -3 -39 -3h-260q-79 0 -79 80v163q0 72 -3 81l-18 48q-15 44 -15 66q-8 18 -12 47q9 33 57 33h69q27 0 27 -125v-61v-42q0 -5 24 -56q1 -3 -15 -43q-20 -48 -2 -63q32 -26 92 -26q76 0 75 59v73q0 44 13 51q21 11 42 21
q30 17 30 32q0 7 -5 14t-85 55q-69 42 -69 72q0 21 29 40q39 27 78 32q48 4 70 -9q15 -9 27 -47l-10 -69q-8 -46 15 -156v-90q0 -16 12 -36q15 -24 31 -24q5 0 9 2q23 -9 23 -30q0 -23 -23 -50zM364 801q-1 -18 -24 -44q-25 -31 -30 -40q-6 -33 -22 -81q-30 -56 -44 -126
q0 -5 -9.5 -11t-12.5 -4q-11 -3 -20 -3q-42 0 -42 61q0 21 9 71q12 19 27 58q-1 17 0 47q12 51 26 102q13 36 58 63q5 1 11 1q31 0 66 -43q12 -15 7 -51z" />
    <glyph glyph-name="ucircumflex" unicode="&#xfb;" horiz-adv-x="540" 
d="M292 574q11 15 11 44q0 37 -14 54q-22 30 -55 73q-20 -3 -45 -13q-9 -11 -34.5 -48.5t-25.5 -43.5q-2 -36 -18 -66q25 -37 28 -101t2 -187q-2 -63 8 -77t19 -37q1 -31 23.5 -50.5t51.5 -19.5q46 0 66 43v89l15.5 30t15.5 52q0 9 -1 17q-2 3 -18 25q-14 18 -12 32
q12 73 -87 81q-6 0 -12 7.5t-6 10.5q4 34 30.5 60.5t57.5 24.5zM342 615l9.5 -11.5t12.5 -20.5q3 -1 10.5 -7t16.5 -5q20 3 30 0q32 -9 32 -49q0 -11 -2 -20v-268v-41q3 -13 27 -75q9 -22 6 -81q-1 -16 -15 -27q-15 -3 -40 -7q-20 -12 -59 -27q-10 -3 -36.5 10.5t-38.5 13.5
h-60q-10 0 -30 -12q-24 -15 -30 -18q-37 -15 -55 0q-57 45 -60 48q-29 27 -29 49q0 3 -15 28.5t-19 36.5q-5 13 12 46q21 42 24 57q13 89 -3 150q-20 26 -42 74q-14 87 43 93l42 27q-1 7 -1 16q0 44 30 86q12 10 30 33q0 10 4 28q17 36 86 90q9 2 22 -4q36 -5 71 -83
q30 -67 30 -115q0 -11 -3 -15z" />
    <glyph glyph-name="udieresis" unicode="&#xfc;" horiz-adv-x="540" 
d="M484 37q-1 -16 -15 -27q-15 -3 -40 -7q-20 -12 -59 -27q-10 -3 -36.5 10.5t-38.5 13.5h-60q-10 0 -30 -12q-24 -15 -30 -18q-37 -15 -55 0q-57 45 -60 48q-29 27 -29 49q0 3 -15 28.5t-19 36.5q-5 13 12 46q21 42 24 57q13 89 -3 150q-20 26 -42 74q-14 87 43 93h59
q45 0 49 -78q3 -65 2 -188q-2 -63 8 -77t19 -37q1 -31 23.5 -50.5t51.5 -19.5q46 0 66 43v89l15.5 30t15.5 52q0 9 -1 17q-2 3 -18 25q-14 18 -12 32q12 73 -87 81q-6 0 -12 7.5t-6 10.5q4 33 40 49q32 17 68 12q15 -1 40 8q32 12 39 13q20 3 30 0q32 -9 32 -49
q0 -11 -2 -20v-268v-41q3 -13 27 -75q9 -22 6 -81zM417 768q4 -20 -22 -58t-52 -37h-48q-48 9 -48 56q0 33 26.5 70.5t57.5 37.5q27 0 53.5 -21t32.5 -48zM118 805q53 2 66 -21q18 -31 18 -70q0 -33 -16 -51q-23 -23 -63 -23q-27 0 -41 9q-45 30 -58 104q19 16 39.5 32.5
t54.5 19.5z" />
    <glyph glyph-name="yacute" unicode="&#xfd;" horiz-adv-x="504" 
d="M426 435q-2 -20 -6 -53q-3 -16 -9 -30q-21 -25 -44 -78q-1 -43 -27 -105q-33 -75 -37 -96q-15 -64 -31 -64t-35.5 -13t-19.5 -26q0 -6 5 -12q25 -26 25 -56q0 -31 -44 -94t-46 -93q0 -11 -15.5 -23.5t-26.5 -11.5h-75q-46 14 -46 63q0 51 43 74q14 0 45 4q45 15 60 68
q35 114 29 165q-2 25 -24 63q-32 57 -33 58q-6 29 -24 81q-11 32 -39 108q-24 26 -54 78q-15 63 28.5 69t71.5 6q108 0 108 -61q0 7 -13 -75q0 -6 12 -53q0 -18 3 -51q6 -18 15.5 -27t24.5 -9q42 0 56 36q-2 17 4 51q15 41 15 62q0 30 -28 70q-12 18 -11 24q8 18 17 20
q84 10 90 10q57 0 57 -31q0 -18 -21 -48zM352 867q-1 -17 -24 -44q-25 -31 -30 -40q-6 -33 -22 -81q-30 -56 -44 -125q0 -6 -9.5 -12t-12.5 -4q-11 -3 -20 -3q-42 0 -42 61q0 21 9 71q12 19 27 58q-1 17 0 48q12 51 26 102q13 36 58 62q5 1 11 1q31 0 66 -42q12 -16 7 -52z
" />
    <glyph glyph-name="thorn" unicode="&#xfe;" horiz-adv-x="556" 
d="M150 274q-8 -67 3.5 -95t40 -52t56.5 -25q21 0 65 37q33 29 46 44q18 24 18 76q0 24 -9 83q-1 13 -21 28q-13 9 -25 18q-6 14 -32 50q-16 16 -72 16q-40 0 -57 -12q-9 -36 -15 -88zM36 682v51q-3 9 -45 77q-9 13 -5 37q9 36 35 41q33 0 100 3q24 3 40 -15t14 -44l-9 -169
q0 -24 -1 -48q-5 -29 -26 -74l23 -24q7 -7 25 -6q36 3 27 3h57q80 0 107 -7.5t57 -50.5q40 -59 43 -65q14 -25 14 -58v-108q0 -119 -122 -156q-13 -2 -34 -5q-38 -21 -114 -52q-15 1 -45 -3q-33 -21 -33 -68q0 -30 15 -52q18 -27 19 -62q5 -48 9 -60q5 -16 29.5 -26.5
t31.5 -22t7 -24.5q0 -60 -77 -60q-33 0 -105 16q-27 -1 -88 5q-14 1 -20 19q-4 17 0 27q8 20 35.5 32.5t35.5 27.5q16 38 9 95v66v43q-3 14 -32 71q-12 24 -1 37q37 54 37 120q0 14 -1.5 39.5t-1.5 37.5q-9 -9 -10 -14v44q-6 12 -18 33q0 16 -6 48q-3 10 -3 19q0 14 12.5 35
t12.5 33q0 6 -2 18t-2 16q0 8 6 9v171z" />
    <glyph glyph-name="ydieresis" unicode="&#xff;" horiz-adv-x="504" 
d="M426 435q-2 -20 -6 -53q-3 -16 -9 -30q-21 -25 -44 -78q-1 -43 -27 -105q-33 -75 -37 -96q-15 -64 -31 -64t-35.5 -13t-19.5 -26q0 -6 5 -12q25 -26 25 -56q0 -31 -44 -94t-46 -93q0 -11 -15.5 -23.5t-26.5 -11.5h-75q-46 14 -46 63q0 51 43 74q14 0 45 4q45 15 60 68
q35 114 29 165q-2 25 -24 63q-32 57 -33 58q-6 29 -24 81q-11 32 -39 108q-24 26 -54 78q-15 63 28.5 69t71.5 6q108 0 108 -61q0 7 -13 -75q0 -6 12 -53q0 -18 3 -51q6 -18 15.5 -27t24.5 -9q42 0 56 36q-2 17 4 51q15 41 15 62q0 30 -28 70q-12 18 -11 24q8 18 17 20
q84 10 90 10q57 0 57 -31q0 -18 -21 -48zM432 768q4 -20 -22 -58t-52 -37h-48q-48 9 -48 56q0 33 26.5 70.5t57.5 37.5q27 0 53.5 -21t32.5 -48zM133 805q53 2 66 -21q18 -31 18 -70q0 -33 -16 -51q-23 -23 -63 -23q-27 0 -41 9q-45 30 -58 104q19 16 39.5 32.5t54.5 19.5z
" />
    <glyph glyph-name="dotlessi" unicode="&#x131;" horiz-adv-x="294" 
d="M252 75q1 -14 -23.5 -42.5t-44.5 -38.5q-12 -2 -30 3q-25 7 -27 7q-24 -6 -93 2q-25 7 -25 40q0 39 30 62q9 4 18 55v68q0 19 -11.5 45.5t-12.5 51.5q13 18 24 54q-3 26 -40 53t-37 40q0 5 3 11t27 13q35 11 41 14q58 27 69 27q13 0 23.5 -7.5t12 -20.5t3.5 -23v-57
q0 -9 12 -28.5t15 -28.5q10 -44 -2 -66q-28 -26 -19 -53q7 -13 21 -40q9 -38 6 -56q-2 -7 -2 -15q0 -28 23 -46q19 -12 39 -24z" />
    <glyph glyph-name="Lslash" unicode="&#x141;" horiz-adv-x="759" 
d="M441 522q-8 -9 -95 -47q-76 -30 -79 -64v-212q0 -25 24 -66.5t45 -41.5q12 0 36 13.5t39 13.5h67q38 0 47 42q10 50 27 57q12 5 46 6q44 3 57 -10q6 -5 6 -12q0 -9 -16.5 -29.5t-17.5 -33.5q4 -36 0 -98q-15 -34 -51 -40q-3 -2 -62 -2h-360q-61 0 -93 -22q-4 -3 -21 -5
q-19 -1 -29 5t-14 18q-2 9 6 28q9 27 12 42q6 42 14 47.5t19 35.5q3 7 18 7q21 0 24 2q28 15 28 60q0 34 -15 70q5 44 -1 59t-30 19l-60 -25q-3 12 -17.5 27.5t-14.5 20.5q0 15 19.5 42t30.5 33l33 13q-2 14 6 35q1 3 19 30q15 21 15 34q-1 54 -12.5 67.5t-23.5 27.5
q-4 7 -21 18q-22 13 -25 16q-24 21 -24 51q0 11 4 18q9 18 42 18q105 0 273 2q33 0 33 -18q3 -39 -41 -52t-41 -56l4 -78l32 -11q64 27 105 27q45 0 45 -36q0 -19 -12 -46z" />
    <glyph glyph-name="lslash" unicode="&#x142;" horiz-adv-x="280" 
d="M256 522l-64 -35v-181q0 -24 -9 -63t-9 -57q0 -45 34.5 -81t34.5 -69q0 -29 -24 -50h-176q-18 3 -21 5q-15 4 -19 16q-5 12 8.5 28.5t25.5 30.5q15 25 15 54v45q15 24 32 73q6 105 -2 131q-9 18 -19 49l-60 -31q-3 12 -19.5 26t-16.5 22q0 15 16.5 42t26.5 33l75 40v98
l3 24q2 16 -1 30q-3 19 -14 39q-15 13 -37 39q-3 7 -3 13q0 23 29 41t58 19q12 5 34 12q9 2 34 -5t28 -20q3 -11 -6 -27q-14 -23 -15 -32q-9 -39 -3 -79v-101q24 9 40 9q33 0 33 -37q0 -21 -9 -51z" />
    <glyph glyph-name="OE" unicode="&#x152;" horiz-adv-x="1270" 
d="M645 274v218q0 49 1 28q-1 15 -19 42q-11 12 -24 29q-53 123 -129 130q-9 6 -26 14q-40 10 -73 10q-48 0 -101 -22q-25 -11 -57 -30q-66 -111 -66 -162v-119q0 -45 17 -78q6 -25 15 -55q25 -32 57 -92q28 -51 46 -69q30 -28 81 -28h87q2 0 23.5 8t27.5 10q60 13 100 61
t40 105zM1201 135q-22 -21 -22 -50q1 -33 0 -34q-26 -45 -93 -45q-29 0 -74 9q-31 6 -64 12q-8 1 -59 -20q-9 -4 -22 -3q-21 3 -20 3h-90q-48 0 -65 -7.5t-50 -20.5q-23 -6 -45.5 14t-25.5 41q-106 -42 -121 -42h-105q-23 0 -44 15q-34 23 -40 26q-21 6 -57 19
q-12 11 -38 29q-25 12 -51 22q-37 21 -40 51q-2 8 -21 32q-29 31 -30 33q-2 16 -8 49q-10 50 -10 92v136q0 56 16 137q12 10 35.5 35t74.5 83q7 8 24.5 11t24.5 7q59 45 107 45h133q23 0 40 12t37 11q45 -2 99 -26q1 0 43 18q24 11 41 11q21 0 39.5 -16.5t30.5 -13.5
q35 4 71 21q28 13 66 13h156q63 0 63 -33v-15q-2 -12 -2 -18v-61q14 -47 -12 -62q-13 -7 -39 -3q-16 3 -26.5 21t-21 38.5t-60.5 20.5h-79q-69 0 -69 -62q0 -19 7 -54q9 -43 11 -52q9 -20 9 -32v-58q10 -17 33 -17q28 0 60 15q24 3 67 21q14 18 44 50q12 10 19 3
q32 -33 32 -47q0 -3 -3 -12.5t-3 -18.5v-60q0 1 4 -21q3 -17 0 -24q-6 -15 -21.5 -19.5t-27.5 -1.5q-14 15 -47 39q-16 9 -75 9h-58q-9 0 -24 -11v-3q0 -12 -12 -39q-9 -19 -17 -39q2 -10 17 -76q1 -30 1 -60q6 -41 47 -41h145q30 5 74 41q57 49 69 57q7 4 13 4
q18 0 31.5 -21.5t13.5 -44.5q0 -13 -6 -22z" />
    <glyph glyph-name="oe" unicode="&#x153;" horiz-adv-x="807" 
d="M759 141q0 -33 -17 -53q-78 -90 -160 -88h-68q-27 4 -73 16q-11 3 -78 -12q-11 -3 -89 -4q-111 -3 -153 18t-72 63q-18 24 -19 54v45q-2 13 -18.5 41.5t-16.5 51.5q0 7 2 15q13 15 28 54q3 42 23 69q18 19 34 39q51 57 129 72q42 7 96 22q6 3 24 -7q27 -15 45 -21
q39 -14 71 -14q12 0 21 2q51 15 112 15q191 0 191 -140q0 -21 -5 -45q-6 -33 -106 -33q-47 0 -98 8q-88 12 -88 -65q0 -39 27.5 -73.5t69.5 -37.5q18 -10 47 -19q21 0 60 33.5t55 33.5q26 0 26 -40zM586 372q20 4 20 19q0 12 -12 22.5t-24 6.5q-15 -6 -15 -24q0 -26 22 -26
q5 0 9 2zM358 225v81q-12 96 -49 135q-21 24 -48 13q-80 -30 -105 -70q-18 -29 -18 -89v-69q-3 -9 -3 -19q0 -42 38 -82t83 -40q32 0 57 20q47 42 47 99q0 10 -2 21z" />
    <glyph glyph-name="Scaron" unicode="&#x160;" horiz-adv-x="552" 
d="M361 993q-12 -9 -30 -32q0 -9 -6 -28q-10 -21 -22 -41.5t-29 -32.5q41 -10 81 -22q51 -15 77 -35q21 -16 21 -54q0 -16 -6 -51.5t-8 -50.5q0 -21 -36 -31q-7 -2 -15 -2q-25 0 -52 45q-35 60 -54 74q-26 21 -65 21q-61 0 -90 -54q-21 -39 0 -77q21 -36 69 -73
q36 -26 72 -50q27 -28 54 -57q47 -49 74 -63q33 -16 52 -60q42 -99 42 -121q0 -11 -3 -23q-10 -13 -34 -42q-14 -22 -45 -61q-24 -12 -65 -39q-34 -30 -70 -38h-107q-117 38 -159 59q-18 10 -21 55q-6 95 -6 104q0 19 17.5 32.5t36.5 13.5q14 0 23 -7q16 -15 16 -42v-50
q9 -72 87 -72q36 0 69 17q20 3 56 22q33 33 33 68q0 33 -30 58q-98 78 -245 228q-3 14 -13 38q-38 52 -29 162q2 6 36 60q12 18 23 34q18 26 31 27q38 6 47.5 13t18.5 34l11 34q-33 23 -56 80q-21 51 -21 87q0 22 12 22q33 3 59 -40q18 -32 36 -63q7 -9 30 -35q9 3 25 12
q60 65 60 78q3 29 24 53q42 0 42 -35q0 -27 -18 -49z" />
    <glyph glyph-name="scaron" unicode="&#x161;" horiz-adv-x="393" 
d="M298 367q-6 -3 -10 -3q-15 0 -43.5 31t-48.5 31q-10 0 -21 -6q-31 -21 -31 -44q0 -36 64 -70q56 -32 90 -32q15 -25 30 -51q27 -55 27 -105q0 -70 -57 -120q-19 2 -81 -7q-1 -2 -22 -14t-35 -12q-10 0 -19 6q-59 35 -72 35q-68 -5 -68 67q0 15 3 32q8 33 35 33
q34 0 73 -42q18 -18 59 -18q10 0 16 4q24 24 24 48q0 35 -67 80q-90 61 -101 73q-1 14 -9 39q-13 18 -28 59q0 10 13.5 29.5t14.5 27.5q17 106 120 106q38 0 78.5 -18t65.5 -16q48 -36 48 -78q0 -39 -48 -65zM294 736q-14 -9 -32 -31q0 -11 -4 -29q-26 -48 -30 -54
q-21 -25 -60 -33q-8 -1 -21 6q-39 6 -83 89q-40 75 -40 117q0 15 12 15q31 3 58 -41q18 -31 35 -63q7 -10 30 -34q10 3 25 12q60 64 62 78q3 28 24 52q42 0 42 -34q0 -27 -18 -50z" />
    <glyph glyph-name="Ydieresis" unicode="&#x178;" 
d="M780 817q27 -6 27 -33q0 -19 -14.5 -36.5t-33.5 -18.5q-29 1 -75 -8q-18 -7 -30 -36q-9 -22 -20 -45q-18 -18 -52 -55q-30 -44 -41 -90q-4 -17 -3 -38q3 -19 0 -28q-4 -12 -23 -25.5t-23 -28.5q10 -21 13 -51q-27 -45 -27 -77q0 -43 50 -75q79 -52 79 -129q0 -69 -84 -58
h-99q-34 4 -93 18q-21 -3 -66 1q-19 11 -61 29q-33 7 -87 25q-33 20 -33 57q0 26 27 35q27 7 52 -2q3 -1 25 -22t38 -21q9 0 18 6q48 27 68 42q40 34 45 70q0 8 -5.5 26t-5.5 24q-4 52 -30 103q-1 17 -9 47q-6 13 -30 38.5t-28 33.5q-30 49 -59 100q-45 65 -94 66
q-38 2 -73 36.5t-35 68.5q0 21 15 35q19 19 76 19q47 0 72 -15q18 -16 56 -37q13 -5 37 10q32 18 41 20q57 12 78 -5q12 -9 10 -31q-1 -23 -12.5 -33.5t-26.5 -34.5q-6 -16 32 -76q10 -21 21 -42q16 -27 36 -32q13 -3 34 7.5t32 33.5q0 15 3 42q9 24 19 72q5 33 -4 49
q-14 21 -14 38q0 25 30 33q17 -2 51 -2q18 12 54 26q6 1 30 -9.5t32 -10.5q30 0 90 -6zM582 993q4 -20 -22 -58t-52 -37h-48q-48 9 -48 56q0 33 26.5 70.5t57.5 37.5q27 0 53.5 -21t32.5 -48zM283 1030q53 2 66 -21q18 -31 18 -70q0 -33 -16 -51q-23 -23 -63 -23
q-27 0 -41 9q-45 30 -58 104q19 16 39.5 32.5t54.5 19.5z" />
    <glyph glyph-name="Zcaron" unicode="&#x17d;" horiz-adv-x="817" 
d="M759 88q-2 -16 -14 -24q-82 -57 -114 -57q-16 0 -43 14q-36 19 -48 22h-27h-101q-19 0 -49 -13q-36 -17 -50 -20q-31 2 -94 -1q-6 -2 -30 -9.5t-26 -7.5h-76q-50 15 -50 74q0 22 9 63q3 9 45 40q17 12 65 63q6 6 6.5 20.5t3.5 20.5q9 13 89 102q60 69 70 112q3 14 32 54
q15 18 29 37t14 41q0 15 -10.5 28t-48 20.5t-58.5 4.5q-58 -5 -117 -8q-51 -12 -87 -87q-9 -18 -30 -34q-31 -23 -48 1q-12 15 -12 35q0 -3 18 76q-1 32 6 87q3 8 23.5 35.5t30.5 29.5q8 3 53 -35q7 -7 29 -6.5t29 -3.5q36 -20 56 -20q19 0 51 15q12 6 51 6h205q74 5 74 -55
q0 -57 -69 -168q-20 -30 -36 -47q-23 -24 -47 -57q-4 -18 -25 -54q-36 -43 -105 -121q-35 -35 -35 -62q0 -24 29 -36q10 -6 30 8q25 15 28 16q6 2 24 -7t23 -11q9 -1 33.5 9.5t33.5 11.5q39 5 56 9q33 8 61 24q53 29 72 26q75 -12 75 -108q0 -23 -4 -53zM472 973
q-12 -9 -30 -31q0 -11 -4 -29q-26 -48 -30 -54q-21 -25 -60 -33q-8 -1 -21 6q-39 6 -83 89q-40 75 -40 117q0 13 12 15q31 1 58 -41q17 -31 35 -63q7 -10 30 -36q10 3 25 14q60 64 62 78q3 28 24 52q40 0 40 -34q0 -27 -18 -50z" />
    <glyph glyph-name="zcaron" unicode="&#x17e;" horiz-adv-x="517" 
d="M450 103q0 -21 -24 -46q-9 -14 -33 -41q-8 -6 -24 -6q-24 2 -27 2q-9 -2 -31 -8.5t-23 -6.5h-260q-28 25 -28 63q0 55 57 123q4 15 21 45q28 25 85 88q23 24 11 60q-12 38 -54 38q-18 0 -33 -9q-3 -2 -30 -30q-21 -21 -35 -15q-27 12 -24 30q-1 34 3 100q3 26 21 47
q3 4 9 4q9 0 28 -10.5t23 -10.5q32 -1 95 -6q27 -1 64.5 9.5t44.5 8.5q14 -61 44 -61q4 0 10 1q9 14 19.5 28t24.5 14q37 -1 37 -37q0 -35 -27 -86q-9 -19 -52 -64q-102 -74 -102 -156q0 -26 13 -50q5 -9 30 -13q24 12 80 72q42 46 79 42q2 -2 8 -24v-95zM330 727
q-12 -9 -30 -31q0 -11 -5 -29q-25 -48 -30 -54q-21 -25 -60 -33q-7 -1 -21 6q-39 6 -82 89q-41 75 -41 117q0 13 12 15q32 1 59 -41q16 -31 34 -63q8 -10 30 -34q11 3 26 12q60 64 61 78q3 28 24 52q41 0 41 -34q0 -27 -18 -50z" />
    <glyph glyph-name="longs" unicode="&#x17f;" horiz-adv-x="351" 
d="M453 724q-44 0 -110 74q-4 6 -13 6t-29.5 -9t-27.5 -9q-45 -5 -60 -33q-11 -20 -11 -68q0 -1 -7.5 -24.5t-10.5 -35.5q-4 -28 -4 -60q0 -27 16 -136q2 -6 -5 -25t-8 -25v-52v-117q-9 -62 6 -90q4 -11 35 -23.5t40 -24.5q18 -24 18 -41q0 -28 -86 -30h-33q-43 0 -57 -6
q-34 -13 -67 -13q-48 0 -48 33q0 16 19.5 39.5t37.5 45t13 110.5v117q0 54 -1 57q-3 16 -36 72q-9 13 -6 22q10 12 31 51q6 15 15 59q-1 12 3 34q29 56 38 92q6 31 12 64q12 12 33 36q39 53 87 90q10 9 39 8q27 0 43 -9q5 -3 59 -3h66q9 1 16 1q57 0 57 -75
q0 -51 -19.5 -76.5t-44.5 -25.5z" />
    <glyph glyph-name="circumflex" unicode="&#x2c6;" horiz-adv-x="552" 
d="M402 615q10 -24 16 -48q-31 -3 -46 40q-21 62 -23 65q-22 30 -55 73q-20 -3 -45 -13q-9 -11 -34.5 -48.5t-25.5 -43.5q-2 -48 -26 -78q-31 0 -31 33q0 44 30 86q12 10 30 33q0 10 4 28q17 36 86 90q9 2 22 -4q36 -5 71 -83q30 -67 30 -115q0 -11 -3 -15z" />
    <glyph glyph-name="caron" unicode="&#x2c7;" horiz-adv-x="552" 
d="M379 706q-13 -9 -30 -31q-1 -11 -6 -29q-25 -48 -30 -54q-21 -25 -60 -33q-7 -1 -21 6q-37 6 -82 89q-41 75 -41 117q0 13 12 15q32 1 59 -41q18 -31 34 -63q8 -10 30 -36q11 3 26 14q61 64 61 78q3 27 24 52q42 0 42 -34q0 -27 -18 -50z" />
    <glyph glyph-name="breve" unicode="&#x2d8;" horiz-adv-x="414" 
d="M39 792q0 27 42 27q33 0 64 -29q-7 -45 45 -91q11 -5 23 -5q30 0 58 24q21 18 24 27q11 33 0 63q35 9 57 9q38 0 38 -25v-53q6 -24 -3 -34q-69 -75 -71 -77q-16 -6 -28 -7l-30 -12q-23 -5 -45 -5q-57 0 -120 30q-26 30 -42 56q-12 19 -14 22l2 26v54v0z" />
    <glyph glyph-name="dotaccent" unicode="&#x2d9;" horiz-adv-x="342" 
d="M286 750q-12 -35 -25 -69q-20 -44 -50 -44q-9 0 -21 3q-1 2 -42 6q-27 2 -42.5 24.5t-15.5 49.5q0 34 26 65.5t65 42.5q26 7 69.5 -27.5t35.5 -50.5z" />
    <glyph glyph-name="ring" unicode="&#x2da;" horiz-adv-x="846" 
d="M438 657q0 -5 -8 -21q-19 -41 -64 -54q-39 -9 -77 -20q-12 -4 -84 38q-3 1 -16 36q-9 25 -3 75v40q4 27 34 29q14 13 35 28q21 3 64 8q5 0 46 -12t58 -63q7 -42 15 -84zM282 739q-36 -1 -36 -31q0 -20 14 -38.5t32 -18.5q9 0 17 6q34 19 34 55q0 12 -6.5 20.5t-54.5 6.5z
" />
    <glyph glyph-name="ogonek" unicode="&#x2db;" horiz-adv-x="732" 
d="M426 -275q0 -9 -20 -21q-31 -21 -45.5 -33.5t-30 -16.5t-27.5 -7q-24 -10 -48 -10q-41 0 -71 27t-37 67q-2 9 10 27q9 12 6 33q-3 33 -3 29q2 18 24.5 45.5t40.5 33.5q93 24 82 57q-7 24 -27 42q-28 24 -37 38q-6 9 -6 19q0 18 17 32.5t37 14.5q24 0 30 -21q49 -9 49 -36
q0 -6 -3.5 -26.5t-3.5 -33.5q0 -32 15 -62q4 -10 30 -21q21 -9 19 -19q-6 -33 -72 -46.5t-70 -43.5q-2 -12 -2 -21q0 -50 42 -50q15 0 46 7.5t40 7.5q15 0 15 -12z" />
    <glyph glyph-name="tilde" unicode="&#x2dc;" horiz-adv-x="567" 
d="M399 643q-2 -7 -45 -45q-33 -30 -81 -30q-5 0 -14 2h-13q-60 0 -60 -33q0 -8 13 -26q17 -22 18 -27q3 -9 -9 -19.5t-24 -10.5q-7 0 -10 5q-14 9 -27 31q-5 26 -30 35q-32 10 -38 19q-1 3 6.5 22t8.5 23q0 20 2 38q3 24 24 36q34 0 49 4q29 5 57 23q27 0 78 21
q18 13 23 52q3 32 22 35q60 4 60 -78q0 -33 -10 -77z" />
    <glyph glyph-name="hungarumlaut" unicode="&#x2dd;" horiz-adv-x="585" 
d="M576 867q-3 -17 -24 -44q-27 -31 -30 -40q-8 -33 -23 -81q-31 -56 -43 -125q-2 -6 -11.5 -12t-12.5 -4q-11 -3 -18 -3q-42 0 -42 61q0 21 7 71q12 19 27 58q-1 17 0 48q12 51 26 102q13 36 60 62q3 1 9 1q31 0 66 -42q13 -16 9 -52zM376 867q-1 -17 -24 -44
q-25 -31 -30 -40q-6 -33 -22 -81q-30 -56 -44 -125q0 -6 -9.5 -12t-12.5 -4q-11 -3 -20 -3q-42 0 -42 61q0 21 9 71q12 19 27 58q-1 17 0 48q12 51 26 102q13 36 58 62q5 1 11 1q31 0 66 -42q12 -16 7 -52z" />
    <glyph glyph-name="uni1EBC" unicode="&#x1ebc;" horiz-adv-x="717" 
d="M562 940q-3 -7 -49 -39q-32 -19 -65 -19q-12 0 -33 3t-28 3q-27 0 -47 -20q-3 -3 -3 -7q0 -6 21 -45h129q45 -9 45 -51q0 -9 -10 -65q-5 -27 -38 -27q-39 0 -108 36q-36 18 -72 18q-40 0 -61 -28q-6 -6 -2 -80q3 -37 -24 -88q-9 -17 -9 -42q0 -36 18 -53q29 -7 35 -6
q91 27 106 33q33 15 86 60q3 3 15 2q15 0 22 -5q33 -21 33 -66q0 -13 -3 -37t-1 -33q1 -23 -18 -50q-14 -21 -44 -21q-16 0 -25 8q-14 13 -26 25q-18 18 -30 18h-61q-26 -3 -51 -6q-29 -7 -47 -33q-10 -12 -10 -27q0 -19 34 -73l-1 -32q-2 -60 16 -79.5t56 -19.5q31 0 84 17
q30 1 87 10q37 11 57 45q16 30 46 30q44 0 44 -39q0 -7 -3 -15q-12 -39 -38 -115q-3 -9 -45 -26h-135q-21 0 -49.5 -12t-41.5 -12q-8 0 -14 2q-16 6 -31 13q-24 9 -38 9h-186q-6 -3 -13 -3q-15 0 -28 11.5t-13 26.5q0 10 9 19q21 18 43 39t22 42q0 9 -3 18q-5 14 0 20
q31 36 31 63q0 18 -13 48q-12 24 10 73q6 12 6 72v113q0 61 0 57q-3 25 -36 99q-4 10 -22 22t-23 18q-12 15 -12 35q0 22 18 34q3 3 42 8l188 -15q19 9 39 19q-2 27 -29 40t-31 22q-2 4 8 20.5t11 22.5q3 18 7.5 39t27.5 30q64 -6 109 14q26 -2 80 12q19 10 28 49
q8 32 26 32q52 -2 52 -63q0 -39 -21 -98z" />
    <glyph glyph-name="uni1EBD" unicode="&#x1ebd;" horiz-adv-x="487" 
d="M247 381q17 -3 27 -3q23 0 23 13q0 15 -24 35.5t-45 20.5q-8 0 -12 -2l-30 -12q-23 -10 -23 -24q0 -3 3 -7q8 -20 27 -21l33 3q5 0 11.5 -1.5t9.5 -1.5zM399 673q-2 -7 -45 -45q-33 -30 -81 -30q-5 0 -14 2h-13q-38 0 -57 -26q-8 -9 16 -40q15 1 29 0q160 -14 183 -107
q7 -30 7 -57q0 -39 -19 -48h-134q-96 0 -130 -3q-11 -1 -22 -15.5t-11 -23.5v-66q0 -19 25.5 -50t50 -39t75.5 -7q59 2 86 17q9 9 19 16q17 14 26 11q4 -2 9.5 -11.5t2.5 -15.5q-9 -17 -19 -25t-13 -14q-7 -17 -15.5 -36.5t-24.5 -31.5q-15 -6 -41 -18q-52 -34 -85 -36
q-17 0 -120 54q-6 3 -32 48l-30 54q-4 11 -4 36v29q0 21 -2 39q0 4 -9 34q-7 24 -3 36q2 33 14 96q22 68 96 96l13 42q2 8 2 12q0 12 -21 13t-29 11q-1 3 6.5 22t8.5 23q0 20 2 38q3 24 24 36q34 0 49 4q29 5 57 23q27 0 78 21q18 13 23 52q3 32 22 35q60 4 60 -78
q0 -33 -10 -77z" />
    <glyph glyph-name="endash" unicode="&#x2013;" horiz-adv-x="600" 
d="M502 208h-466q3 11 -1.5 24.5t-9.5 25.5q-3 13 29.5 34t47.5 21h295q146 0 146 -42q0 -25 -41 -63z" />
    <glyph glyph-name="emdash" unicode="&#x2014;" horiz-adv-x="900" 
d="M772 208l-36 -34l-78 34h-622q3 11 -1.5 24.5t-9.5 25.5q-3 13 29.5 34t47.5 21q36 5 66 5q72 0 162 -36q78 34 189 34q24 0 78 -1q46 -3 70 -2q146 5 146 -42q0 -25 -41 -63z" />
    <glyph glyph-name="quoteleft" unicode="&#x2018;" horiz-adv-x="370" 
d="M252 465q16 -69 0 -95q-18 -25 -51 -25q-23 0 -59 13q-15 -3 -48 5q-21 10 -54 63q-13 22 -22 67v62q6 34 24 70q4 8 23 16t23 13q54 58 105 58q29 0 56 -18q12 -6 12 -21q0 -21 -17.5 -39.5t-39.5 -15.5q-5 1 -24.5 -17t-20.5 -28q-3 -45 7.5 -61.5t34.5 -28.5l36 -6
q4 -2 15 -12z" />
    <glyph glyph-name="quoteright" unicode="&#x2019;" horiz-adv-x="349" 
d="M324 501q-6 -35 -26 -71q-4 -7 -22 -15.5t-23 -12.5q-55 -59 -105 -59q-28 0 -57 18q-10 6 -10 21q0 21 17 40t40 16q4 -2 23.5 16t21.5 29q3 45 -7.5 61.5t-34.5 28.5q-12 3 -36 6q-5 1 -15 12q-17 69 0 94q16 26 51 26q22 0 58 -14q15 3 48 -4q21 -11 54 -63
q14 -23 23 -66v-63z" />
    <glyph glyph-name="quotesinglbase" unicode="&#x201a;" horiz-adv-x="349" 
d="M324 171q-6 -35 -26 -71q-4 -7 -22 -15.5t-23 -12.5q-55 -59 -105 -59q-28 0 -57 18q-10 6 -10 21q0 21 17 40t40 16q4 -2 23.5 16t21.5 29q3 45 -7.5 61.5t-34.5 28.5q-12 3 -36 6q-5 1 -15 12q-17 69 0 94q16 26 51 26q22 0 58 -14q15 3 48 -4q21 -11 54 -63
q14 -23 23 -66v-63z" />
    <glyph glyph-name="quotedblleft" unicode="&#x201c;" horiz-adv-x="625" 
d="M237 465q16 -69 0 -95q-17 -25 -50 -25q-24 0 -58 13q-17 -3 -48 5q-21 10 -54 63q-15 22 -23 67v62q2 10 23 23.5t26 22.5t36 28.5t34 24.5q54 58 72 58q12 0 40 -18q11 -6 11 -21q0 -21 -17.5 -39.5t-38.5 -15.5q-4 1 -24.5 -17t-21 -28.5t-12.5 -23t-12 -18.5
q0 -5 3 -9q6 -11 64 -39q12 -2 35 -6q6 -2 15 -12zM505 465q17 -69 0 -95q-16 -25 -49 -25q-24 0 -60 13q-15 -3 -47 5q-21 10 -54 63q-15 22 -22 67l22 66q-4 21 2 66q4 8 23 16t23 13q54 58 105 58q27 0 56 -18q10 -6 10 -21q0 -21 -17 -39.5t-38 -15.5q-6 1 -35 -12
q-33 -15 -33.5 -24t-5 -28.5t-4.5 -30.5q0 -12 5 -20t35 -14q18 -3 35 -6q12 -2 34 -6q6 -2 15 -12z" />
    <glyph glyph-name="quotedblright" unicode="&#x201d;" horiz-adv-x="625" 
d="M591 495q-5 -36 -24 -71q-5 -9 -23.5 -17t-23.5 -13q-54 -57 -105 -57q-27 0 -55 17q-9 6 -9 13q0 14 23 26.5t47 9.5q2 0 21.5 23.5t26.5 27.5q27 20 27 42q0 24 -27 45q-6 9 -31 17q-15 4 -28.5 7t-36.5 8q-6 0 -15 10q-16 69 0 95q17 27 50 27q24 0 60 -14q15 2 48 -4
q19 -12 52 -63q15 -24 23 -68v-61zM324 501q-6 -35 -26 -71q-4 -7 -22 -15.5t-23 -12.5q-55 -59 -105 -59q-28 0 -57 18q-10 6 -10 21q0 21 17 40t40 16q9 -2 30 1q28 5 29 14t7 35t6 38t-5.5 19.5t-32.5 18.5q-16 4 -29.5 8t-37.5 7q-5 1 -15 12q-17 69 0 94q16 26 51 26
q22 0 58 -14q15 3 48 -4q21 -11 54 -63q14 -23 23 -66v-63z" />
    <glyph glyph-name="quotedblbase" unicode="&#x201e;" horiz-adv-x="625" 
d="M591 165q-5 -36 -24 -71q-5 -9 -23.5 -17t-23.5 -13q-54 -57 -105 -57q-27 0 -55 17q-9 6 -9 13q0 14 23 26.5t47 9.5q2 0 21.5 23.5t26.5 27.5q27 20 27 42q0 24 -27 45q-6 9 -31 17q-15 4 -28.5 7t-36.5 8q-6 0 -15 10q-16 69 0 95q17 27 50 27q24 0 60 -14q15 2 48 -4
q19 -12 52 -63q15 -24 23 -68v-61zM324 171q-6 -35 -26 -71q-4 -7 -22 -15.5t-23 -12.5q-55 -59 -105 -59q-28 0 -57 18q-10 6 -10 21q0 21 17 40t40 16q9 -2 30 1q28 5 29 14t7 35t6 38t-5.5 19.5t-32.5 18.5q-16 4 -29.5 8t-37.5 7q-5 1 -15 12q-17 69 0 94q16 26 51 26
q22 0 58 -14q15 3 48 -4q21 -11 54 -63q14 -23 23 -66v-63z" />
    <glyph glyph-name="dagger" unicode="&#x2020;" horiz-adv-x="705" 
d="M192 427q-54 -57 -77 -61q-60 -5 -73 0q-38 13 -38 57q0 85 3 72q-1 3 26 51q18 33 39 36q28 4 63.5 -6.5t45.5 -29.5q2 -3 3 -9q21 -15 47 -15q42 0 54 46l10 99q-9 21 -24 45q-39 14 -52 39q-8 14 -14 62q0 3 26.5 37.5t30.5 40.5q6 12 26 13h30q40 6 52 6q30 0 39 -19
q26 -50 24 -93q0 -42 -12 -54q-16 -18 -49 -27q-3 3 -5.5 -4.5t-2.5 -16.5q0 -33 29 -26q19 -39 0 -103l57 -29q6 3 28 6q12 18 32.5 27t42.5 18q3 2 56 -9q39 -7 48 -27q13 -27 13 -63t-15 -51q-39 -39 -82 -51q-11 -4 -27 3q-11 6 -20 19.5t-16 18.5q-12 19 -27 19
t-42 -22l-18 -54q-9 -204 -30 -446q-5 -19 -9 -39q-8 -24 -20 -24q-21 0 -63 62l-21 148l26 66l-35 47l-12 177l-18 63q-15 13 -25 13q-12 0 -24 -12z" />
    <glyph glyph-name="bullet" unicode="&#x2022;" horiz-adv-x="535" 
d="M459 295q0 -79 -24 -105q-44 -46 -60 -85q-11 -27 -39 -36q-54 -20 -104 -14q-73 -4 -117 29q-34 27 -79 105q-8 12 -6 66q1 57 12 70q25 36 52 71q36 43 73 44.5t115 13.5q9 3 18 3q51 0 105 -51t54 -111z" />
    <glyph glyph-name="ellipsis" unicode="&#x2026;" horiz-adv-x="877" 
d="M792 178q13 -27 13 -63t-15 -52q-39 -38 -82 -51q-11 -3 -26 4q-72 35 -84 54q-22 56 -21 71q0 37 37.5 49t73.5 23q3 1 56 -9q39 -8 48 -26zM496 93q0 -42 -12 -53q-18 -19 -76 -33q-60 -4 -74 0q-39 15 -52 41q-8 13 -14 61q0 3 26.5 37t32.5 43.5t25 11.5q14 -2 29 -2
q42 8 52 8q30 0 41 -20q24 -49 22 -94zM207 88q0 -10 -12 -24q-54 -57 -77 -61q-60 -5 -73 0q-38 13 -38 58q0 86 3 71q-1 4 26 51q18 34 39 37q28 5 63.5 -5.5t45.5 -31.5q24 -50 23 -95z" />
    <glyph glyph-name="perthousand" unicode="&#x2030;" horiz-adv-x="1219" 
d="M768 87q-14 -44 -42 -87q-5 -5 -63 -33q-9 -5 -24 -9q4 0 -26 4l-52 9q-8 -1 -57 21q-18 8 -48 30q-56 77 -53 95l12 75q3 18 41.5 61.5t50.5 47t47 12.5t61 5l52 -8q26 2 33 -9q26 -31 51 -55q11 -11 15 -27q11 -41 17 -41l22 20q9 13 26 39q7 6 21 19q6 9 22 24
q60 51 158 53q6 0 63 -32q9 -3 21 -12q4 -9 12 -24l24 -48q6 -6 16 -58q6 -50 3 -57q-7 -26 -15 -51q-15 -39 -30 -47l-67 -36q-9 -4 -35 -4q-82 0 -106 13q-12 11 -39 33.5t-29 25.5q-6 10 -10 21l-26 48q-10 21 -22 21t-19.5 -14.5t-4.5 -24.5zM1065 126q-2 21 -9 43
q-14 44 -83 62q-24 -3 -50 -34t-22 -55q6 -34 28.5 -56t45.5 -22q12 0 15.5 7.5t18.5 6.5q24 -2 20 -2q7 0 14.5 12t9.5 14q12 12 12 24zM676 106q9 15 9 33q0 27 -18 54q-13 21 -21 24q-31 15 -61 11q-48 -9 -48 -35q0 -4 1 -9q5 -6 -3.5 -15t-15.5 -16q-3 -6 1 -17
q6 -16 6 -18q0 -9 12 -22q18 -12 41 -20q12 -4 24 -4q31 0 73 34zM267 460q10 35 0 63q-14 42 -39 42q-5 0 -9 -3q-6 -4 -16.5 2.5t-18.5 12.5q-6 3 -16 -3q-15 -9 -18 -9q-8 -3 -20 -16q-9 -20 -13 -42q-8 -45 45 -93q12 -3 22 -3q30 0 59 24q22 18 24 25zM636 547
q0 -13 -26 -33q-13 -9 -27 -19q-7 -20 -31 -51q-36 -23 -41 -32q-10 -33 -13 -37q-12 -8 -35 -26q-12 -10 -81.5 -86.5t-78.5 -89.5t-30 -23q-27 -12 -35 -17q-22 -79 -123 -136q-3 1 -25 10q-17 6 -17 17q0 6 3 12q9 21 69 93.5t79 81t28 24t18 32.5q27 12 33 34
q55 57 55 63q0 12 -25 17q-11 -12 -38 -32q-3 -1 -7 -6q-9 -1 -27 -7q-11 -5 -32 -11t-45 -6q-57 0 -118 30q-6 3 -44 57q-4 8 -13 21q1 -3 1 27v54q0 24 12 59q5 19 23 52q67 66 85 66h77q18 0 69 -31q46 -30 52 -39q6 -15 19.5 -48t13.5 -59v-54q5 -16 3 -22
q18 -29 42 -29q26 0 49 30t34 69q15 3 60 36q39 29 60 29q27 0 27 -20z" />
    <glyph glyph-name="guilsinglleft" unicode="&#x2039;" horiz-adv-x="292" 
d="M175 79q-1 -27 -24 -27q-15 0 -33 14q-27 33 -112 151q-5 8 -5 24q0 54 36 117q41 72 96 72q27 0 54 -18q3 -6 3 -10q0 -14 -45 -65.5t-45 -101.5q0 -69 75 -156z" />
    <glyph glyph-name="guilsinglright" unicode="&#x203a;" horiz-adv-x="306" 
d="M81 82q-17 6 -17 15q0 14 37.5 46t36.5 41q0 3 14 36t14 51q0 9 -3 15q-63 108 -63 143q0 27 24 30q15 4 24 4q29 0 33 -45q6 -55 39 -79q39 -30 39 -68q0 -69 -178 -189z" />
    <glyph glyph-name="fraction" unicode="&#x2044;" horiz-adv-x="612" 
d="M178 133q-24 -79 -123 -136q-3 1 -27 10q-16 6 -16 17q0 6 4 12q9 21 69 93.5t79 81t28 24t18 32.5q34 16 55 37l117 122q15 36 47 76q13 3 58 36q41 29 60 29q27 0 27 -20q0 -13 -24 -33q-15 -9 -28 -19q-6 -20 -32 -51q-36 -23 -39 -32q-12 -33 -13 -37q-12 -8 -35 -26
q-12 -10 -82.5 -86.5t-78.5 -89.5t-31 -23q-27 -12 -33 -17z" />
    <glyph glyph-name="Euro" unicode="&#x20ac;" horiz-adv-x="828" 
d="M556 282q8 0 -26.5 2t-72.5 2q-126 0 -133 -28q-27 -2 -27 -36q0 -50 45 -101q51 -58 114 -55q28 -3 73 0q33 10 33 3q24 24 71 60q10 4 22 19q0 6 5 15q16 35 30 35q28 0 36 -95l3 -21q-26 -88 -201 -88q-23 0 -56.5 1.5t-41.5 1.5q-42 0 -33 0q-25 13 -60 30
q-24 1 -63 16q-37 27 -73 54q-42 35 -48 75q-2 15 -15 42q-9 23 -6 47l-54 22q-17 -19 -35 -19t-30 16.5t-12 32.5q0 6 2 11q15 22 30 45.5t25 23.5q14 0 26 -27l24 -6q25 13 25 37q0 18 -16 41h-18q-11 -2 -21 -2q-45 0 -45 39q1 32 46 39q11 2 60 2q3 24 65 136
q27 47 58.5 59.5t62.5 26.5q35 28 122 78q52 21 121 21q105 0 164 -42q12 -9 36.5 -13t33.5 -10q18 -9 12 -30q-6 -30 -21 -39q-36 -21 -40 -24q-32 -28 -83 -28q-13 0 -16 6q0 1 -18 70q-11 39 -42 39q-9 0 -18 -3q-60 14 -80 14q-46 0 -84 -63q-4 -8 -38.5 -24.5
t-36.5 -19.5q-40 -54 -40 -103q0 -45 37 -53l119 2q28 10 70 10q90 0 90 -36q0 -22 -49 -52l-248 3q-39 -11 -39 -50q0 -27 30 -30l140 -1q159 -5 159 -32q0 -18 -50 -46z" />
    <glyph glyph-name="uniE006" unicode="&#xe006;" horiz-adv-x="622" 
d="M975 804q-23 -5 -23 27q0 18 15 21q21 4 21 -27q0 -18 -13 -21zM724 720q-36 0 -57 37q-34 65 -85 65q-41 0 -73 -35.5t-32 -74.5v-400q0 -29 -5 -45q-9 -29 -16 -77q-5 -28 18.5 -57.5t47.5 -56.5q4 -7 4 -21q0 -43 -34 -51q-92 -16 -108 -16q-56 0 -86 28q-3 2 -3 5
q0 9 29 51q19 33 19 69q0 9 -1 16v137q0 34 -3 43q-8 17 -45 47q-5 3 -10 21t-2 27q94 75 94 160q0 48 -28 102q1 21 -18 68q-21 25 -44 25q-21 0 -84 -48q0 -6 -10 -19q-11 -18 -12.5 -21t-11.5 -62v-70q0 -30 1 -26q-13 -57 -13 -70q0 -20 6 -36.5t6 -50.5v-224
q-3 -7 -3 -16q0 -18 18 -53.5t18 -50.5q0 -48 -68 -48q-25 0 -72 12q-54 14 -67 15q-2 3 -2 6q0 5 11 26q13 27 21 51q6 16 3 38t1 31q36 69 36 136q0 68 -37 132q-3 5 -3 11q0 13 16.5 45.5t19.5 45.5q3 36 7 72q6 54 21 77q20 30 54 57l48 36q11 13 21 25q17 20 30 20
q59 33 75 33q3 0 11.5 -4t18.5 -4h69q29 0 95 48q4 5 78 5h87h51q33 0 48.5 -19t33 -37.5t17.5 -36.5q0 -32 -34.5 -62.5t-66.5 -30.5z" />
    <glyph glyph-name="uniE00A" unicode="&#xe00a;" horiz-adv-x="739" 
d="M514 784q2 -12 -8.5 -30.5t-24.5 -21.5q-31 -8 -54 0q-15 4 -75 40q-49 32 -79 32q-36 0 -63 -38q-3 -16 -11 -48q-25 -72 -19 -100v-383q0 -43 1 -27q-3 -21 -25 -54q-8 -12 0 -28q12 -24 48 -44q28 -12 55 -24q8 -4 14 -15.5t1 -15.5q-21 -20 -61 -20q-6 0 -45 3
q-27 2 -42 -0.5t-48 -20.5t-51 -18q-38 0 -38 36q0 38 60 78q3 15 9 44v235q0 30 -18 68q-22 46 -27 64q-3 9 20 27q13 11 34 36.5t23 47.5q-3 38 4 101q26 37 62 96q12 9 27 24q30 42 66.5 57.5t72.5 29.5q3 3 8 3q9 0 25.5 -10t25.5 -11q37 -5 91 -20q32 -22 42 -93z
M625 367q-6 -3 -10 -3q-44 23 -49 42.5t-25 19.5q-10 0 -21 -6q-31 -21 -31 -44q0 -36 6 -70q82 19 148 -32q15 -25 30 -51q27 -55 27 -105q0 -70 -67 -108q-9 -10 -71 -19q-1 -2 -23.5 -3.5t-88.5 -7.5q-23 26 -36 26q-68 -5 -68 67q0 15 3 32q8 33 35 33q34 0 73 -42
q18 -18 59 -18q10 0 34 7q6 21 27 29q56 75 -88 96q-90 61 -101 73q-1 14 -9 39q-13 18 -28 59q37 7 32 28t-4 29q17 106 120 106q107 6 113 -15t31 -19q48 -36 48 -78q0 -56 -66 -65z" />
    <glyph glyph-name="uniE00C" unicode="&#xe00c;" horiz-adv-x="283" 
d="M489 790q-30 -13 -63 -13q-57 0 -128 43q-15 9 -34 -4q-53 -36 -60 -45q-20 -23 -20 -66v-120q0 -77 -15.5 -106t-15.5 -67v-88q0 -27 14 -46.5t17 -49.5q-13 -17 -24 -56q5 -18 40 -52.5t34 -55.5q0 -67 -122 -67q-76 0 -102 30q-7 9 -7 27q0 16 8 51.5t7 47.5v241
q0 -1 -12 81q-6 36 24 104q36 76 39 118q21 32 46 96q2 9 50 51q28 27 78 66q3 2 78 2h72q10 7 22 7q30 0 58 -32t28 -65q0 -18 -12 -32zM556 88q2 -13 -23 -41.5t-44 -39.5q-12 -3 -30 3l-26 8q-25 -6 -94 0q-26 7 -26 42q0 37 30 60q9 6 18 55v69q0 20 -11 45.5t-13 50.5
q14 18 24 56q-3 24 -39.5 51t-36.5 42q0 4 3 10t27 14q34 9 40 13q59 26 69 26q14 0 24.5 -7t12.5 -19.5t2 -24.5v-57q0 -9 12 -28.5t15 -27.5q11 -43 0 -66q-30 -27 -21 -52q9 -14 21 -41q9 -39 6 -55q-1 -9 -1 -17q0 -27 22 -45q20 -12 39 -24z" />
    <glyph glyph-name="uniE09A" unicode="&#xe09a;" horiz-adv-x="720" 
d="M406 723q-1 -8 -45 -44q-33 -30 -81 -30h-13h-14q-60 0 -60 -31q0 -8 24 -41q18 0 47.5 15t50.5 15q12 0 24 -3q6 -1 52 -24q60 -27 60 -99q0 -57 -49 -57q-14 0 -84 23h-56q-40 0 -40 -57q0 -24 13 -32q9 -4 29 0q31 8 37 9q60 8 90 -7q18 -8 20 -27q0 -2 -3 -35l3 -34
q1 -23 -8 -32q-10 -15 -21 -28q-16 -20 -27 -18q-4 1 -51.5 27.5t-62.5 26.5q-30 0 -30 -54q0 -36 21 -65q23 -33 62 -34q22 -2 48 33q13 21 28 43q14 0 35 3q9 3 18 3q25 0 44.5 -21t19.5 -45q0 -18 -13 -31q-11 -18 -41 -51q-22 -5 -64 -21q-17 -9 -32 -9q6 0 -40 9l-27 3
q-17 4 -45.5 -5.5t-41.5 -8.5q-9 2 -27 10t-20 8h-90q-34 8 -34 33q0 18 22 41q17 18 35 34q13 15 12 57q-2 62 -2 65q11 27 21 79q0 6 -24 89q-12 43 -25.5 62.5t-28.5 40t-9 41.5q8 27 42 27h98q-5 22 -30 30q-30 9 -36 18q-2 4 5.5 22t9.5 24q0 18 2 39t25 35q33 0 48 3
q28 6 57 24q27 0 79 21q17 13 21 51q3 33 23 34q60 6 60 -76q0 -33 -11 -78z" />
    <glyph glyph-name="uniE300" unicode="&#xe300;" horiz-adv-x="492" 
d="M433 84q3 -36 -42.5 -74.5t-80.5 -32.5q-27 17 -82 36q-27 5 -55 -6.5t-56 -23.5q-41 -18 -80 -1q-40 16 -40 82q0 14 1 26q2 39 17 97q12 17 40.5 19t37.5 11q15 15 45 36q22 0 69 23q22 21 22 51q0 27 -19 70q-9 20 -30 20q-17 0 -41 -15t-40 -36l-21 -30
q-9 -9 -66 -12q-14 10 -12 43q1 27 10 48q93 122 192 122q44 0 81 -30q17 -14 39 -50q26 -45 26 -79q0 -11 -3 -20v-66q4 -34 1 -42q-10 -15 -25 -46q-9 -26 22.5 -68.5t65.5 -39.5q6 0 24 -12zM187 126q29 19 29 63q0 40 -32 40q-7 0 -15 -3q-30 -10 -30 -52q0 -54 48 -48z
" />
    <glyph glyph-name="uniE301" unicode="&#xe301;" horiz-adv-x="582" 
d="M526 222q0 -26 -37.5 -80.5t-56 -69.5t-36.5 -30q-24 -21 -39 -23q-51 -3 -84 -10q-24 -5 -87 -5h-90q-41 0 -50 23q-3 7 -3 49v63q0 38 -15 86q-6 19 12 57q6 10 2 28q-5 26 -5 27v62q14 82 -10 153q0 16 -5 49q-12 20 -28 62q-2 28 -6 85q-3 11 -23.5 32t-20.5 36
q2 19 29.5 38.5t48.5 18.5q29 -2 61 -2.5t40 -15.5q12 -33 12 -71q0 -31 -18 -120q-2 -9 6.5 -33t8.5 -36v-48q3 -19 23 -34t41 -5q42 20 89 20q58 0 130 -32q20 -18 57 -52q9 -24 29 -68q25 -49 25 -84v-70zM384 175v78q9 45 -20 84q-70 95 -126 95q-19 0 -36 -12
q-16 -3 -33 -6q-25 -6 -31 -23q-12 -40 -6 -153q0 -13 12 -33q15 -25 16.5 -35.5t4.5 -28.5q39 -71 103 -71q27 0 48 18q8 6 23.5 8.5t18.5 5.5q33 25 26 73z" />
    <glyph glyph-name="uniE302" unicode="&#xe302;" horiz-adv-x="462" 
d="M409 94q-27 -36 -69 -66q-21 -6 -61 -21q-12 -4 -44 -9q-36 -6 -55 -1q-14 7 -48 21q-14 3 -42 6q-18 0 -26 10q-57 77 -54 168q-7 33 -12 93q5 29 9 59q6 36 21 54q56 69 129.5 109.5t140.5 40.5q14 0 27 -2q36 -4 60 -37q9 -14 6 -53q3 -18 3 -55q-1 -9 -11 -17.5
t-22 -8.5q-18 0 -45 23q-31 25 -42 27h-54q-18 0 -46 -8q-8 -6 -20 -19q-1 -18 -9 -53q-10 -18 -19 -36q-14 -25 -14 -42q0 -7 2 -12q9 -28 31 -69q27 -51 46 -53t44 -14q21 -12 36 -12q11 0 25 3.5t40.5 27.5t39.5 24q17 0 29 -18t12 -34q0 -17 -8 -26z" />
    <glyph glyph-name="uniE303" unicode="&#xe303;" horiz-adv-x="549" 
d="M520 75q0 -48 -39 -60t-57 -22.5t-28 -13.5q-12 -3 -36 13q-30 20 -35 21q-36 12 -46 9q-45 -16 -90 -16q-32 0 -75 9q-35 6 -86 72q-1 13 -9 48q-15 51 -15 85v87l-3 9q-1 8 2 18q1 17 12 44q13 12 42 42q61 73 145 84q11 1 35.5 -2.5t35.5 -3.5q40 0 58 37q5 12 5 29
q0 12 -18 91q1 17 -2 45q-4 14 -22 47q-17 28 -17 40q0 30 32.5 57t63.5 27q11 0 20 -4.5t13 -4.5q12 0 30 -4q14 -15 15 -86v-562v-41q2 -27 12 -40q3 -3 35 -20q22 -12 22 -34zM333 249q1 78 -2 90q-10 39 -56 63t-82 18q-21 -5 -45 -29.5t-30 -41.5q-12 -34 -12 -81
q0 -67 24 -111q29 -52 84 -52q18 0 39 6q33 -3 53 21q27 33 27 117z" />
    <glyph glyph-name="uniE304" unicode="&#xe304;" horiz-adv-x="465" 
d="M429 352q-8 -34 -66 -30q-27 3 -92 -3h-118q-32 -13 -32 -40q0 -14 23 -71q19 -48 59 -71t80 -17q17 3 46 18t41 15q36 0 36 -33q0 -30 -42.5 -62.5t-72.5 -32.5q-12 0 -42 -19q-36 -23 -48 -26q-11 -3 -27.5 7t-32.5 19q-23 3 -44 7q-36 8 -54 35q-36 58 -55 102
q1 0 13 61q3 29 9 80q5 25 36 81q3 4 26 81q76 79 189 79q64 0 99 -36q70 -73 70 -127q0 -9 -1 -17zM232 379q47 -6 47 38q0 22 -13.5 38.5t-34.5 13.5q-20 -1 -39.5 -27.5t-14.5 -39.5q7 -20 55 -23z" />
    <glyph glyph-name="uniE305" unicode="&#xe305;" horiz-adv-x="349" 
d="M481 795q-6 -15 -26 -37.5t-34 -25.5h-51q-43 0 -90 30q-9 6 -18 1q-79 -37 -69 -108q0 -6 -21 -55q-7 -20 -7 -35q0 -33 42 -52q33 -14 66 -26q16 0 43 -4q27 -12 27 -45q0 -21 -19 -29q-39 -1 -114 -21q-41 -24 -41 -78q0 -21 8 -51q10 -45 10 -49q-1 -33 8 -86
q7 -15 75 -84q7 -25 0 -39q-6 -10 -36 -12q-41 -1 -71.5 10t-39.5 11h-65q-12 -3 -46 6q-11 6 -8 30l32 53q21 34 21 109v102q0 56 -12 74q-18 18 -39 52q-3 15 7 38q18 36 22 48t2.5 39t1.5 37q25 68 18 105q10 39 39 110q27 16 72 58q24 -3 67 11q26 7 50 15q15 -5 37 -5
q14 6 29 6q28 0 75 -28q16 -20 52 -56q9 -9 3 -19z" />
    <glyph glyph-name="uniE306" unicode="&#xe306;" horiz-adv-x="577" 
d="M523 -114q-3 -11 -1.5 -44.5t-8.5 -53.5q-11 -10 -32 -34q-4 -17 -24 -44q-6 -6 -26 -8t-26 -8q-51 -36 -54 -38q-14 -7 -45 -7h-78q-74 -14 -71 -14q-75 0 -124 65q-14 16 -16 35t-10 28q-13 19 -52 21q-33 1 -33 18q0 7 4.5 20t47.5 14q35 0 57 18q27 24 41 27
q22 8 36.5 16t14.5 22q0 24 -33 42.5t-33 57.5q0 56 51 84q16 9 16 29q0 13 -16 24q-9 6 -20 12q-27 24 -42 39q-36 37 -42 55q-9 32 29 117q16 38 55 77q45 45 84 55q50 14 62.5 16t23.5 1q18 -3 36 -3h105q39 -2 114 -20q19 -9 19 -40q0 -47 -28 -51q-50 -6 -68 -39
q-12 -21 -12.5 -70t-8.5 -67q-4 -12 -25 -18q-27 -7 -32 -12q-19 -22 -61 -51q-81 -28 -83 -28q-52 -23 -52 -47q0 -15 21 -31q10 -9 45 -11q33 -1 51 5q45 18 81 18q37 0 88 -23q8 -3 35 -27.5t36 -42.5q4 -6 12 -6h13q5 -2 5 -8q0 -12 -11 -36q-13 -28 -15 -34zM318 306
q-8 22 -18 58q-3 21 -7.5 44.5t-15.5 35.5q-15 18 -46 15q-42 -3 -57 -27q-32 -51 -32 -119q0 -63 29 -103q9 -14 49 -12q6 -2 12 -2q26 0 59 42t27 68zM357 -245q45 51 45 101q0 60 -81 63q-18 0 -36 15t-30 12q-26 -6 -59 -30q-24 -18 -25 -20q-9 -9 -21 -36
q-5 -10 -5 -27q0 -36 15 -66q17 -34 41 -34t49 39q18 -38 57 -38q30 0 50 21zM288 -170q13 -1 13 -7q0 -5 -13.5 -11t-19.5 -1q3 19 20 19z" />
    <glyph glyph-name="uniE307" unicode="&#xe307;" horiz-adv-x="609" 
d="M589 64q3 -21 -15 -41t-45 -23h-82q-23 0 -62 19q-28 15 -55 30q-2 18 -2 20q18 28 36 55q-1 -3 -1 35v187q3 6 3 15q0 36 -43.5 71.5t-81.5 35.5q-39 0 -69 -89q-10 -25 -28 -82q-5 -18 22 -57q9 -15 14.5 -60t15.5 -65q21 -10 45 -42q3 -28 -20 -50.5t-50 -22.5h-60
q-8 0 -40 -6t-53 -6q-14 1 -15 30q-2 27 6 37q22 30 45 60q1 3 1 44v222q0 4 -10.5 47.5t-10.5 88.5v188q11 39 -24 70q-10 11 -10 26q0 27 33 55.5t63 28.5q9 0 16 -3q63 -36 63 -93q0 -18 -9 -32q-27 -45 -27 -90q0 -36 16 -80t32 -85q6 -18 24 -16q14 0 66 51
q20 19 44 19q30 0 109 -60q3 -1 57 -67q17 -18 17 -45q0 -18 -10 -53.5t-10 -48.5q0 -12 6 -22.5t15 -37.5q0 -32 2 -63q4 -39 36 -59q13 -6 29 -14t17 -22z" />
    <glyph glyph-name="uniE308" unicode="&#xe308;" horiz-adv-x="283" 
d="M145 675q-21 -2 -53 29.5t-32 60.5q0 15 10 25q6 5 60 21q9 3 18 3q50 0 50 -64q0 -66 -53 -75zM229 18q-15 -17 -37 -20q-18 2 -38 2q-130 -5 -139 16q-3 39 0 42q21 27 40 54q23 33 30 57q9 27 -1 47q-12 25 -12 42q0 18 11 52.5t11 52.5q0 30 -27 55q-15 12 -31 26
q-21 18 -21 30q4 69 82 69q39 0 63 -17q45 -33 45 -81q0 -24 -15 -80t-13 -86v-144q-5 -23 29 -50.5t34 -42.5q0 -11 -11 -24z" />
    <glyph glyph-name="uniE309" unicode="&#xe309;" horiz-adv-x="300" 
d="M117 777q66 9 66 -50q0 -30 -22 -58.5t-55 -32.5q-61 -11 -61 49q0 30 20 59.5t52 32.5zM201 -78q-2 -8 -25 -45.5t-26 -52.5t-11 -40q-7 -20 -42 -69q-3 -12 -18 -39q-73 -87 -126 -87q-18 0 -34 9q-30 18 -30 40q0 30 60.5 84t60.5 67t6 41q27 54 32 87v392
q0 27 -25.5 65t-25.5 56q0 11 6 23q18 10 45 27q51 36 96 36q21 0 34.5 -8.5t10.5 -27.5l-6 -30v-273q0 -2 1.5 -21.5t1.5 -20.5v-71q0 3 -2 -10v-47q5 -30 14 -54q4 -10 3 -31z" />
    <glyph glyph-name="uniE310" unicode="&#xe310;" horiz-adv-x="591" 
d="M222 435q-8 -9 -14 -20q3 -21 22 -39t52 -12q18 29 19 41q-1 25 -16 41t-15 23q0 5 3 14q9 24 46 25q32 2 62 2q76 12 111 -2q12 -10 12 -21q0 -10 -18 -31q-27 -29 -70 -52t-49 -29q-15 -17 -15 -29q0 -7 6 -16t6 -14q0 -7 -7 -15q7 -12 18 -27q37 -60 84 -127
q4 -11 60 -50q13 -6 28 -14t18 -22q3 -21 -15.5 -41t-44.5 -23h-84q-97 0 -127 13l-5.5 18t-3.5 21q21 39 24 51q1 8 1 48l-40 71q-23 10 -48 25q-9 5 -21 -13q-17 -21 -20 -23q-3 -60 12 -96q5 -7 41 -32.5t36 -45.5q0 -10 -10.5 -23t-73.5 -13h-90q-41 0 -57.5 7.5
t-40.5 43.5q-3 5 1.5 16t10.5 16q41 33 56 64q6 9 13 26q2 12 -3 46q-3 26 5 39l25 42q-10 38 -24 57l-1 327v51q-3 9 -45 77q-9 13 -5 37q9 36 35 41q33 0 100 3q24 3 40 -15t14 -44l-9 -169q2 -29 3 -57q-1 -39 -22 -83q-3 -7 4 -33q11 -36 12 -43z" />
    <glyph glyph-name="uniE311" unicode="&#xe311;" horiz-adv-x="283" 
d="M249 78q4 -5 4 -18q-1 -12 -7 -18q-38 -29 -50 -33q-6 -2 -45 -2h-73q-33 -4 -39 -1q-26 12 -26 34q0 32 42 78q8 8 8 54q0 24 13 95q2 9 -5 39.5t-7 47.5q0 12 3 22l15 56q-1 -9 -1 36v186q0 49 -2 63q-9 43 -42 48q-4 0 -14.5 15t-9.5 24q3 12 23 42q4 7 23 13t25 11
q45 34 67 34q18 0 36 -15q8 -7 8 -22q1 -26 1 -27v-165q0 -5 2.5 -15.5t0.5 -17.5q-1 -9 -7 -21q-26 -45 -27 -68q1 17 1 -64v-65q0 -69 15 -89t15 -61v-61q0 -44 8.5 -66.5t44.5 -68.5z" />
    <glyph glyph-name="uniE312" unicode="&#xe312;" horiz-adv-x="888" 
d="M798 88q0 -57 -9 -78q-3 -9 -34.5 -21t-39.5 -12h-73q-11 5 -29 23q-4 7 -4 22q1 14 34 62q11 15 14 27q1 10 0 22q-2 18 -2 20v69q-1 15 5 37q13 18 13 42q0 39 -28.5 72t-62.5 33q-18 0 -67 -16.5t-55 -28.5q-24 -49 -24 -94q0 -24 15 -95q3 -9 -4.5 -31.5t-4.5 -32.5
q8 -27 32 -57q19 -26 19 -38q0 -6 -1 -12q-11 -12 -24 -12q-8 0 -19 4.5t-16 4.5h-66q-4 0 -21 -3q-15 -1 -22 0q-11 0 -14 6q-9 14 -9 27q0 17 44 83v37v74q-3 18 1 73q5 47 -6 72q-7 18 -39 36q-22 12 -45 24q-15 11 -30 11q-31 0 -72 -48l-54 -72q-4 -5 12 -23
q23 -22 27.5 -31t4.5 -39v-44q0 -9 1 -15q3 -13 30 -43t27 -48q0 -23 -39.5 -50t-60.5 -21q-74 23 -90 51q-11 20 -11 48q0 50 36 113v60q0 12 1.5 21.5t1.5 11.5q0 6 -33 64q-9 18 -9 41q0 42 28 82.5t71 50.5q24 6 53 -16q30 -27 57 -27q30 0 73 27q21 13 47 3
q7 -2 79 -44q62 -34 77 -31q18 10 55 27q48 16 75 16h75q78 0 78 -111v-97q0 -41 16 -65.5t16 -54.5v-86z" />
    <glyph glyph-name="uniE313" unicode="&#xe313;" horiz-adv-x="588" 
d="M499 9q-4 -5 -43 -9q-53 -6 -89 -3q-30 1 -60 1q-12 2 -22 21q-5 8 -5 24q-1 21 9 27q75 38 80.5 90.5t5.5 79.5q0 117 -77 172q-18 -1 -46 0q-8 3 -15 3q-27 0 -49.5 -20t-22.5 -44q0 -12 6 -23v-64q-5 -45 -15 -80q-11 -28 -11 -40q0 -14 6 -35q2 -6 22 -27t17 -31
q-15 -57 -76 -57q-11 0 -39 3q-24 1 -35 0q-12 0 -38 24t-20 39q10 10 30 33q21 31 28 46q15 27 18 51q6 45 2 128q0 15 -18 37q-23 27 -26 36q-16 44 -9 71q9 27 40 51t58 24q16 0 45.5 -24t42.5 -23q14 5 45 14h54h69q17 0 35 -3q10 -3 47.5 -40t37.5 -55v-208
q-9 -45 6 -83q27 -69 27 -75q0 -15 -15 -31z" />
    <glyph glyph-name="uniE314" unicode="&#xe314;" horiz-adv-x="529" 
d="M490 217q0 -34 -1 -36q-15 -46 -54 -100q-21 -17 -54 -50q-5 -6 -45 -19q-26 -11 -86 -11h-81q-33 -1 -60 17q-3 3 -47 45t-62 79q-9 23 -9 89q0 24 8 58.5t8 55.5q0 36 20 58q18 18 36 38q18 7 51 25q12 11 36 29q43 33 99 33q22 0 73 -9q35 -6 53 -24q34 -29 67 -59
q42 -37 48 -72v-147zM370 210q3 19 -1 34q-11 44 -17 90q-7 54 -78 108q-33 24 -54 17q-19 -6 -27.5 -25t-15.5 -35q-18 -18 -44 -59q-6 -16 -6 -70q-1 -57 5 -81q7 -29 43 -66q42 -39 77 -39q12 0 22 4q39 0 69 45q24 36 27 77z" />
    <glyph glyph-name="uniE315" unicode="&#xe315;" horiz-adv-x="534" 
d="M474 264q-17 -29 -24 -66q-11 -59 -32 -119q-37 -10 -76 -22q-48 -20 -45 -63h-33q-30 7 -44 7q-36 0 -43 -34l7 -38q6 -30 6 -72v-75q0 -33 30 -33q21 0 42 15q12 -4 11 -24v-31q3 -11 3 -18q0 -38 -47 -56q-39 -13 -78 -28q-18 -11 -78 -6q-31 1 -79 46q-14 26 0 36
q28 23 36 44q3 7 6 39v112q0 90 16 137q6 16 -6 48q-10 22 -10 108v163q-35 66 -35 92q0 40 47 66q13 6 30 7q10 2 27.5 -0.5t20.5 -2.5q31 -3 94 5q57 18 87 18t58 -13.5t82 -109.5q40 -74 40 -92q0 -16 -13 -40zM346 202v129q0 23 -10 59q-14 16 -29 18q-36 4 -60 4
q-58 0 -70 -28q-6 -14 -6 -93v-65q0 -49 3 -58q4 -24 34 -56q14 -13 36 -13q39 0 75 34.5t27 68.5z" />
    <glyph glyph-name="uniE316" unicode="&#xe316;" horiz-adv-x="552" 
d="M549 -237q22 -18 22 -47q0 -46 -46 -58h-63q7 0 -74 -17q-60 -12 -66 -12q-52 0 -52 42q0 23 49.5 81.5t49.5 92.5q0 8 -2.5 16t-0.5 34q3 43 3 108q0 36 -29 46q-10 5 -25 -10q-9 -11 -18 -23q-21 -15 -53 -15h-87q-16 0 -40 20q-32 25 -41 30q-13 3 -27 6q-19 4 -24 18
q2 25 -3 70q-19 86 -19 111q0 42 21 74q7 12 54 63q15 16 30.5 50.5t23.5 42.5q33 30 85 31q33 0 134 -1q10 -3 21 -5q15 -3 24 5q28 22 46 22q27 0 27 -76v-602v-48q5 -21 39 -37q14 0 41 -12zM367 172v137q3 3 -13 34q-24 44 -24 45q-20 47 -93 47q-33 0 -52 -10.5
t-31 -42.5q-15 -40 -19 -46q-30 -45 -26 -63q12 -18 26 -45q4 -56 56 -99.5t106 -43.5q25 0 44.5 11.5t25 28t0.5 47.5z" />
    <glyph glyph-name="uniE317" unicode="&#xe317;" horiz-adv-x="420" 
d="M393 519q0 -14 -24 -36q-26 -27 -30 -38q-14 -34 -44 -42q-42 -10 -64 -31q-8 -6 -11 -32q-1 -7 0 -24q2 -18 2 -16v-59q0 -7 -4 -26t-4 -32q0 -27 15 -50q11 -18 71 -42q48 -18 43 -61q-1 -8 -12 -15q-48 -33 -73 -38q-12 -3 -27 2h-69q-29 0 -57 13q-36 18 -47 21h-30
q-15 -1 -25 12q-6 6 -6 15q0 27 72 96q1 3 7 27t6 32v126q2 6 2 12q0 18 -29.5 68t-29.5 76q0 15 9 28.5t48 35.5q33 18 45 20.5t26 2.5q40 0 102 -27q7 -3 32 12t40 15q19 0 42.5 -13.5t23.5 -31.5z" />
    <glyph glyph-name="uniE318" unicode="&#xe318;" horiz-adv-x="393" 
d="M298 367q-6 -3 -10 -3q-15 0 -43.5 31t-48.5 31q-10 0 -21 -6q-31 -21 -31 -44q0 -36 64 -70q56 -32 90 -32q15 -25 30 -51q27 -55 27 -105q0 -70 -57 -120q-19 2 -81 -7q-1 -2 -22 -14t-35 -12q-10 0 -19 6q-59 35 -72 35q-68 -5 -68 67q0 15 3 32q8 33 35 33
q34 0 73 -42q18 -18 59 -18q10 0 16 4q24 24 24 48q0 35 -67 80q-90 61 -101 73q-1 14 -9 39q-13 18 -28 59q0 10 13.5 29.5t14.5 27.5q17 106 120 106q38 0 78.5 -18t65.5 -16q48 -36 48 -78q0 -39 -48 -65z" />
    <glyph glyph-name="uniE319" unicode="&#xe319;" horiz-adv-x="348" 
d="M304 460q-9 -15 -30 -28q-25 -17 -37 -29q-3 -3 -8 -3q-6 0 -18 6q-16 6 -21 8q-13 4 -33.5 -9.5t-20.5 -26.5v-78l7 -22.5t7 -34.5q-8 -24 -12 -71q1 -21 23 -40.5t43 -19.5q6 0 12.5 1.5t21.5 4.5q2 0 16 7t20 7q5 0 8 -2q13 -79 13 -76q0 -27 -18 -38q-13 -3 -40 -13
q-18 -12 -54 -29q-11 -1 -30 12q-24 18 -33 23q-120 42 -120 187q0 2 3 75v95q0 7 -5 70q-3 45 2 107q1 4 27 33q36 40 52 46q6 3 14 3q21 0 47 -50t58 -50h73q17 3 28 -10t11 -32q0 -12 -6 -23z" />
    <glyph glyph-name="uniE320" unicode="&#xe320;" horiz-adv-x="556" 
d="M511 40q-9 3 -36 -15q-31 -21 -52 -24q-11 -3 -39 -3h-260q-79 0 -79 80v163q0 72 -3 81l-18 48q-15 44 -15 66q-8 18 -12 47q9 33 57 33h69q27 0 27 -125v-61v-42q0 -5 24 -56q1 -3 -15 -43q-20 -48 -2 -63q32 -26 92 -26q76 0 75 59v73q0 44 13 51q21 11 42 21
q30 17 30 32q0 7 -5 14t-85 55q-69 42 -69 72q0 21 29 40q39 27 78 32q48 4 70 -9q15 -9 27 -47l-10 -69q-8 -46 15 -156v-90q0 -16 12 -36q15 -24 31 -24q5 0 9 2q23 -9 23 -30q0 -23 -23 -50z" />
    <glyph glyph-name="uniE321" unicode="&#xe321;" horiz-adv-x="561" 
d="M486 454q-65 -72 -71 -126t-55 -127q-2 -14 -12 -41q-24 -52 -47 -105q-27 -57 -75 -64q-4 0 -33 36q-13 18 -28 78q-6 19 -24 51q-23 36 -29 52q-16 42 -25 54q-24 30 -27 35q-9 15 -9 40q-2 14 -9 24q-54 66 -54 90t34 44q8 4 32 1h93q39 6 39 -33q0 -25 -21 -42
q-8 -6 0 -18q21 -25 22.5 -46t1.5 -42q6 -45 48 -45q27 0 51 18t24 43q0 14 -11 29q-34 46 -34 79q0 14 6 29q9 24 46 25q32 2 62 2q3 0 36 15t51 15q9 0 15 -3q16 -14 16 -35q0 -19 -13 -33z" />
    <glyph glyph-name="uniE322" unicode="&#xe322;" horiz-adv-x="823" 
d="M516 496q0 -27 -33 -67q-9 -24 -8 -35q9 -111 36 -117q21 -6 31.5 12t7.5 51q-4 42 -3 47q0 6 15 27.5t12 32.5q-1 4 -14 19t-13 23q0 4 3 7q9 6 72 12q71 6 102 17q18 6 48 0q6 -2 17.5 -11.5t11.5 -17.5q0 -31 -45 -82q-66 -74 -71 -81q0 -14 -6 -47q-13 -21 -34 -54
q-9 -28 -29 -81q-30 -57 -79 -169q-2 -6 -12 -11q-11 -3 -17 0q-10 6 -21 29q-18 34 -30 54q-19 28 -26.5 81.5t-28.5 81.5q-3 5 -18 24q-5 -6 -14 -6t-10 -3q-9 -28 -30 -81q-29 -57 -78 -169q-2 -6 -12 -11q-12 -3 -17 0q-10 6 -21 29q-18 34 -31 54q-18 28 -26.5 81.5
t-27.5 81.5q-12 21 -48 62q-17 13 -35 25q-24 18 -25 33q-5 8 -2 18q3 15 2 35q-2 7 -11 35.5t-9 45.5q0 51 51 51q14 0 78 -18q8 -3 26.5 6t27.5 9q15 0 26.5 -13t11.5 -28q0 -13 -10.5 -42.5t-9.5 -41.5q9 -111 35 -117q22 -6 34 14q17 27 45 75q14 30 14 45q0 16 -20 13
q-7 2 -15 2q-9 25 -9 42q-16 18 -9 28q5 3 20 6q4 6 12 12q22 17 79 -1q39 4 62 12q19 6 49 0q6 -2 17.5 -11.5t11.5 -17.5z" />
    <glyph glyph-name="uniE323" unicode="&#xe323;" horiz-adv-x="547" 
d="M508 78q0 -53 -42 -78q-6 -3 -27 0q-45 -2 -117 9q-21 7 -42 15q-30 12 -30 27q0 7 13 29.5t13 36.5q0 13 -13 28t-26 15q-24 0 -39 -46q-12 -39 -9 -66q1 -9 -8 -27q-10 -23 -24 -21q-57 1 -114 4q-30 0 -43 20q-5 6 -5 16q0 21 21 46t39 31q42 13 75 55q24 36 48 71
q8 9 6 15q-42 96 -184 198q-9 6 -9 24q0 22 12 40t34 15h140q31 0 48 -21q21 -28 40 -37q11 16 21 31q20 27 27 27h150q41 -13 41 -51q0 -27 -22 -50t-53 -23q-11 0 -65 -53q-43 -42 -43 -75q0 -12 6 -25q12 -29 65 -78.5t84.5 -57t31.5 -44.5zM262 385q27 3 27 32
q0 39 -33 34q-28 -3 -28 -31q0 -41 34 -35z" />
    <glyph glyph-name="uniE324" unicode="&#xe324;" horiz-adv-x="513" 
d="M414 364q0 -22 -17 -57q-22 -43 -24 -48q-4 -16 -13 -51q-15 -30 -47 -103q-4 -29 -18 -81q-25 -75 -78 -180q-1 -14 -6 -38q-19 -42 -67 -102q-20 -24 -53 -24q-30 0 -63 25t-33 55q0 25 70 59t81 70t26 99q3 18 3 36q0 30 -27 133q-12 20 -34 62q-8 18 -17 90
q0 1 -46 64q-12 18 -38 56q-15 21 -15 63q0 45 27 45q6 0 14 -3q36 -12 76 -21q53 -12 71 -17q9 -3 17 -19.5t8 -25.5q0 -13 -6 -36q-12 -19 -12 -55q0 -44 17.5 -80t45.5 -36q21 0 47 24q0 14 3 39q0 2 9 36q9 29 7 41q-1 10 -7 37q-6 23 -6 36q0 32 31 45h68q57 5 57 -28
q0 -20 -25.5 -62.5t-25.5 -47.5z" />
    <glyph glyph-name="uniE325" unicode="&#xe325;" horiz-adv-x="540" 
d="M475 160q2 -46 -6 -108q-9 -12 -55 -27h-98q-40 0 -73 -16.5l-33 -16.5h-125q-6 -4 -12 -4q-21 0 -46.5 30t-23.5 43q1 15 19 38.5t20.5 34.5t15 20t90.5 108q17 23 54 98q2 3 15 22q11 15 11 24q0 14 -16 23.5t-32 9.5q-32 0 -65 -22q-9 -6 -27 -44q-16 -31 -40 -34
q-9 0 -33 30.5t-24 74.5q0 27 10 64q3 12 41 18q40 6 100 -27q6 -3 14 -3q12 0 37.5 13t34.5 14q25 0 76 5q6 1 39 12q26 7 41 7q16 0 28 -9q27 -22 27 -55q0 -20 -21 -80q-18 -52 -42 -85q-39 -36 -79 -74q-62 -57 -57 -96q1 -24 34 -33q27 -7 44 -1q33 12 57.5 59t44.5 59
q25 8 48 -9q12 -10 12 -33q-3 -15 -5 -30z" />
    <glyph glyph-name="uniE326" unicode="&#xe326;" horiz-adv-x="694" 
d="M498 204q9 -35 -5 -50q-31 -43 -99 -114q-13 -3 -39 -10q-13 -8 -43 -17t-63 -9q-80 0 -168 45q-8 3 -59 83q-9 12 -19 31l1 39v80q0 36 18 88q5 27 32 77q25 28 51 55q43 44 67 44h108q24 0 96 -48q66 -45 75 -59q14 -22 18 -37q8 -27 9 -32q20 -46 20 -52q0 1 0 -35
v-79zM397 208q21 60 0 111q-9 24 -33 49.5t-48 25.5q-10 0 -19 -6q-30 -21 -60 -21q-12 0 -37.5 14.5t-40.5 9.5q-45 -10 -45 -37q0 -15 21.5 -46t18.5 -46q-3 -9 -18.5 -27t-20.5 -31q-13 -39 17 -59q22 -6 51 -19q25 -20 52 -20q17 0 83 26q18 7 45.5 34t33.5 42z" />
    <glyph glyph-name="uniE327" unicode="&#xe327;" horiz-adv-x="552" 
d="M339 73q1 -22 -20 -29t-42 -13q-28 -13 -81 -28h-129q-40 7 -40 51q0 51 51 54q4 0 18 4q7 3 19 12q8 14 8 27q0 33 -44 80q-4 4 8 22q15 24 16 29q3 9 -9 29t-12 29q0 5 3 8q20 34 18 42q-10 21 -43 26t-50 29q-10 17 -10 44q0 73 61 76q9 0 32.5 -11t36.5 -14
q26 -6 36 3q29 22 60 22q66 0 111 -69q5 -6 -10 -25q-20 -24 -21 -32q-8 -22 -12 -76l-6 -72q-17 -21 -36 -65q-9 -48 24 -90q16 -12 34 -24q27 -19 29 -39zM424 -110q18 -1 18 -16t-18 -20q-21 8 -21 24q0 14 21 12zM-131 -98q-4 -3 -9 -3q-18 0 -18 23q0 13 14 16
q10 3 19 -4.5t9 -16.5q0 -12 -15 -15z" />
    <glyph glyph-name="uniE328" unicode="&#xe328;" horiz-adv-x="622" 
d="M400 510q-24 -8 -24 21q0 19 21 21q24 1 24 -23q0 -21 -21 -19zM432 123q-5 -42 -41 -75t-75 -33q-7 0 -16 1h-74q-9 2 -21 2q-27 0 -76.5 -16t-71.5 -16q-30 0 -56 21q-6 5 -6 15q0 33 53 93q24 36 69 102q42 60 42 81q0 9 -3 20q-8 19 -32 39.5t-48 20.5q-15 0 -27 -11
q-4 -3 -16 -1q-3 0 -9 6.5t-5 11.5q17 42 32 85q31 72 81 101q7 4 24.5 -2t33.5 -10q3 -2 38 -2q21 0 36 -18q46 -51 48 -106q0 -2 6.5 -21.5t5.5 -29.5q-2 -9 -39 -59q0 -18 -15 -49q0 -2 -39 -27q-23 -15 -23 -44q0 -37 32 -37q18 10 52 24q18 3 38 6q30 6 46 27
q3 4 -1 36q-6 43 15 63q28 -8 28 -44q0 -13 -6 -29t-6 -22q0 -10 14.5 -46t11.5 -57z" />
    <glyph glyph-name="uniE329" unicode="&#xe329;" horiz-adv-x="537" 
d="M328 -8q-19 -36 -52 -76q-17 -12 -45 -39q-8 -17 -27 -42q-96 -95 -119 -95h-58q-6 2 -15 6q-41 39 -41 77q0 6 3 10q15 30 63 50q68 25 78 33q35 24 30 72q0 -6 18 37q21 57 -6 69q-34 0 -100 18q-38 20 -38 54q0 41 45 86q72 25 72 79q0 17 -10.5 31t-32.5 19
q-27 4 -32 7q-22 17 -22 39q0 39 63 95q1 1 54 10q12 2 29 12.5t26 10.5q5 0 11 -3q51 -20 69 -77q12 -46 24 -93q4 -12 -4 -25.5t-40.5 -36t-38.5 -41.5q-3 -9 -3 -17q0 -48 74 -75q16 -6 24 -39q6 -30 0 -46v-63l3 -21q3 -15 -2 -26zM64 -20q-22 -10 -22 20q0 18 13 22
q23 0 23 -25q0 -14 -14 -17z" />
    <glyph glyph-name="uniE330" unicode="&#xe330;" horiz-adv-x="741" 
d="M546 147q4 -12 4 -24q0 -44 -45 -50h-81q-37 0 -37 -51q0 -18 4 -43q3 -14 6 -27q5 -41 2 -110q-2 -49 -41 -69q-21 -9 -45 -9q-34 0 -51 24q-33 48 -33 120q0 38 11 92q3 25 -11 36q-19 15 -43 15q-26 0 -78.5 -24t-77.5 -24q-18 0 -35 7q-28 17 -24 83v54q3 30 15 52
q21 17 59 56q-2 19 10 48q54 46 111 135q72 111 99 142q3 3 23 8q19 3 46 -5.5t33 -24t12 -50.5v-148q0 -23 -18.5 -56.5t-18.5 -48.5q0 -14 10.5 -30.5t22.5 -20.5q7 -3 45 0q37 1 51 -5q64 -24 75 -52zM238 180q23 7 23 43q0 27 -13.5 49.5t-34.5 21.5q-21 -2 -36 -21.5
t-15 -41.5q0 -23 16.5 -38.5t38.5 -15.5q11 0 21 3z" />
    <glyph glyph-name="uniE331" unicode="&#xe331;" horiz-adv-x="613" 
d="M451 514q20 -16 20 -39q0 -30 -28.5 -59t-58.5 -31q-23 -1 -58 14.5t-47 15.5q-24 0 -39 -34q-3 -8 4 -29l11 -33q7 -55 24 -93q3 -16 13 -48q24 -39 24 -82q0 -23 -7 -59q-9 -45 -11 -57q-13 -22 -36 -61q-3 -6 -12 -38q-6 -19 -22 -30q-17 -19 -50 -51q-21 -4 -64 -16
q-17 -14 -51 -36q-26 -14 -83 -32q-31 -4 -59 23t-28 60q0 31 29 52q13 9 46 8q45 -2 51 0q38 6 91 64.5t58 100.5q6 60 -11 99q-27 31 -60 97q-4 36 -3 42v78q0 48 -6 60q-12 24 -63 21q-10 12 0 26q8 3 25 -1.5t23 -4.5q39 40 80.5 80t80.5 40h97q84 -20 120 -47z" />
    <glyph glyph-name="uniE332" unicode="&#xe332;" horiz-adv-x="727" 
d="M496 634q-18 -6 -51 -24q-10 -10 -30 -25q-22 -5 -64 -17q-41 -16 -66 -40q-54 -47 -144 -138q3 -17 1 -47q-15 -16 -31 -49q0 -12 16 -29q21 -21 26 -28q6 -12 15 -56q1 -4 -2 -15.5t-3 -15.5q0 -21 27 -21q48 0 75 51q14 19 35 54q3 7 -6 25t-22.5 30t-48.5 30
q-15 8 -10 24q3 12 25 26q29 18 45 37q15 14 36 14q44 0 95 -53q45 -43 57 -81q-3 9 -3 -31q0 -24 22 -36q32 -9 32 -38q0 -27 -25.5 -51.5t-49.5 -21.5q-3 0 -35 -32q-9 -9 -25.5 -21t-50.5 -34q-21 -12 -51 -12q-41 -2 -53 -5q-16 -9 -49 -22q-5 0 -27.5 10.5t-29.5 11.5
q-20 2 -41 2q-34 3 -49 16q-21 20 -23 105q-7 17 -21 54q-3 8 8.5 32t12.5 30q-3 48 2 124q10 18 39 80q0 19 12 54q7 10 29 18.5t28 11.5q28 22 43 45.5t23 30.5q13 5 37 15q14 14 47 42q15 6 45 23q10 12 34 30q77 40 104 40q25 0 46 -24t21 -52q0 -30 -27 -47z" />
    <glyph glyph-name="uniE333" unicode="&#xe333;" horiz-adv-x="696" 
d="M592 576q-37 0 -37 22q0 23 31 23q24 0 24 -26q0 -16 -18 -19zM513 394q0 -9 -28.5 -44t-25.5 -61q13 -16 36 -54q6 -13 6 -30q0 -28 -24 -34q10 1 -48 1q-27 0 -39 -14t-24 -29q-63 -51 -80 -152q-10 -16 -30 -46q-3 -20 -27 -65q-37 -46 -99 -133q-10 -18 -36 -12
q-91 24 -87 57q2 7 18.5 26t16.5 33t10 43q59 70 77 99q1 18 13 51q20 21 40 45.5t28 50.5q12 18 34 57q6 18 18 49q18 20 36 59q2 39 -28 49q-8 2 -17 2q-15 0 -40.5 -11.5t-37.5 -12.5q-73 -11 -102 6q-22 24 -69 70q-9 9 -9 23q0 28 31 63.5t47 35.5h257q13 0 67 39
q29 19 65 0q58 -32 58 -99q0 -3 -7 -62zM192 -398q-23 -1 -23 14q0 9 14 12q21 -3 21 -15q0 -8 -12 -11z" />
    <glyph glyph-name="uniE334" unicode="&#xe334;" horiz-adv-x="660" 
d="M451 168q-13 -48 -31 -83q-12 -24 -44.5 -39t-63.5 -28q-17 0 -51 -11q-27 -18 -59 -18q-67 0 -156 69l-18 42q-33 78 -33 116q0 58 50 106q25 17 69 51q12 14 12 30q0 47 -56 74q-40 58 -40 145q0 38 9 102q24 27 60 80q19 43 67 54h62q22 1 102 -33q12 1 37 -3
q45 -17 53 -42q33 -96 33 -137q0 -28 -7 -54.5t-41 -53.5q-42 -34 -54 -51q-5 -7 -5 -15q0 -19 27 -51q24 -25 47 -49q18 -21 27 -69q7 -42 4 -75q3 -21 0 -57zM327 583q22 12 22 33q0 27 -29 54t-58 27q-10 0 -18 -4q-16 -15 -16 -41q0 -31 21.5 -55t51.5 -17q9 -1 26 3z
M319 195q0 39 -37.5 63.5t-82.5 24.5q-24 0 -43 -7q-35 -14 -35 -51q0 -17 9 -24q27 -26 54 -50q9 -7 32 -16h52q35 6 43 25.5t8 34.5z" />
    <glyph glyph-name="uniE335" unicode="&#xe335;" horiz-adv-x="697" 
d="M471 334q19 -48 -6 -162q-2 -24 -15 -73q-45 -101 -57 -125q-47 -88 -101 -136q-15 -2 -40 -6q-6 -2 -60 -27q-14 -18 -59 -55.5t-72 -48.5q-13 -4 -31 -4q-80 0 -80 52q0 8 3 18q3 20 6 27q6 15 21 27q92 66 159 80q15 1 84 81q14 16 26 33q21 24 37 28q9 3 23.5 15
t15.5 21q6 53 -28 53q-9 0 -26 -12q-24 -17 -27 -20q-79 -40 -126 -40q-34 0 -60 18q-10 6 -3 39q5 18 -9 54q-3 6 -10 19q-15 30 -15 71q0 40 15 72q7 16 22 67q8 30 32 50q81 67 105 67q16 0 43 -19q36 -24 49 -28.5t43 -5.5t52 -14q12 -8 24 -26q8 -13 15 -27
q18 -16 50 -63zM270 324q-23 -2 -48.5 -17.5t-25.5 -36.5q0 -14 14.5 -27.5t27.5 -13.5q6 0 11 3q7 -3 15 -3q19 0 32.5 17.5t13.5 39.5q0 39 -40 38z" />
    <glyph glyph-name="uniE336" unicode="&#xe336;" horiz-adv-x="943" 
d="M904 591q0 -21 -24 -44q-13 -10 -58 -33.5t-66 -41.5q-60 -54 -150 -187q-8 -11 -8 -23q0 -33 45 -70.5t80 -37.5q19 0 53 16t49 17q19 0 24 -6q15 -24 15 -72q0 -85 -144 -103h-104l-30 9q-28 3 -43 34q-23 50 -35 62.5t-27 12.5q-21 0 -52 -27q-26 -27 -53 -52
q-19 -20 -51 -29q-24 -6 -46 -13q-24 -15 -80 -35q-16 -1 -36.5 13t-39.5 29q-12 3 -35 14q-40 30 -64 66q-20 25 -20 70q0 36 15 95q0 22 3 64q11 47 56 96q67 71 75 83q6 7 4 25q-1 20 -9 30q-19 27 -20.5 52.5t-3.5 49.5q-1 15 -1 26q0 42 42 73q16 9 45 26q21 18 58 42
q15 6 32 6q48 0 130 -63q68 -51 68 -113q0 -27 -18 -45q-8 -7 -12 -24q-5 -21 -9 -27q-8 -10 -38 -25q-24 -12 -25 -33q-5 -38 34 -71q24 -24 47 -48q33 -33 55 -33q11 0 18 5q33 19 59.5 58t26.5 75q0 21 -10 38.5t-2 27.5q43 65 135 60q24 -1 58.5 7t44.5 8q42 0 42 -34z
M364 622q0 47 -55 92q-6 6 -17 6q-39 0 -34 -35v-55q-5 -24 14 -40t44 -16q48 0 48 48zM409 223q5 17 -3 26q-31 39 -63 79q-27 35 -93 99q-12 12 -31 5q-83 -29 -83 -114q0 -39 29 -135q46 -47 117 -44q108 14 127 84z" />
    <glyph glyph-name="uniE500" unicode="&#xe500;" horiz-adv-x="853" 
d="M799 55q0 -37 -33 -51q-18 0 -52 -1q-24 -3 -49.5 3t-51 9.5t-51.5 5.5q-46 4 -51 12q-9 15 -9 99v51q-6 39 -25 102q-18 30 -62 30q-15 0 -48 -6t-73.5 -40.5t-50.5 -75.5q-14 -51 -11 -60q14 -43 38 -63q7 -6 7 -24q0 -43 -30 -43h-73q-12 1 -38 9q-19 7 -28 7
q-14 0 -42.5 -9.5t-44.5 -9.5q-24 0 -44 18q-15 13 -15 33q0 22 19 44.5t46 28.5q7 2 26.5 19t28.5 35q30 62 47 102q13 21 37 66q11 54 27 140q15 22 32 67q1 32 3 62q1 9 16 30q24 36 29 67q7 48 18 74q12 33 49 81q45 57 71 57q30 0 57 -78l18 -78q9 -18 25 -56
q8 -36 24 -99q14 -25 35 -79q-2 -30 3 -87q3 -35 22 -96q23 -39 35 -79.5t40 -88.5q15 -27 56 -50q25 -13 49 -29t24 -49zM381 405q52 7 52 84q0 45 -21.5 81t-59.5 42q-18 -9 -16 -21q1 -18 -11 -64.5t-12 -66.5q0 -54 68 -55z" />
    <glyph glyph-name="uniE501" unicode="&#xe501;" horiz-adv-x="759" 
d="M618 213q1 -23 -26 -68q-19 -34 -40 -70q-23 -30 -68 -39q-10 -3 -27.5 -1.5t-55.5 -18t-62 -18.5h-227q-3 0 -10 -1h-12q-38 0 -74 54q-9 12 11 28q61 48 69 63q4 9 4 66v375q0 75 -7 90q-11 21 -90 96q-5 5 -5 9q0 11 15 21.5t29 10.5q6 0 9 -3h238q95 0 149 -18
q91 -30 127 -119q6 -18 2 -67q-5 -50 -17 -77q-16 -16 -45 -46q-16 -27 8 -59q4 -6 45 -46q30 -29 33.5 -49t9.5 -59q8 -18 17 -54zM411 576q3 9 3 19q0 41 -34.5 84.5t-73.5 43.5q-9 0 -17 -2q-18 -6 -48 -48q-24 -31 -30 -46q-12 -27 -12 -62q0 -48 25 -85.5t68 -37.5
q12 0 24 3q18 3 52 34.5t40 49t4 32.5zM471 205q16 21 -6 53q-20 19 -54 58q-14 20 -36 48q-51 42 -84 42q-48 0 -59 -73q0 -11 -12 -35t-9 -34q14 -26 27 -56q2 -87 27 -109q14 -12 35 -12q37 0 57 28q10 33 13 39q9 21 24 27q5 2 39 6q26 3 38 18z" />
    <glyph glyph-name="uniE502" unicode="&#xe502;" horiz-adv-x="895" 
d="M777 678q0 -6 -11.5 -28t-17.5 -22q-7 0 -19 6q-63 86 -140 105l-19.5 18t-28.5 18q-13 -1 -41.5 -10t-52.5 -9h-107q-18 0 -37 -32q-11 -19 -23 -40q-6 -12 -32 -33t-32 -36q-9 -23 -9 -78v-131q0 -54 7 -67q21 -36 38 -84q1 -3 70 -69q15 -17 32.5 -35t35.5 -20t51 -10
q21 -10 42.5 -20.5t36.5 -7.5q15 9 53 22q58 12 100 80q32 55 65 111q1 3 12.5 -1t14.5 -11q15 -36 15 -48q0 -5 -3 -15.5t-3 -25.5v-105q0 -46 -23 -60q-13 -7 -54.5 -10t-63.5 -15q-14 1 -42 -5q-21 -10 -40 -19t-46 -9h-99q-16 0 -28 4q-17 12 -54 36q-2 2 -71 18
q-13 12 -40 35q-12 4 -36 19q-38 30 -63 53q-18 15 -30 28q-24 26 -29 44q-12 43 -33 73q-12 18 -12 62v79q0 50 6 65q21 46 23 49q6 18 3.5 42t2 37t12.5 22q42 42 106 121q17 12 47 35q13 15 40 37q15 8 30 9q27 3 54 3q69 0 163 -18.5t119 -18.5q53 0 78 34q6 8 23 5
q16 -5 27 -14q30 -30 33 -81v-82z" />
    <glyph glyph-name="uniE503" unicode="&#xe503;" horiz-adv-x="972" 
d="M882 523q15 -60 -6 -153q-27 -108 -33 -126q-24 -66 -77 -117q-25 -28 -88 -73q-51 -21 -107.5 -26.5t-108.5 -8.5q-24 -10 -71 -24h-256q-38 6 -102 33q-32 23 -32 39q0 23 63 48q75 30 89 48q9 9 7 26q-3 36 -3 25v284q0 34 3 39q9 16 17 40q7 29 -20 60
q-19 24 -39.5 48t-42.5 32q-18 0 -48 10q-9 11 -9 23q0 21 18.5 39.5t44.5 23.5q12 -2 42.5 2t54.5 4q62 0 143 -20q19 0 70 19.5t71 19.5q6 0 12 -1q31 -11 123 -29q22 -4 58 -36q30 -25 60 -51q18 -4 50 -24q31 -30 54 -63q3 -16 15 -46q21 -21 48 -65zM694 331
q15 93 -19 195q-5 14 -22 39.5t-17 28.5q1 48 -51 87q-44 28 -87 55q-20 15 -51 15q-54 0 -84 -43q-11 -14 -12.5 -54.5t-10.5 -62.5q-27 -65 -19 -96v-281q-5 -21 2 -50t19 -43q27 -31 73 -31q38 0 77 19q126 57 168 116q21 30 34 106z" />
    <glyph glyph-name="uniE504" unicode="&#xe504;" horiz-adv-x="715" 
d="M616 135q-22 -21 -22 -50q1 -33 0 -34q-26 -45 -93 -45q-29 0 -74 9q-31 6 -64 12q-8 1 -59 -20q-9 -4 -22 -3q-21 3 -20 3h-90q-48 0 -65 -7.5t-50 -20.5q-27 -8 -52 20t-17 49q4 16 13 19q74 30 74 122q0 16 -3 34q-8 47 10 89q11 24 11 45q0 13 -5.5 29t-5.5 22v58
q0 2 4.5 23.5t4.5 23.5v106q0 86 -96 138q-13 8 -7 26q1 10 16 25q11 3 47 20q28 12 45 12q21 0 39.5 -16.5t30.5 -13.5q35 4 71 21q28 13 66 13h156q63 0 63 -33v-15q-2 -12 -2 -18v-61q14 -47 -12 -62q-13 -7 -39 -3q-16 3 -26.5 21t-21 38.5t-60.5 20.5h-79
q-69 0 -69 -62q0 -21 9 -60.5t9 -53.5q0 -22 -2 -46q2 -32 20 -47q7 -6 24 -6q28 0 60 15q24 3 67 21q14 18 44 50q12 10 19 3q32 -33 32 -47q0 -3 -3 -12.5t-3 -18.5v-60q0 1 4 -21q3 -17 0 -24q-6 -15 -21.5 -19.5t-27.5 -1.5q-14 15 -47 39q-16 9 -75 9h-58
q-33 -2 -47 -36q-7 -18 -7 -39q0 -20 18 -93q1 -30 1 -60q6 -41 47 -41h145q30 5 74 41q57 49 69 57q7 4 13 4q18 0 31.5 -21.5t13.5 -44.5q0 -13 -6 -22z" />
    <glyph glyph-name="uniE505" unicode="&#xe505;" horiz-adv-x="657" 
d="M660 492q-29 1 -29 34q0 24 15 42q27 -1 27 -34q0 -27 -13 -42zM565 765q14 -104 14 -90q0 -44 -29 -69q-12 -11 -36 -2q-25 11 -26 26t-5 42q-14 25 -38 28q-30 0 -91 5q-6 0 -29.5 15t-36.5 10q-36 -12 -35 -54q0 -10 10 -30.5t10 -29.5q0 -7 -13 -33.5t-13 -41.5
q0 -9 5 -19q19 -60 66 -60q46 0 132 69q12 10 33 -17q1 -7 0 -25q-3 -24 -3 -21v-98q0 -6 3 -23t3 -26q0 -32 -39 -32q-15 -1 -35 29q-24 31 -37 39q-41 16 -63 16q-35 0 -53 -37q-4 -11 -4 -35q1 -31 0 -40q-3 -17 -3 -32q0 -36 31 -93q45 -79 45 -109q0 -20 -22 -20
q-9 0 -31 4.5t-31 4.5q-7 0 -12 -3q-12 0 -36 -4q-19 -12 -55 -27q-42 -6 -53 0q-27 22 -70 54q-12 6 -11 25q0 18 9 26q111 99 96 151v90q0 24 -3 32q-16 25 -31 52q-5 8 -5 21q0 39 36 110q5 10 5 24q0 25 -44 103q-18 17 -52 51q-6 17 -23 50q-24 33 -24 46q0 9 9 20
q8 6 27 7q30 3 32 3h70q20 0 50.5 -15.5t50.5 -17.5q28 -3 84.5 15t53.5 18h156q19 0 55 -13q8 -8 6 -29q-1 -33 0 -40z" />
    <glyph glyph-name="uniE506" unicode="&#xe506;" horiz-adv-x="880" 
d="M757 330q-46 -60 -46 -95q0 -15 9 -44t9 -44q0 -21 -12 -36q-17 -18 -33 -36q-23 -24 -39 -30q-35 0 -98 -3q-19 -11 -55 -27q-17 -8 -72 -8h-60q-69 0 -84 12q-32 24 -83 41q-12 10 -39 34q-88 84 -91 117q-15 24 -39 71q-2 13 -5 43q-6 18 -16 57q-2 8 16 104
q-4 24 3 88q3 12 21 36t20 39q4 59 85 104q24 4 66 25q59 42 129 44q117 -3 285 0q44 3 72.5 -31.5t28.5 -79.5q0 -44 -26 -72q-9 -9 -21 -9q-45 0 -54 49q-3 12 -24 41q-24 34 -42 33q-3 0 -9.5 3.5t-9.5 3.5q-29 5 -114 -25q-24 -2 -50 -3q-43 -5 -48 -12q-24 -42 -81 -75
q-36 -21 -36 -63q0 -17 8 -48q7 -36 9 -48q-21 -18 -39 -53q1 -15 10 -45t9 -55v-89q-4 -15 46 -67.5t83 -49.5q24 3 41.5 -4.5t32.5 -16.5q24 -10 39 -7q57 15 87.5 64.5t30.5 85.5q0 37 -31 64q-30 5 -93 14q-15 13 -8 49q26 26 51 30q-1 0 50 0h202q32 -10 32 -37
q0 -20 -17 -39z" />
    <glyph glyph-name="uniE507" unicode="&#xe507;" horiz-adv-x="1056" 
d="M939 93q9 -12 9 -32q0 -27 -16.5 -37.5t-48.5 -14.5q-39 -5 -40.5 -5.5t-32.5 -18.5q-24 -12 -42 -12q-12 0 -39 13q-35 18 -41 20q-10 4 -43 0q-24 -2 -39 16q-8 11 -8 26q0 34 36 60q30 21 38 49q4 18 1 56q-3 40 0 60q3 13 -3 27q-18 33 -43 39q4 -2 -44 -2h-171
q-81 0 -87 -3q-49 -15 -49 -69q0 -82 1 -72q-4 -25 8 -64t33 -51q16 -3 48 -15q16 -9 16 -29q0 -16 -15.5 -22t-39.5 -6h-21q-14 1 -21 1q-48 0 -80 -31q-12 -3 -37 -14q-17 -10 -35 -22t-31 -9q-26 12 -78 28q-8 0 -17 11q-16 16 -9 49q6 23 30 35q36 19 41 24
q42 37 33 108v78q0 30 27 82q10 20 10 42q0 27 -21 74.5t-21 68.5q0 12 4 21t25 45q10 22 10 34q0 15 -13 32q-9 10 -53.5 15.5t-59.5 23.5q-13 15 3 40q53 81 132 81h174q15 -3 31 -5t23 -11q14 -20 8 -47q-3 -22 -14 -31q-31 -29 -64 -59q-6 -9 -6 -46v-123q0 -74 49 -74
q20 0 65.5 16t63.5 16h108q60 0 72 10q18 15 15 81q0 5 1.5 23t1.5 30q0 79 -60 112q-16 8 -32.5 15.5t-23.5 23t-7 30.5q0 56 123 56h134q-3 0 16 1q18 2 32 0q19 0 30 -4q34 -14 34 -60q0 -36 -18 -59q-39 -52 -39 -90q0 -12 3 -30q3 -19 -3 -49q-7 -24 -13 -48
q-2 -11 -2 -93v-113q-1 -21 -10 -55q-18 -36 -18 -45q0 -5 1 -11q21 -43 59 -61q22 -6 60 -30z" />
    <glyph glyph-name="uniE508" unicode="&#xe508;" horiz-adv-x="531" 
d="M418 82q8 -9 8 -19q0 -21 -31.5 -41.5t-58.5 -20.5q-9 0 -15 3h-197q-40 -3 -79 9q-50 17 -50 53q0 15 24 25q20 8 38.5 18.5t38 23t27 29t6.5 30.5q-5 27 -5 19v383q0 51 -19 78q-30 39 -62 78q-1 3 0 16q2 15 8.5 22.5t21.5 9.5q11 1 21 3h63q8 0 35.5 9t56.5 9h87
q7 6 31 0q26 -6 42 -17q6 -12 6 -21q0 -24 -47 -54.5t-47 -59.5v-456q0 -45 15 -60q42 -34 82 -69z" />
    <glyph glyph-name="uniE509" unicode="&#xe509;" horiz-adv-x="487" 
d="M372 783q1 -14 -24 -24q-47 -20 -55 -25t-10.5 -25.5t-11.5 -29.5q-43 -43 -43 -100q0 -44 24.5 -88t24.5 -89v-296v-70q-3 -12 -19 -56q-18 -51 -80 -82q-54 -26 -112 -26q-20 0 -32.5 3t-21.5 14q-15 16 0 46q3 6 39.5 24t41.5 24q12 15 17 81t1 86l-8 477q3 19 3 39
q-1 30 -49 61.5t-48 53.5q0 9 4 20q8 21 60 21q53 0 75 -3q17 -2 42 12q32 16 39 18q15 3 71 -18q22 -12 61 -32q9 -4 11 -16z" />
    <glyph glyph-name="uniE510" unicode="&#xe510;" horiz-adv-x="868" 
d="M718 -5q-13 0 -41.5 11.5t-42.5 11.5q-9 0 -33 -9t-42 -9q-15 0 -39 7.5t-36 7.5q-21 -2 -54 7q-10 9 -10 23q0 18 27 51.5t27 42.5q0 12 -16 21t-28 15q-33 29 -88 113q-36 55 -83 57q-7 0 -21 -26q-6 -10 -6 -57v-73q0 -39 15 -56.5t74 -56.5q19 -27 13 -42
q-9 -24 -64 -43q-6 -3 -24 0q-23 3 -20 3h-115q-59 0 -57 -2q-35 6 -47 35q-3 7 -3 16q0 23 32 50q27 19 52 39q3 3 3 48v436q0 3 2.5 14.5t2.5 17.5q-2 10 -8 16q-81 77 -81 110q0 22 36 27q11 1 68 1h69h67q38 -4 53 -30q10 -19 -3 -30q-45 -28 -57 -54q-8 -16 -8 -57v-91
q-6 -6 -6 -17q0 -18 15 -36t30 -18q9 0 17 6q61 59 76 122q15 16 41 48q33 42 15 72q-14 22 -14 45q0 30 21 49.5t51 19.5h188q13 -3 16 -5q12 -4 15 -12.5t3 -15.5q0 -48 -109 -65q-12 -1 -28 -24.5t-28 -42.5q-21 -24 -54 -53q-15 -27 -51 -81q-40 -49 -40 -76
q0 -30 39 -50q9 -3 30 -22q25 -24 34 -41q26 -45 81.5 -99.5t69 -76.5t85.5 -62q36 -20 36 -63q0 -47 -47 -47z" />
    <glyph glyph-name="uniE511" unicode="&#xe511;" horiz-adv-x="808" 
d="M519 499q-29 0 -29 24q0 14 21 20q27 7 27 -23q0 -18 -19 -21zM474 366q-33 10 -33 54q0 31 30 34q31 3 31 -36q0 -37 -28 -52zM685 67q-4 -16 -18 -22q-27 -14 -51 -17q-31 -1 -36 -3q-16 -9 -33 -18q-27 -13 -46 -13q-8 0 -15 1h-329q-16 0 -88 30q-12 5 -41 6
q-19 2 -30 15q-3 5 -3 14q0 27 20 37q117 51 120 131q3 106 -6 130l-20 38q-9 18 -9 60v180q0 10 3 30q2 12 -2 23t-19 38q-1 2 -31 30q-21 20 -21 47q0 28 25 40q9 5 45 0h227q48 0 74 -15t112 -19q18 -2 21 -30q-2 -21 -2 -42q5 -41 -16 -72.5t-41 -35.5q-15 -3 -33 30
q0 1 8 21q3 -2 7 -2q14 0 28 11.5t14 24.5q0 11 -12 18q0 60 -36 53q-10 -2 -14.5 -23t-16.5 -31q-9 0 -29 -3q-1 0 -11.5 -9t-16.5 -8q-26 2 -41.5 -14.5t-15.5 -39.5q0 -13 7 -22q-9 -5 -13 -15q-24 -62 -24 -95q0 -16 9.5 -45.5t9.5 -57.5v-164q0 -54 14.5 -81.5
t57.5 -66.5q35 -29 68 -29q45 0 81 53q1 1 29.5 14.5t36 31t18 37.5t27.5 20q73 0 73 -82q0 -36 -15 -89z" />
    </font>
</defs>
</svg>
